<svg width="30" height="30" viewBox="0 0 30 30" fill="none" xmlns="http://www.w3.org/2000/svg">
<path d="M15 0.742554L26.8429 7.87128V22.1287L15 29.2575L3.1571 22.1287V7.87128L15 0.742554Z" fill="url(#paint0_linear_61165_23913)"/>
<g filter="url(#filter0_n_61165_23913)">
<path d="M15 4.07275L24.2472 9.53638V20.4636L15 25.9272L5.7528 20.4636V9.53638L15 4.07275Z" fill="#04101B"/>
</g>
<path d="M10.1332 14.0703C10.2646 13.528 10.4898 13.0275 10.7526 12.5479H6.37922C6.22906 12.5479 6.13521 12.6938 6.19152 12.8607L6.39799 13.5072C6.51061 13.8409 6.79216 14.0703 7.13002 14.0703H10.1332Z" fill="url(#paint1_linear_61165_23913)"/>
<path d="M9.98313 16.385C9.94559 16.1347 9.94559 15.8845 9.94559 15.6342C9.94559 15.3839 9.96436 15.1337 9.98313 14.8834H7.13011C6.97995 14.8834 6.8861 15.0294 6.94241 15.1962L7.14888 15.8427C7.2615 16.1764 7.54305 16.4058 7.88091 16.4058H9.98313V16.385Z" fill="url(#paint2_linear_61165_23913)"/>
<path d="M7.86194 17.1985C7.71178 17.1985 7.61793 17.3445 7.67424 17.5113L7.88071 18.1578C7.99333 18.4915 8.27488 18.7209 8.61274 18.7209H10.7525C10.4897 18.2621 10.2645 17.7407 10.1331 17.1985H7.86194Z" fill="url(#paint3_linear_61165_23913)"/>
<path d="M23.7975 12.5479H19.4241C19.6869 13.0067 19.9121 13.528 20.0435 14.0703H23.0655C23.3846 14.0703 23.6849 13.8409 23.7975 13.5072L24.004 12.8607C24.0415 12.7147 23.9477 12.5479 23.7975 12.5479Z" fill="url(#paint4_linear_61165_23913)"/>
<path d="M23.0468 14.8834H20.1938C20.2314 15.1337 20.2314 15.3839 20.2314 15.6342C20.2314 15.8845 20.2126 16.1347 20.1938 16.385H22.3148C22.6339 16.385 22.9342 16.1556 23.0468 15.8219L23.2533 15.1754C23.2908 15.0294 23.197 14.8834 23.0468 14.8834Z" fill="url(#paint5_linear_61165_23913)"/>
<path d="M22.3147 17.1985H20.0435C19.9121 17.7407 19.7057 18.2412 19.4241 18.7209H21.5639C21.883 18.7209 22.1833 18.4915 22.2959 18.1578L22.5024 17.5113C22.5399 17.3653 22.4461 17.1985 22.3147 17.1985Z" fill="url(#paint6_linear_61165_23913)"/>
<path d="M15.0885 10.7335C12.6484 10.7335 10.6775 12.9233 10.6775 15.6344C10.6775 18.3455 12.6484 20.5353 15.0885 20.5353C17.5285 20.5353 19.4994 18.3455 19.4994 15.6344C19.4994 12.9233 17.5285 10.7335 15.0885 10.7335ZM17.8664 14.9671L16.7027 16.1349C16.6651 16.1766 16.6464 16.2392 16.6464 16.3018L16.9654 18.0119C17.0217 18.3038 16.7402 18.5124 16.515 18.3664L15.1635 17.5114C15.1072 17.4905 15.0509 17.4905 15.0134 17.5114L13.6432 18.3664C13.4179 18.5124 13.1364 18.283 13.1927 18.0119L13.5118 16.3018C13.5306 16.2392 13.5118 16.1766 13.4555 16.1349L12.2917 14.9671C12.1041 14.7794 12.1979 14.404 12.4607 14.3831L14.0186 14.1954C14.0749 14.1954 14.1124 14.1537 14.15 14.0912L14.7881 12.5062C14.9008 12.2351 15.2386 12.2351 15.3512 12.5062L16.0082 14.0912C16.0269 14.1537 16.0833 14.1746 16.1396 14.1954L17.6975 14.3831C17.9602 14.404 18.0541 14.7585 17.8664 14.9671Z" fill="url(#paint7_linear_61165_23913)"/>
<defs>
<filter id="filter0_n_61165_23913" x="5.7528" y="4.07275" width="18.4944" height="21.8545" filterUnits="userSpaceOnUse" color-interpolation-filters="sRGB">
<feFlood flood-opacity="0" result="BackgroundImageFix"/>
<feBlend mode="normal" in="SourceGraphic" in2="BackgroundImageFix" result="shape"/>
<feTurbulence type="fractalNoise" baseFrequency="0.90909087657928467 0.90909087657928467" stitchTiles="stitch" numOctaves="3" result="noise" seed="1585" />
<feComponentTransfer in="noise" result="coloredNoise1">
<feFuncR type="linear" slope="2" intercept="-0.5" />
<feFuncG type="linear" slope="2" intercept="-0.5" />
<feFuncB type="linear" slope="2" intercept="-0.5" />
<feFuncA type="discrete" tableValues="1 1 1 1 1 1 1 1 1 1 1 1 1 1 1 1 1 1 1 1 1 1 1 1 1 1 1 1 1 1 1 1 1 1 1 1 1 1 1 1 1 1 1 1 1 1 1 1 1 1 1 0 0 0 0 0 0 0 0 0 0 0 0 0 0 0 0 0 0 0 0 0 0 0 0 0 0 0 0 0 0 0 0 0 0 0 0 0 0 0 0 0 0 0 0 0 0 0 0 0 "/>
</feComponentTransfer>
<feComposite operator="in" in2="shape" in="coloredNoise1" result="noise1Clipped" />
<feComponentTransfer in="noise1Clipped" result="color1">
<feFuncA type="table" tableValues="0 0.06" />
</feComponentTransfer>
<feMerge result="effect1_noise_61165_23913">
<feMergeNode in="shape" />
<feMergeNode in="color1" />
</feMerge>
</filter>
<linearGradient id="paint0_linear_61165_23913" x1="15" y1="0.742554" x2="15" y2="29.2575" gradientUnits="userSpaceOnUse">
<stop stop-color="#416388"/>
<stop offset="1" stop-color="#101922" stop-opacity="0.9"/>
</linearGradient>
<linearGradient id="paint1_linear_61165_23913" x1="8.4638" y1="12.5479" x2="8.4638" y2="14.0703" gradientUnits="userSpaceOnUse">
<stop stop-color="#6DE2F5"/>
<stop offset="1" stop-color="#40848F"/>
</linearGradient>
<linearGradient id="paint2_linear_61165_23913" x1="8.45451" y1="14.8834" x2="8.45451" y2="16.4058" gradientUnits="userSpaceOnUse">
<stop stop-color="#6DE2F5"/>
<stop offset="1" stop-color="#40848F"/>
</linearGradient>
<linearGradient id="paint3_linear_61165_23913" x1="9.20511" y1="17.1985" x2="9.20511" y2="18.7209" gradientUnits="userSpaceOnUse">
<stop stop-color="#6DE2F5"/>
<stop offset="1" stop-color="#40848F"/>
</linearGradient>
<linearGradient id="paint4_linear_61165_23913" x1="21.7182" y1="12.5479" x2="21.7182" y2="14.0703" gradientUnits="userSpaceOnUse">
<stop stop-color="#6DE2F5"/>
<stop offset="1" stop-color="#40848F"/>
</linearGradient>
<linearGradient id="paint5_linear_61165_23913" x1="21.7277" y1="14.8834" x2="21.7277" y2="16.385" gradientUnits="userSpaceOnUse">
<stop stop-color="#6DE2F5"/>
<stop offset="1" stop-color="#40848F"/>
</linearGradient>
<linearGradient id="paint6_linear_61165_23913" x1="20.9674" y1="17.1985" x2="20.9674" y2="18.7209" gradientUnits="userSpaceOnUse">
<stop stop-color="#6DE2F5"/>
<stop offset="1" stop-color="#40848F"/>
</linearGradient>
<linearGradient id="paint7_linear_61165_23913" x1="15.0885" y1="10.7335" x2="15.0885" y2="20.5353" gradientUnits="userSpaceOnUse">
<stop stop-color="#6DE2F5"/>
<stop offset="1" stop-color="#40848F"/>
</linearGradient>
</defs>
</svg>
