<svg width="24" height="24" viewBox="0 0 24 24" fill="none" xmlns="http://www.w3.org/2000/svg">
<path d="M12.0006 2C9.6762 2 7.78206 3.92428 7.78206 6.28571C7.78206 8.64714 9.6762 10.5714 12.0006 10.5714C14.325 10.5714 16.2192 8.64714 16.2192 6.28571C16.2192 3.92428 14.325 2 12.0006 2ZM12.0006 2.95238C13.8179 2.95238 15.2817 4.43954 15.2817 6.28571C15.2817 8.13187 13.8179 9.61904 12.0006 9.61904C10.1834 9.61904 8.71952 8.13187 8.71952 6.28571C8.71952 4.43954 10.1834 2.95238 12.0006 2.95238ZM11.9997 11.0476C10.0049 11.0476 8.18215 11.3434 6.80244 12.0939C5.42281 12.8445 4.5 14.127 4.5 15.857V20.1901H4.50092C4.50092 20.3863 4.61901 20.5621 4.79844 20.6337C4.79844 20.6337 8.2068 22 12.0005 22C15.7941 22 19.2025 20.6337 19.2025 20.6337C19.3819 20.5621 19.5 20.3863 19.5 20.1901V15.857C19.5 14.1262 18.5772 12.8437 17.1976 12.0939C15.8179 11.3434 13.9952 11.0476 12.0003 11.0476H11.9997ZM11.9997 12C13.9003 12 15.593 12.3013 16.7547 12.9338C17.9165 13.5653 18.5619 14.4488 18.5619 15.8569V19.8402C18.1417 20.0002 15.3173 21.0474 11.9997 21.0474C8.68202 21.0474 5.8577 19.9992 5.43748 19.8402V15.8569C5.43748 14.4478 6.0829 13.5652 7.24464 12.9338C8.40639 12.3023 10.0992 12 11.9997 12Z" fill="#020202"/>
</svg>
