<svg width="24" height="24" viewBox="0 0 24 24" fill="none" xmlns="http://www.w3.org/2000/svg">
<path fill-rule="evenodd" clip-rule="evenodd" d="M19.4922 4.73615H4.50776C4.17079 4.73615 3.89626 4.46162 3.89626 4.12465V2.61151C3.89626 2.27454 4.17079 2 4.50776 2H19.4922C19.8292 2 20.1038 2.27454 20.1038 2.61151V4.12465C20.1038 4.46162 19.8292 4.73615 19.4922 4.73615ZM4.63164 4.00162H19.3691V2.73547H4.63164V4.00162Z" fill="#020202"/>
<path fill-rule="evenodd" clip-rule="evenodd" d="M12 13.3029C11.9339 13.3029 11.8678 13.2845 11.8091 13.2487L5.75745 9.55396C5.64819 9.48693 5.58116 9.36849 5.58116 9.24087V4.36898C5.58116 4.16606 5.74551 4.00171 5.94843 4.00171C6.15134 4.00171 6.31569 4.16606 6.31569 4.36898V9.0352L12.0002 12.505L17.6846 9.0352V4.36898C17.6846 4.16606 17.849 4.00171 18.0519 4.00171C18.2548 4.00171 18.4192 4.16606 18.4192 4.36898V9.24087C18.4192 9.3685 18.3521 9.48786 18.2429 9.55396L12.1913 13.2487C12.1325 13.2845 12.0662 13.3029 12 13.3029Z" fill="#020202"/>
<path fill-rule="evenodd" clip-rule="evenodd" d="M14.2932 11.9025C14.0903 11.9025 13.926 11.7381 13.926 11.5352V4.73612H10.0723V11.5352C10.0723 11.7381 9.90795 11.9025 9.70504 11.9025C9.50212 11.9025 9.33777 11.7381 9.33777 11.5352V4.36898C9.33777 4.16606 9.50212 4.00171 9.70504 4.00171H14.2932C14.4961 4.00171 14.6605 4.16606 14.6605 4.36898V11.5352C14.6605 11.7381 14.4961 11.9025 14.2932 11.9025Z" fill="#020202"/>
<path fill-rule="evenodd" clip-rule="evenodd" d="M13.4096 14.6968C13.2067 14.6968 13.0424 14.5324 13.0424 14.3295V13.303H10.9572V14.3295C10.9572 14.5324 10.7929 14.6968 10.59 14.6968C10.387 14.6968 10.2227 14.5324 10.2227 14.3295V13.2259C10.2227 12.8632 10.5174 12.5685 10.8801 12.5685H13.1195C13.4822 12.5685 13.7769 12.8632 13.7769 13.2259V14.3295C13.7769 14.5324 13.6126 14.6968 13.4096 14.6968Z" fill="#020202"/>
<path fill-rule="evenodd" clip-rule="evenodd" d="M12.0002 22C9.72677 22 7.87666 20.1499 7.87666 17.8765C7.87666 15.6032 9.72677 13.7531 12.0002 13.7531C14.2735 13.7531 16.1237 15.6032 16.1237 17.8765C16.1237 20.1499 14.2745 22 12.0002 22ZM12.0002 14.4876C10.1317 14.4876 8.6112 16.0081 8.6112 17.8765C8.6112 19.745 10.1317 21.2655 12.0002 21.2655C13.8686 21.2655 15.3891 19.745 15.3891 17.8765C15.3891 16.0081 13.8686 14.4876 12.0002 14.4876Z" fill="#020202"/>
<path fill-rule="evenodd" clip-rule="evenodd" d="M13.1742 20.0511C13.1145 20.0511 13.0549 20.0364 13.0007 20.007L11.9999 19.469L10.9991 20.007C10.8751 20.074 10.7236 20.0639 10.6089 19.9804C10.495 19.8978 10.4381 19.7564 10.4638 19.6177L10.6667 18.4994L9.84586 17.7144C9.74395 17.617 9.70722 17.4692 9.75037 17.3351C9.79353 17.2011 9.91014 17.1038 10.0506 17.0845L11.1763 16.9321L11.6694 15.9083C11.7309 15.7816 11.8594 15.7008 11.9999 15.7008C12.1413 15.7008 12.2698 15.7816 12.3304 15.9083L12.8235 16.9321L13.9492 17.0845C14.0887 17.1038 14.2053 17.2011 14.2494 17.3351C14.2925 17.4692 14.2558 17.6161 14.1539 17.7144L13.3331 18.4994L13.536 19.6177C13.5608 19.7563 13.5047 19.8977 13.39 19.9804C13.3257 20.0272 13.2504 20.0502 13.1742 20.0502L13.1742 20.0511ZM10.9036 17.7107L11.3168 18.1055C11.4058 18.1909 11.4462 18.3148 11.4242 18.436L11.3223 18.9979L11.8254 18.7271C11.9338 18.6683 12.0651 18.6683 12.1734 18.7271L12.6766 18.9979L12.5746 18.436C12.5526 18.3148 12.593 18.19 12.6821 18.1055L13.0952 17.7107L12.5287 17.6336C12.4066 17.617 12.301 17.5399 12.2469 17.4288L11.9989 16.9137L11.751 17.4288C11.6978 17.5399 11.5922 17.617 11.4692 17.6336L10.9026 17.7107H10.9036Z" fill="#020202"/>
</svg>
