<svg width="24" height="24" viewBox="0 0 24 24" fill="none" xmlns="http://www.w3.org/2000/svg">
<path fill-rule="evenodd" clip-rule="evenodd" d="M7.13652 13.4318L10.5684 16.8639C14.2166 15.4067 16.9261 13.4903 18.6962 11.1153C19.7839 9.65592 20.5197 8.01855 20.9015 6.20411C20.5763 6.21234 20.2542 6.16809 19.9476 6.07547C19.4701 5.93242 19.0276 5.67206 18.6653 5.3098C18.3031 4.94755 18.0427 4.50501 17.8997 4.02749C17.8102 3.73008 17.767 3.41927 17.7711 3.10436C15.9671 3.48822 14.3392 4.22098 12.886 5.30467C12.0772 5.90775 11.3208 6.61991 10.6189 7.44013C10.6117 7.45043 10.6035 7.45969 10.5942 7.46895C9.595 8.64113 8.70485 10.0356 7.92161 11.6503C7.91646 11.6637 7.91029 11.676 7.90308 11.6884C7.6345 12.2431 7.37939 12.8247 7.13652 13.4318ZM12.9518 16.6613C14.2875 15.9945 15.4761 15.2535 16.5165 14.4374C16.5545 14.8284 16.5566 15.2236 16.5216 15.625C16.4691 16.227 16.3343 16.8455 16.112 17.4898C14.7382 18.6352 14.2525 18.9594 12.2478 20.0894C12.4722 19.6716 12.6481 19.2599 12.7727 18.8554C13.0052 18.1001 13.065 17.3683 12.9518 16.6613ZM17.2349 13.8415C17.3378 14.4487 17.3635 15.0631 17.309 15.6929C17.2483 16.3938 17.0877 17.1111 16.8212 17.8551C16.7985 17.9189 16.7584 17.9776 16.7028 18.0249C14.9771 19.4678 14.6128 19.6716 11.5296 21.3975L11.2291 21.5663C11.0953 21.6404 10.9245 21.6332 10.7948 21.5344C10.623 21.4016 10.5911 21.1536 10.7238 20.9817C11.3557 20.1605 11.7879 19.3752 12.0184 18.625C12.1892 18.0723 12.25 17.5372 12.2016 17.0216C11.7015 17.2511 11.1828 17.4713 10.6446 17.6823C10.4974 17.7543 10.3132 17.7296 10.1907 17.6072L9.89334 17.3098L9.02893 18.1753C8.87456 18.3296 8.62449 18.3296 8.47013 18.1753L5.82647 15.5315C5.67211 15.3771 5.67211 15.127 5.82647 14.9726L6.69296 14.1061L6.39556 13.8087L6.39659 13.8076C6.28957 13.7006 6.24943 13.537 6.30809 13.3867C6.52111 12.8382 6.74546 12.3102 6.97906 11.8019C6.46555 11.7545 5.9335 11.8163 5.38295 11.985C4.63274 12.2166 3.84757 12.6478 3.02636 13.2797C2.85451 13.4125 2.60648 13.3806 2.47373 13.2087C2.37391 13.08 2.36671 12.9082 2.44183 12.7754L2.6106 12.4729C4.33535 9.39172 4.54012 9.0263 5.9819 7.30144C6.02821 7.24586 6.08789 7.20573 6.1517 7.18309C6.89572 6.91654 7.613 6.75599 8.31379 6.69526C8.94049 6.64072 9.55176 6.66645 10.1569 6.76833C10.8587 5.96868 11.611 5.26991 12.4136 4.67096C14.973 2.76294 18.0377 1.87698 21.6065 2.01371C21.8113 2.02092 21.9791 2.18558 21.9863 2.39346C22.1231 5.96254 21.2371 9.02736 19.3292 11.5877C18.7302 12.3894 18.0324 13.1417 17.2349 13.8415ZM7.30539 18.7803L4.76046 21.3254C4.6061 21.4798 4.6061 21.7299 4.76046 21.8842C4.91483 22.0386 5.1649 22.0386 5.31926 21.8842L7.86418 19.3392C8.01855 19.1848 8.01855 18.9347 7.86418 18.7803C7.70982 18.626 7.45974 18.626 7.30539 18.7803ZM4.66173 16.1365L2.11577 18.6816C1.96141 18.836 1.96141 19.0861 2.11577 19.2404C2.27013 19.3948 2.52021 19.3948 2.67456 19.2404L5.21949 16.6953C5.37385 16.541 5.37385 16.2909 5.21949 16.1365C5.06616 15.9821 4.8161 15.9821 4.66173 16.1365ZM5.98408 17.4579L2.15281 21.2894C1.99845 21.4438 1.99845 21.6939 2.15281 21.8482C2.30717 22.0026 2.55725 22.0026 2.7116 21.8482L6.54288 18.0167C6.69724 17.8624 6.69724 17.6123 6.54288 17.4579C6.38851 17.3036 6.13844 17.3036 5.98408 17.4579ZM9.29058 16.7962L8.74928 17.3375L6.66435 15.2525L7.20565 14.7112L9.29058 16.7962ZM21.0447 5.40686C20.7493 5.43567 20.453 5.4048 20.172 5.32041C19.8201 5.21441 19.4928 5.02196 19.2232 4.75234C18.9536 4.48272 18.7611 4.15545 18.6552 3.80346C18.5739 3.53281 18.542 3.2467 18.5656 2.96163C19.4105 2.83299 20.2914 2.77639 21.2093 2.79286C21.2247 3.6985 21.1702 4.57016 21.0447 5.40686ZM9.56008 7.48776C8.74401 8.52821 8.00307 9.71686 7.33727 11.0526C6.63234 10.9405 5.90376 11.0012 5.15047 11.2327C4.745 11.3573 4.3344 11.5322 3.9166 11.7576C5.04654 9.75282 5.37068 9.26708 6.51606 7.89317C7.16026 7.67088 7.77875 7.53605 8.38074 7.4846C8.77899 7.44858 9.17108 7.45071 9.56008 7.48776ZM15.9547 8.04659C16.3776 8.46957 16.5886 9.02323 16.5886 9.57794H16.5865C16.5865 10.1327 16.3755 10.6873 15.9536 11.1083C15.5307 11.5313 14.977 11.7433 14.4234 11.7433C13.8708 11.7433 13.3171 11.5313 12.8931 11.1083L12.8921 11.1093C12.4702 10.6873 12.2592 10.1327 12.2592 9.57897H12.2582C12.2582 9.02426 12.4702 8.4706 12.8921 8.04761C13.3151 7.62463 13.8687 7.41368 14.4234 7.41368C14.977 7.41162 15.5317 7.62362 15.9547 8.04659ZM15.8003 9.57691C15.8003 9.92784 15.6655 10.2798 15.3959 10.5494C15.1273 10.818 14.7753 10.9518 14.4234 10.9518C14.0704 10.9518 13.7185 10.818 13.4509 10.5505V10.5484C13.1813 10.2788 13.0465 9.92681 13.0465 9.57588H13.0485C13.0485 9.22393 13.1823 8.87195 13.4509 8.60335C13.7195 8.33475 14.0714 8.20097 14.4234 8.20097C14.7753 8.20097 15.1273 8.33476 15.3958 8.60335C15.6644 8.87194 15.7982 9.22393 15.7982 9.57588L15.8003 9.57691Z" fill="#020202"/>
</svg>
