<svg width="24" height="24" viewBox="0 0 24 24" fill="none" xmlns="http://www.w3.org/2000/svg">
<rect x="3" y="3" width="18" height="18" rx="9" fill="#180009"/>
<rect x="3" y="3" width="18" height="18" rx="9" stroke="#DD6161" stroke-width="2"/>
<path d="M13.7077 12.2979C13.431 12.2979 13.2276 12.376 13.0974 12.5322C12.9672 12.6885 12.9021 12.874 12.9021 13.0889C12.9021 13.3005 12.9672 13.486 13.0974 13.6455C13.2308 13.805 13.4343 13.8848 13.7077 13.8848C13.9812 13.8848 14.1846 13.805 14.3181 13.6455C14.4548 13.486 14.5231 13.3005 14.5231 13.0889C14.5231 12.874 14.4564 12.6885 14.323 12.5322C14.1895 12.376 13.9844 12.2979 13.7077 12.2979ZM13.7077 11.6582C13.9974 11.6582 14.2481 11.7217 14.4597 11.8486C14.6745 11.9723 14.8405 12.1416 14.9577 12.3564C15.0749 12.5713 15.1335 12.8154 15.1335 13.0889C15.1335 13.359 15.0749 13.6032 14.9577 13.8213C14.8438 14.0394 14.6794 14.2119 14.4646 14.3389C14.253 14.4658 14.0007 14.5293 13.7077 14.5293C13.418 14.5293 13.1674 14.4658 12.9558 14.3389C12.7442 14.2119 12.5798 14.0394 12.4626 13.8213C12.3487 13.6032 12.2917 13.359 12.2917 13.0889C12.2917 12.8154 12.3487 12.5713 12.4626 12.3564C12.5798 12.1416 12.7442 11.9723 12.9558 11.8486C13.1674 11.7217 13.418 11.6582 13.7077 11.6582Z" fill="white"/>
<path d="M10.8245 15.4131H10.0579C10.0579 14.7783 10.0367 14.1842 9.99443 13.6309C9.95211 13.0742 9.88538 12.5387 9.79424 12.0244C9.70309 11.5101 9.58102 10.9974 9.42802 10.4863C9.27503 9.97201 9.08786 9.43815 8.8665 8.88477L9.60869 8.58691C9.83004 9.15658 10.0188 9.71159 10.1751 10.252C10.3313 10.7891 10.4567 11.3294 10.5511 11.873C10.6455 12.4134 10.7138 12.9749 10.7561 13.5576C10.8017 14.1403 10.8245 14.7588 10.8245 15.4131Z" fill="white"/>
</svg>
