<svg width="48" height="48" viewBox="0 0 48 48" fill="none" xmlns="http://www.w3.org/2000/svg">
<path d="M45.4345 30.0618C44.999 28.8058 43.9493 27.8271 42.6268 27.4467C34.8503 25.2029 32.8841 16.9911 32.863 16.9084C32.8561 16.8763 32.847 16.8442 32.8355 16.8121C30.2204 9.26259 25.7583 6.76897 22.4738 6.00798C21.4928 5.78107 20.5623 5.69398 19.7235 5.68252C19.6799 5.44874 19.6272 5.21496 19.5493 4.98806C18.7746 2.75343 16.501 1.50662 14.475 2.21023C12.4512 2.91155 11.4313 5.29745 12.2036 7.53208C12.2884 7.77502 12.3962 7.9813 12.5131 8.1715C11.853 8.70094 11.17 9.34726 10.5328 10.1403C8.42193 12.7692 6.45321 17.488 9.06599 25.0381C9.07745 25.0701 9.08891 25.1022 9.10495 25.1297C9.14163 25.2077 12.6895 32.9198 7.90397 39.5024C7.12244 40.5796 6.90699 41.9502 7.34932 43.2291C7.93835 44.9297 9.53585 46 11.2387 46C11.6811 46 12.1326 45.9267 12.5726 45.7754L21.2979 42.7547C22.2766 44.3728 24.2499 45.3194 26.4777 45.3194C27.3715 45.3194 28.3044 45.1681 29.228 44.8472C32.4596 43.7288 34.4926 40.928 34.1671 38.2993L42.8924 35.2785C43.9284 34.921 44.7627 34.1807 45.2417 33.1929C45.7207 32.2073 45.7871 31.0935 45.4296 30.0575L45.4345 30.0618ZM13.9386 6.92918C13.4962 5.65028 14.0074 4.31182 15.0754 3.94048C16.1457 3.57147 17.3742 4.30948 17.8166 5.58609C17.8395 5.65026 17.8486 5.71902 17.867 5.7832C16.6798 5.93218 15.9234 6.18887 15.8638 6.2095C15.8042 6.23012 15.0525 6.49599 14.0348 7.1079C14.005 7.04831 13.9638 6.99331 13.9409 6.92913L13.9386 6.92918ZM28.6345 43.1166C26.4068 43.8867 24.163 43.4283 23.1109 42.1311L27.7315 40.5313C27.7315 40.5313 27.7384 40.529 27.7429 40.5267L32.3818 38.9223C32.3589 40.5955 30.8668 42.3464 28.6368 43.1165L28.6345 43.1166ZM43.5986 32.3952C43.3327 32.9407 42.872 33.3509 42.2991 33.548L27.1473 38.792C27.1473 38.792 27.1404 38.7942 27.1358 38.7965L21.4725 40.7561L11.9791 44.0405C10.8011 44.453 9.49923 43.8159 9.06839 42.5691C8.84149 41.9159 8.96296 41.171 9.39384 40.5797C14.6745 33.3142 11.1495 25.1756 10.7896 24.3917C7.69554 15.4006 11.5827 10.986 14.2871 9.11137C14.3238 9.08845 14.3627 9.07699 14.3948 9.0472C14.404 9.04032 14.4063 9.02886 14.4154 9.01969C15.488 8.29772 16.3476 7.98147 16.4644 7.94022C16.4896 7.93105 19.0039 7.08306 22.0636 7.78895C26.1731 8.7424 29.2124 11.9626 31.0917 17.3621C31.2934 18.1987 33.5395 26.7293 42.1205 29.2047C42.8723 29.4202 43.4636 29.9657 43.7043 30.6579C43.9037 31.2308 43.867 31.8473 43.6011 32.3928L43.5986 32.3952Z" fill="white"/>
<path d="M24.5186 3.83325C24.7982 3.83325 31.1792 3.90659 32.9347 10.1019C33.0493 10.5053 33.416 10.7689 33.8148 10.7689C33.8973 10.7689 33.9821 10.7574 34.0646 10.7322C34.5505 10.5947 34.8347 10.0881 34.6972 9.59997C32.5634 2.07099 24.647 2 24.5121 2C24.0056 2.00229 23.5999 2.41484 23.5999 2.91906C23.6022 3.42329 24.0121 3.83325 24.5186 3.83325Z" fill="white"/>
<path d="M7.58985 9.61119C7.98865 9.29949 8.0597 8.72651 7.74799 8.32771C7.43629 7.92891 6.86332 7.85557 6.46222 8.16727C6.40034 8.2177 0.166567 13.1752 3.15269 20.4406C3.29937 20.7935 3.64087 21.009 4.0007 21.009C4.11759 21.009 4.23448 20.9861 4.34907 20.9402C4.81663 20.7477 5.04124 20.2114 4.84871 19.7438C2.39863 13.7849 7.379 9.78282 7.58987 9.61326L7.58985 9.61119Z" fill="white"/>
</svg>
