<svg width="67" height="66" viewBox="0 0 67 66" fill="none" xmlns="http://www.w3.org/2000/svg">
<path d="M44.0168 24.903C42.4418 24.903 41.1617 26.1796 41.1617 27.7503C41.1617 29.3209 42.4418 30.5975 44.0168 30.5975C45.5919 30.5975 46.8719 29.3209 46.8719 27.7503C46.8719 26.1796 45.5919 24.903 44.0168 24.903ZM44.0168 28.6993C43.491 28.6993 43.0651 28.2746 43.0651 27.7503C43.0651 27.2259 43.491 26.8012 44.0168 26.8012C44.5426 26.8012 44.9685 27.2259 44.9685 27.7503C44.9685 28.2746 44.5426 28.6993 44.0168 28.6993ZM34.4998 46.732C30.3028 46.732 26.8861 50.1392 26.8861 54.3246C26.8861 58.51 30.3028 61.9172 34.4998 61.9172C38.6968 61.9172 42.1134 58.51 42.1134 54.3246C42.1134 50.1392 38.6968 46.732 34.4998 46.732ZM34.4998 60.0191C31.352 60.0191 28.7895 57.4637 28.7895 54.3246C28.7895 51.1856 31.352 48.6302 34.4998 48.6302C37.6476 48.6302 40.21 51.1856 40.21 54.3246C40.21 57.4637 37.6476 60.0191 34.4998 60.0191ZM46.8716 9.71845H41.1614C40.8949 9.71845 40.6403 9.82997 40.4595 10.0245C40.2811 10.2191 40.1907 10.4825 40.2121 10.7458L41.1638 22.1347C41.2066 22.6282 41.6182 23.0055 42.1131 23.0055H45.9199C46.4148 23.0055 46.8265 22.6282 46.8669 22.1347L47.8186 10.7458C47.84 10.4801 47.7496 10.2191 47.5712 10.0245C47.3927 9.82998 47.1381 9.71845 46.8716 9.71845ZM45.0443 21.1073H42.9887L42.1964 11.6166H45.8367L45.0443 21.1073ZM17.6755 44.7325C17.497 44.9104 17.3971 45.1524 17.3971 45.4039C17.3971 45.6555 17.497 45.8975 17.6755 46.0754L20.3664 48.759C20.7376 49.1291 21.3396 49.1291 21.7131 48.759C28.7627 41.7288 40.2355 41.7288 47.2851 48.759C47.4707 48.944 47.7134 49.0366 47.9585 49.0366C48.2012 49.0366 48.4462 48.944 48.6318 48.759L51.3228 46.0754C51.694 45.7053 51.694 45.105 51.3228 44.7325C42.0463 35.4817 26.9519 35.4816 17.6755 44.7325ZM47.9418 46.7611C44.1421 43.3135 39.3219 41.5886 34.4992 41.5886C29.6764 41.5886 24.856 43.3135 21.0565 46.7611L19.7099 45.4182C28.0563 37.783 40.9495 37.783 49.291 45.4182L47.9418 46.7611ZM62.0891 31.1489C60.6354 29.6992 59.0841 28.4132 57.4686 27.2505C58.5988 25.1317 59.2436 22.7187 59.2436 20.1585C59.2436 11.7853 52.4126 4.97327 44.0163 4.97327C35.62 4.97327 28.7891 11.7853 28.7891 20.1585C28.7891 20.1703 28.7914 20.1798 28.7914 20.1917C20.7782 21.3638 13.0623 25.0106 6.90924 31.1487C6.53807 31.5188 6.53807 32.1191 6.90924 32.4916L9.6002 35.1751C9.77864 35.3531 10.0213 35.4527 10.2735 35.4527C10.5257 35.4527 10.7684 35.3531 10.9469 35.1751C16.2669 29.8698 22.9551 26.7522 29.8908 25.7962C30.2715 26.7405 30.7402 27.6398 31.297 28.4797C24.1115 29.1986 17.4566 32.3163 12.294 37.4651C11.9228 37.8352 11.9228 38.4355 12.294 38.808L14.9849 41.4915C15.3418 41.8474 15.9747 41.8474 16.3316 41.4915C21.1757 36.6607 27.6284 34.001 34.4995 34.001C35.8747 34.001 37.2333 34.1125 38.5657 34.3213C39.8124 34.8005 41.1329 35.1327 42.5105 35.268C46.3007 36.4994 49.7721 38.6063 52.6677 41.4939C52.8462 41.6718 53.0889 41.7715 53.3411 41.7715C53.5933 41.7715 53.836 41.6718 54.0144 41.4939L56.7054 38.8104C57.0766 38.4402 57.0766 37.8399 56.7054 37.4675C55.1184 35.8849 53.3696 34.5301 51.5234 33.3532C52.3585 32.8787 53.1461 32.3306 53.8741 31.7114C55.3397 32.734 56.7458 33.8705 58.0545 35.1755C58.2329 35.3534 58.4756 35.4531 58.7278 35.4531C58.98 35.4531 59.2227 35.3534 59.4012 35.1755L62.0921 32.4919C62.4633 32.1194 62.4633 31.5191 62.0898 31.149L62.0891 31.1489ZM10.2805 33.1704L8.93385 31.8275C14.6322 26.4249 21.6486 23.1908 28.9266 22.0992C29.0075 22.7328 29.1313 23.352 29.2907 23.9571C22.372 24.9821 15.7026 28.0454 10.2805 33.1704ZM34.4992 32.1027C27.4374 32.1027 20.7873 34.7198 15.6673 39.4912L14.3206 38.1483C19.3599 33.4314 25.7935 30.679 32.6835 30.2684C33.2855 30.9375 33.9398 31.5544 34.6512 32.1096C34.6012 32.1072 34.5515 32.1027 34.4992 32.1027ZM54.6753 38.1483L53.3287 39.4912C51.3991 37.6927 49.2435 36.2169 46.9356 35.0566C47.8065 34.8882 48.6463 34.6343 49.4576 34.3235C51.3159 35.3959 53.0764 36.6511 54.6753 38.1483ZM44.0162 33.4456C36.6693 33.4456 30.6923 27.4854 30.6923 20.1586C30.6923 12.8317 36.669 6.87154 44.0162 6.87154C51.3634 6.87154 57.3401 12.8317 57.3401 20.1586C57.3401 27.4854 51.3634 33.4456 44.0162 33.4456ZM58.7178 33.1704C57.621 32.1335 56.4647 31.2082 55.2679 30.354C55.6985 29.8842 56.103 29.3907 56.4694 28.8687C57.7138 29.768 58.92 30.7431 60.0645 31.8275L58.7178 33.1704Z" fill="white"/>
</svg>
