<svg width="8" height="10" viewBox="0 0 8 10" fill="none" xmlns="http://www.w3.org/2000/svg">
<path d="M6.76503 3.75139H6.45902V2.55272C6.45902 1.12098 5.44262 0 3.98907 0C2.53552 0 1.54098 1.14317 1.54098 2.55272V3.74029C1.54098 3.75139 1.54098 3.75139 1.54098 3.74029H1.23497C0.557377 3.74029 0.010929 4.29523 0 4.99445V8.74584C0 9.43396 0.546448 9.9889 1.23497 10H6.76503C7.44262 10 7.98907 9.44506 8 8.74584V4.99445C8 4.30633 7.44262 3.75139 6.76503 3.75139ZM2.15301 3.75139V2.55272C2.15301 1.48724 2.87432 0.621532 3.98907 0.621532C5.0929 0.621532 5.84699 1.46504 5.84699 2.55272V3.74029C5.84699 3.75139 5.84699 3.75139 5.84699 3.74029H2.15301C2.15301 3.75139 2.15301 3.75139 2.15301 3.75139ZM7.37705 8.74584C7.37705 9.0899 7.10383 9.36737 6.76503 9.36737H1.23497C0.896175 9.36737 0.622951 9.0899 0.622951 8.74584V4.99445C0.622951 4.65039 0.896175 4.37292 1.23497 4.37292H6.76503C7.10383 4.37292 7.37705 4.65039 7.37705 4.99445V8.74584ZM4.61202 6.24861C4.61202 6.48169 4.4918 6.68146 4.30601 6.79245V7.81354C4.30601 7.99112 4.16393 8.12431 4 8.12431C3.82514 8.12431 3.69399 7.98002 3.69399 7.81354V6.79245C3.5082 6.68146 3.38798 6.48169 3.38798 6.24861C3.38798 5.90455 3.6612 5.62708 4 5.62708C4.3388 5.61598 4.61202 5.89345 4.61202 6.24861Z" fill="#570001"/>
</svg>
