<svg width="59" height="74" viewBox="0 0 59 74" fill="none" xmlns="http://www.w3.org/2000/svg">
<g clip-path="url(#clip0_61141_26555)">
<path d="M50.2975 47.841C54.5566 42.957 57.1562 36.593 57.1562 29.6C57.1562 14.3005 44.7478 1.84998 29.5 1.84998C14.2522 1.84998 1.84375 14.3005 1.84375 29.6C1.84375 44.8995 14.2522 57.35 29.5 57.35C36.4694 57.35 42.8119 54.7415 47.6794 50.468L54.0034 56.8135C54.3722 57.165 54.8331 57.35 55.3125 57.35C55.7919 57.35 56.2528 57.165 56.6216 56.8135C57.3406 56.092 57.3406 54.9265 56.6216 54.205L50.2975 47.841ZM5.53125 29.6C5.53125 16.3355 16.2803 5.54998 29.5 5.54998C42.7197 5.54998 53.4688 16.3355 53.4688 29.6C53.4688 42.8645 42.7197 53.65 29.5 53.65C16.2803 53.65 5.53125 42.8645 5.53125 29.6ZM18.4375 24.05C18.4375 22.015 20.0969 20.35 22.125 20.35C24.1531 20.35 25.8125 22.015 25.8125 24.05C25.8125 26.085 24.1531 27.75 22.125 27.75C20.0969 27.75 18.4375 26.085 18.4375 24.05ZM40.5625 24.05C40.5625 26.085 38.9031 27.75 36.875 27.75C34.8469 27.75 33.1875 26.085 33.1875 24.05C33.1875 22.015 34.8469 20.35 36.875 20.35C38.9031 20.35 40.5625 22.015 40.5625 24.05ZM39.6406 36.2415C40.0462 37.1665 39.6406 38.2765 38.7003 38.6835C38.4606 38.7945 38.2025 38.85 37.9628 38.85C37.2622 38.85 36.58 38.443 36.2666 37.74C35.0866 35.039 32.4131 33.3 29.5 33.3C26.5869 33.3 23.9134 35.039 22.715 37.7585C22.3094 38.6835 21.2216 39.1275 20.2812 38.702C19.3594 38.295 18.9353 37.2035 19.3409 36.26C21.1294 32.2085 25.1303 29.6 29.5 29.6C33.8697 29.6 37.8706 32.2085 39.6406 36.2415Z" fill="white"/>
</g>
<defs>
<clipPath id="clip0_61141_26555">
<rect width="59" height="74" fill="white"/>
</clipPath>
</defs>
</svg>
