<svg width="40" height="40" viewBox="0 0 40 40" fill="none" xmlns="http://www.w3.org/2000/svg">
<path d="M12 27V25H14V18C14 16.6167 14.4167 15.3917 15.25 14.325C16.0833 13.2417 17.1667 12.5333 18.5 12.2V11.5C18.5 11.0833 18.6417 10.7333 18.925 10.45C19.225 10.15 19.5833 10 20 10C20.4167 10 20.7667 10.15 21.05 10.45C21.35 10.7333 21.5 11.0833 21.5 11.5V12.2C22.8333 12.5333 23.9167 13.2417 24.75 14.325C25.5833 15.3917 26 16.6167 26 18V25H28V27H12ZM20 30C19.45 30 18.975 29.8083 18.575 29.425C18.1917 29.025 18 28.55 18 28H22C22 28.55 21.8 29.025 21.4 29.425C21.0167 29.8083 20.55 30 20 30ZM16 25H24V18C24 16.9 23.6083 15.9583 22.825 15.175C22.0417 14.3917 21.1 14 20 14C18.9 14 17.9583 14.3917 17.175 15.175C16.3917 15.9583 16 16.9 16 18V25Z" fill="#F9F9F9"/>
<g clip-path="url(#clip0_60908_2197)">
<rect x="20" y="2.5" width="20" height="20" rx="10" fill="#D90251"/>
<path d="M26.7408 12.2041V12.8242H24.9586V14.6064H24.3336V12.8242H22.5514V12.2041H24.3336V10.4121H24.9586V12.2041H26.7408ZM31.0205 12.375C30.8447 12.4206 30.6722 12.458 30.5029 12.4873C30.3369 12.5133 30.1546 12.5264 29.9561 12.5264C29.6175 12.5264 29.3132 12.4759 29.043 12.375C28.7728 12.2708 28.5579 12.1032 28.3984 11.8721C28.2422 11.6377 28.1641 11.3268 28.1641 10.9395C28.1641 10.526 28.234 10.1468 28.374 9.80176C28.514 9.45671 28.7142 9.18164 28.9746 8.97656C29.2383 8.76823 29.5524 8.66406 29.917 8.66406C30.376 8.66406 30.7292 8.77637 30.9766 9.00098C31.2272 9.22233 31.4046 9.54948 31.5088 9.98242C31.6162 10.4121 31.6797 10.9427 31.6992 11.5742C31.7155 12.196 31.7464 12.7233 31.792 13.1562C31.8376 13.5892 31.901 13.9701 31.9824 14.2988C32.0671 14.6243 32.1712 14.9401 32.2949 15.2461L31.5918 15.5146C31.4746 15.2184 31.3753 14.9092 31.2939 14.5869C31.2158 14.2646 31.154 13.9196 31.1084 13.5518C31.0661 13.1839 31.0368 12.7917 31.0205 12.375ZM30.9521 11.5938L30.9473 11.4131C30.944 10.9932 30.9115 10.6383 30.8496 10.3486C30.7878 10.0557 30.6803 9.83431 30.5273 9.68457C30.3743 9.53158 30.1611 9.45508 29.8877 9.45508C29.6761 9.45508 29.4906 9.52018 29.3311 9.65039C29.1715 9.77734 29.0479 9.94661 28.96 10.1582C28.8753 10.3665 28.833 10.6009 28.833 10.8613C28.833 11.1771 28.9274 11.4033 29.1162 11.54C29.305 11.6735 29.585 11.7402 29.9561 11.7402C30.1481 11.7402 30.3206 11.7288 30.4736 11.7061C30.6299 11.68 30.7894 11.6426 30.9521 11.5938ZM36.3744 12.375C36.1986 12.4206 36.0261 12.458 35.8568 12.4873C35.6908 12.5133 35.5085 12.5264 35.31 12.5264C34.9714 12.5264 34.6671 12.4759 34.3969 12.375C34.1267 12.2708 33.9118 12.1032 33.7523 11.8721C33.5961 11.6377 33.518 11.3268 33.518 10.9395C33.518 10.526 33.588 10.1468 33.7279 9.80176C33.8679 9.45671 34.0681 9.18164 34.3285 8.97656C34.5922 8.76823 34.9063 8.66406 35.2709 8.66406C35.7299 8.66406 36.0831 8.77637 36.3305 9.00098C36.5811 9.22233 36.7585 9.54948 36.8627 9.98242C36.9701 10.4121 37.0336 10.9427 37.0531 11.5742C37.0694 12.196 37.1003 12.7233 37.1459 13.1562C37.1915 13.5892 37.2549 13.9701 37.3363 14.2988C37.421 14.6243 37.5251 14.9401 37.6488 15.2461L36.9457 15.5146C36.8285 15.2184 36.7292 14.9092 36.6479 14.5869C36.5697 14.2646 36.5079 13.9196 36.4623 13.5518C36.42 13.1839 36.3907 12.7917 36.3744 12.375ZM36.3061 11.5938L36.3012 11.4131C36.2979 10.9932 36.2654 10.6383 36.2035 10.3486C36.1417 10.0557 36.0342 9.83431 35.8812 9.68457C35.7283 9.53158 35.515 9.45508 35.2416 9.45508C35.03 9.45508 34.8445 9.52018 34.685 9.65039C34.5255 9.77734 34.4018 9.94661 34.3139 10.1582C34.2292 10.3665 34.1869 10.6009 34.1869 10.8613C34.1869 11.1771 34.2813 11.4033 34.4701 11.54C34.6589 11.6735 34.9389 11.7402 35.31 11.7402C35.502 11.7402 35.6745 11.7288 35.8275 11.7061C35.9838 11.68 36.1433 11.6426 36.3061 11.5938Z" fill="white"/>
</g>
<defs>
<clipPath id="clip0_60908_2197">
<rect x="20" y="2.5" width="20" height="20" rx="10" fill="white"/>
</clipPath>
</defs>
</svg>
