<svg width="72" height="65" viewBox="0 0 72 65" fill="none" xmlns="http://www.w3.org/2000/svg">
<path fill-rule="evenodd" clip-rule="evenodd" d="M52.4437 51.6567L54.1733 42.2358C54.1812 42.1855 54.1864 42.122 54.1864 42.0506C54.1864 41.7359 54.0366 41.4449 53.7974 41.2095C53.5293 40.9398 53.1587 40.7467 52.7697 40.6753C52.6698 40.6541 52.5568 40.6462 52.4437 40.6462C52.3307 40.6462 52.2177 40.6541 52.1178 40.6753C51.7288 40.7467 51.3608 40.9398 51.0901 41.2095C50.8483 41.4449 50.7011 41.7438 50.7011 42.0506C50.7011 42.1141 50.7011 42.1802 50.7142 42.2278L52.4438 51.6488L52.4437 51.6567ZM52.4437 54.3227C52.9957 54.3227 53.4925 54.5502 53.8526 54.9072C54.2127 55.2696 54.4335 55.7694 54.4335 56.3249C54.4335 56.8804 54.2075 57.3802 53.8526 57.7426C53.4925 58.1049 52.9958 58.3271 52.4437 58.3271C51.8917 58.3271 51.3949 58.0996 51.0348 57.7426C50.6747 57.3802 50.4539 56.8804 50.4539 56.3249C50.4539 55.7694 50.68 55.2696 51.0348 54.9072C51.3949 54.5449 51.8917 54.3227 52.4437 54.3227ZM52.7986 55.9757C52.7066 55.8832 52.5857 55.825 52.4437 55.825C52.3018 55.825 52.1809 55.8832 52.0889 55.9757C51.9969 56.0683 51.9391 56.19 51.9391 56.3328C51.9391 56.4756 51.9969 56.5973 52.0889 56.6898C52.1809 56.7824 52.3018 56.8406 52.4437 56.8406C52.5857 56.8406 52.7066 56.7824 52.7986 56.6898C52.8906 56.5973 52.9484 56.4756 52.9484 56.3328C52.9484 56.19 52.8906 56.0683 52.7986 55.9757ZM24.5786 45.2426C25.6195 45.2426 26.5684 45.6711 27.2492 46.3534C27.9352 47.0437 28.3532 47.9933 28.3532 49.0406C28.3532 50.088 27.9273 51.0428 27.2492 51.7279C26.5632 52.4181 25.6195 52.8387 24.5786 52.8387C23.5377 52.8387 22.5889 52.4102 21.908 51.7279C21.2272 51.0428 20.8041 50.088 20.8041 49.0406C20.8041 47.9933 21.2299 47.0385 21.908 46.3534C22.594 45.6632 23.5377 45.2426 24.5786 45.2426ZM26.1925 47.4167C25.7824 47.0041 25.2068 46.7396 24.5786 46.7396C23.9478 46.7396 23.3747 46.9961 22.9647 47.4167C22.5547 47.8293 22.2918 48.4085 22.2918 49.0406C22.2918 49.6753 22.5468 50.2519 22.9647 50.6645C23.3827 51.077 23.9504 51.3416 24.5786 51.3416C25.2094 51.3416 25.7825 51.085 26.1925 50.6645C26.6025 50.244 26.8654 49.6727 26.8654 49.0406C26.8654 48.4058 26.6104 47.8292 26.1925 47.4167ZM15.4181 45.2426C16.459 45.2426 17.4078 45.6711 18.0886 46.3534C18.7747 47.0437 19.1926 47.9933 19.1926 49.0406C19.1926 50.088 18.7668 51.0428 18.0886 51.7279C17.4026 52.4181 16.459 52.8387 15.4181 52.8387C14.3772 52.8387 13.4283 52.4102 12.7475 51.7279C12.0614 51.0376 11.6435 50.088 11.6435 49.0406C11.6435 47.9933 12.0693 47.0385 12.7475 46.3534C13.4335 45.6632 14.3772 45.2426 15.4181 45.2426ZM17.0319 47.4167C16.6219 47.0041 16.0463 46.7396 15.4181 46.7396C14.7872 46.7396 14.2142 46.9961 13.8042 47.4167C13.3941 47.8293 13.1313 48.4085 13.1313 49.0406C13.1313 49.6753 13.3862 50.2519 13.8042 50.6645C14.2221 51.077 14.7898 51.3416 15.4181 51.3416C16.0489 51.3416 16.6219 51.085 17.0319 50.6645C17.4419 50.244 17.7048 49.6727 17.7048 49.0406C17.7048 48.4058 17.4499 47.8292 17.0319 47.4167ZM36.0359 49.797C35.6258 49.797 35.292 49.4611 35.292 49.0485C35.292 48.6359 35.6258 48.3 36.0359 48.3H41.009L43.9266 43.2192H12.4243C10.8314 43.2192 9.37786 43.8751 8.32908 44.9358C7.28031 45.9911 6.62847 47.451 6.62847 49.0564C6.62847 50.6592 7.28034 52.1218 8.3344 53.1771C9.38318 54.2324 10.8341 54.8936 12.4296 54.8936H37.2346L40.1522 49.8129H36.0438L36.0359 49.797ZM36.375 56.3827H12.4239C10.4183 56.3827 8.59152 55.5549 7.27466 54.2298C5.9578 52.9048 5.13505 51.0665 5.13505 49.0486C5.13505 47.0305 5.9578 45.1924 7.27466 43.8673C8.59946 42.5343 10.4184 41.7144 12.4239 41.7144H44.7862L47.2649 37.3874L12.4243 37.3901C10.4187 37.3901 8.59192 36.5622 7.27506 35.2372C5.95026 33.9041 5.13545 32.0739 5.13545 30.0559C5.13545 28.0379 5.9582 26.1997 7.27506 24.8747C8.59986 23.5416 10.4188 22.7217 12.4243 22.7217H50.8211C52.8267 22.7217 54.6535 23.5496 55.9703 24.8747C57.2872 26.1997 58.11 28.0379 58.11 30.0559C58.11 31.0821 57.897 32.066 57.508 32.9626C57.19 33.7032 56.751 34.3803 56.22 34.9728L68.4163 56.2271C68.4163 56.2271 68.4294 56.2562 68.4452 56.2773C68.7343 56.7984 68.8763 57.3617 68.8763 57.9224C68.8763 58.499 68.7212 59.0782 68.4163 59.6125C68.1114 60.1468 67.6856 60.5673 67.1914 60.8609C67.1783 60.8688 67.1625 60.8741 67.1415 60.89C66.6526 61.1677 66.0927 61.3105 65.4987 61.3105H39.3768C38.767 61.3105 38.194 61.1545 37.6919 60.8609C37.1951 60.57 36.7719 60.1494 36.4671 59.6125C36.4592 59.5993 36.4539 59.5834 36.446 59.5622C36.1569 59.0359 36.0071 58.4778 36.0071 57.9171C36.0071 57.3961 36.1359 56.8777 36.3829 56.3911L36.375 56.3827ZM24.5757 26.2417C23.5348 26.2417 22.586 26.6702 21.9051 27.3525C21.2191 28.0428 20.8012 28.9923 20.8012 30.0397C20.8012 31.0871 21.227 32.0419 21.9051 32.7269C22.5911 33.4172 23.5348 33.8378 24.5757 33.8378C25.6166 33.8378 26.5655 33.4093 27.2463 32.7269C27.9323 32.0366 28.3503 31.0871 28.3503 30.0397C28.3503 28.9923 27.9245 28.0376 27.2463 27.3525C26.5603 26.6622 25.6166 26.2417 24.5757 26.2417ZM26.1896 28.4237C25.7796 28.0111 25.2039 27.7466 24.5757 27.7466C23.9449 27.7466 23.3718 28.0032 22.9618 28.4237C22.5518 28.8363 22.2889 29.4155 22.2889 30.0476C22.2889 30.6824 22.5439 31.259 22.9618 31.6716C23.3719 32.0842 23.9475 32.3486 24.5757 32.3486C25.2066 32.3486 25.7796 32.0921 26.1896 31.6716C26.5996 31.259 26.8625 30.6798 26.8625 30.0476C26.8625 29.4129 26.6075 28.8363 26.1896 28.4237ZM15.4152 26.2417C14.3743 26.2417 13.4254 26.6702 12.7446 27.3525C12.0586 28.0428 11.6406 28.9923 11.6406 30.0397C11.6406 31.0871 12.0664 32.0419 12.7446 32.7269C13.4306 33.4172 14.3743 33.8378 15.4152 33.8378C16.4561 33.8378 17.4049 33.4093 18.0858 32.7269C18.7718 32.0366 19.1897 31.0871 19.1897 30.0397C19.1897 28.9923 18.7639 28.0376 18.0858 27.3525C17.3997 26.6622 16.4561 26.2417 15.4152 26.2417ZM17.029 28.4237C16.619 28.0111 16.0434 27.7466 15.4152 27.7466C14.7843 27.7466 14.2113 28.0032 13.8013 28.4237C13.3912 28.8363 13.1284 29.4155 13.1284 30.0476C13.1284 30.6824 13.3834 31.259 13.8013 31.6716C14.2113 32.0842 14.787 32.3486 15.4152 32.3486C16.046 32.3486 16.6191 32.0921 17.029 31.6716C17.4391 31.259 17.7019 30.6798 17.7019 30.0476C17.7019 29.4129 17.447 28.8363 17.029 28.4237ZM36.033 30.8041H50.8576C51.2677 30.8041 51.6015 30.4682 51.6015 30.0556C51.6015 29.6429 51.2677 29.307 50.8576 29.307H36.033C35.623 29.307 35.2891 29.6429 35.2891 30.0556C35.2891 30.4682 35.6229 30.8041 36.033 30.8041ZM55.4259 33.5838C55.7098 33.2056 55.9569 32.801 56.1409 32.3593C56.4458 31.6531 56.6166 30.8755 56.6166 30.0503C56.6166 28.4475 55.9647 26.9849 54.9107 25.9296C53.8619 24.8743 52.411 24.2184 50.8155 24.2184H12.4234C10.8305 24.2184 9.37695 24.8744 8.32817 25.9296C7.27939 26.9849 6.62756 28.4449 6.62756 30.0503C6.62756 31.6531 7.27943 33.1156 8.33349 34.1709C9.38226 35.2262 10.8332 35.8875 12.4287 35.8875H48.1339L49.5297 33.4569C49.5297 33.4569 49.5428 33.4278 49.5586 33.4146C49.8635 32.9015 50.2735 32.4941 50.7545 32.2112C51.2566 31.9203 51.8322 31.7616 52.4394 31.7616C53.0492 31.7616 53.6301 31.9176 54.1242 32.2112C54.1374 32.2191 54.1532 32.2324 54.1663 32.2403C54.6473 32.5312 55.0521 32.9465 55.3491 33.4596L55.4201 33.5892L55.4259 33.5838ZM24.5776 7.23312C25.6185 7.23312 26.5674 7.66158 27.2482 8.34394C27.9342 9.03422 28.3522 9.98377 28.3522 11.0311C28.3522 12.0785 27.9263 13.0333 27.2482 13.7184C26.5622 14.4086 25.6185 14.8292 24.5776 14.8292C23.5367 14.8292 22.5878 14.4007 21.907 13.7184C21.2262 13.0333 20.8031 12.0785 20.8031 11.0311C20.8031 9.98377 21.2289 9.02901 21.907 8.34394C22.593 7.65365 23.5367 7.23312 24.5776 7.23312ZM26.1915 9.40716C25.7814 8.99456 25.2058 8.73008 24.5776 8.73008C23.9468 8.73008 23.3737 8.98663 22.9637 9.40716C22.5537 9.81976 22.2908 10.399 22.2908 11.0311C22.2908 11.6658 22.5458 12.2424 22.9637 12.655C23.3738 13.0676 23.9494 13.3321 24.5776 13.3321C25.2084 13.3321 25.7815 13.0755 26.1915 12.655C26.6015 12.2424 26.8644 11.6632 26.8644 11.0311C26.8644 10.3963 26.6094 9.81971 26.1915 9.40716ZM15.4171 7.23312C16.458 7.23312 17.4068 7.66158 18.0876 8.34394C18.7737 9.03422 19.1916 9.98377 19.1916 11.0311C19.1916 12.0785 18.7658 13.0333 18.0876 13.7184C17.4016 14.4086 16.458 14.8292 15.4171 14.8292C14.3761 14.8292 13.4273 14.4007 12.7465 13.7184C12.0604 13.0281 11.6425 12.0785 11.6425 11.0311C11.6425 9.98377 12.0683 9.02901 12.7465 8.34394C13.4325 7.65365 14.3761 7.23312 15.4171 7.23312ZM17.0309 9.40716C16.6209 8.99456 16.0453 8.73008 15.4171 8.73008C14.7862 8.73008 14.2132 8.98663 13.8032 9.40716C13.3931 9.81976 13.1303 10.399 13.1303 11.0311C13.1303 11.6658 13.3852 12.2424 13.8032 12.655C14.2132 13.0676 14.7888 13.3321 15.4171 13.3321C16.0479 13.3321 16.6209 13.0755 17.0309 12.655C17.441 12.2424 17.7038 11.6632 17.7038 11.0311C17.7038 10.3963 17.4489 9.81971 17.0309 9.40716ZM36.0349 11.7875C35.6248 11.7875 35.291 11.4516 35.291 11.039C35.291 10.6264 35.6248 10.2905 36.0349 10.2905H50.8595C51.2695 10.2905 51.6034 10.6264 51.6034 11.039C51.6034 11.4516 51.2696 11.7875 50.8595 11.7875H36.0349ZM58.112 11.039C58.112 9.02095 57.2892 7.18281 55.9724 5.85776C54.6476 4.52471 52.8287 3.70483 50.8232 3.70483H12.4236C10.418 3.70483 8.59125 4.5327 7.27439 5.85776C5.94959 7.1908 5.13478 9.02102 5.13478 11.039C5.13478 13.057 5.95753 14.8952 7.27439 16.2202C8.59125 17.5453 10.4181 18.3732 12.4236 18.3732H50.8205C52.826 18.3732 54.6528 17.5453 55.9697 16.2202C57.2945 14.8872 58.1093 13.057 58.1093 11.039H58.112ZM54.9183 15.1597C55.9671 14.1044 56.6243 12.6444 56.6243 11.039C56.6243 9.43621 55.9724 7.97364 54.9183 6.91834C53.8617 5.86304 52.4187 5.2018 50.8232 5.2018H12.4236C10.8307 5.2018 9.3772 5.85772 8.32842 6.91834C7.27964 7.97364 6.62781 9.43357 6.62781 11.039C6.62781 12.6418 7.27967 14.1044 8.33373 15.1597C9.38251 16.215 10.8334 16.8762 12.4289 16.8762H50.8258C52.4187 16.8762 53.8722 16.2203 54.921 15.1597H54.9183ZM67.1301 56.9614L67.1511 56.9958C67.3141 57.2868 67.3929 57.6015 67.3929 57.9083C67.3929 58.2284 67.3088 58.551 67.138 58.8499C66.9618 59.1567 66.7279 59.3921 66.4572 59.5481L66.4283 59.5692C66.1654 59.7121 65.8553 59.7914 65.5135 59.7914H39.3917C39.0368 59.7914 38.7188 59.7068 38.4507 59.5481C38.1747 59.3841 37.9408 59.1487 37.7699 58.8419L37.7489 58.8075C37.5938 58.5166 37.5071 58.2098 37.5071 57.895C37.5071 57.575 37.5912 57.2523 37.7699 56.9534L50.8309 34.1892C50.8309 34.176 50.844 34.1681 50.8519 34.1548C51.0227 33.8692 51.2488 33.6417 51.5169 33.491C51.785 33.3349 52.1109 33.2476 52.4579 33.2476C52.8048 33.2476 53.1308 33.3323 53.3989 33.491L53.433 33.5121C53.688 33.6682 53.914 33.8983 54.077 34.1971L67.1379 56.9614L67.1301 56.9614ZM55.633 42.4996L53.7431 52.8069C53.6852 53.1216 53.517 53.3993 53.2909 53.5897C53.057 53.7828 52.76 53.9044 52.442 53.9044C52.1239 53.9044 51.8269 53.7907 51.593 53.5897C51.359 53.3966 51.1961 53.1189 51.1409 52.8069L49.251 42.4996C49.222 42.3356 49.2089 42.1849 49.2089 42.05C49.2089 41.3147 49.5348 40.6535 50.0448 40.1404C50.5205 39.6617 51.1698 39.3205 51.8506 39.1936C52.0556 39.1592 52.2553 39.1354 52.4446 39.1354C52.6365 39.1354 52.8336 39.1565 53.0386 39.1936C53.7194 39.3232 54.3713 39.6644 54.8444 40.1404C55.3544 40.6456 55.6803 41.3095 55.6803 42.05C55.6803 42.1928 55.6672 42.3409 55.6382 42.4996H55.633Z" fill="white"/>
</svg>
