<svg width="74" height="38" viewBox="0 0 74 38" fill="none" xmlns="http://www.w3.org/2000/svg">
<path d="M21.5874 26.61C17.5314 27.0433 13.8047 27.26 10.4074 27.26C8.70872 27.26 7.46072 26.8613 6.66338 26.064C5.86605 25.2667 5.46738 24.0187 5.46738 22.32V14C5.46738 12.18 5.87472 10.8627 6.68938 10.048C7.52138 9.216 8.84738 8.8 10.6674 8.8H20.0274V12.44H11.7074C10.6674 12.44 10.1474 12.96 10.1474 14V22.32C10.1474 22.7187 10.2601 23.0393 10.4854 23.282C10.7281 23.5073 11.0487 23.62 11.4474 23.62C13.4407 23.62 15.2607 23.5767 16.9074 23.49V19.72H13.5274V16.6H21.5874V26.61ZM40.0525 26.61C35.9965 27.0433 32.2698 27.26 28.8725 27.26C27.1738 27.26 25.9258 26.8613 25.1285 26.064C24.3311 25.2667 23.9325 24.0187 23.9325 22.32V14C23.9325 12.18 24.3398 10.8627 25.1545 10.048C25.9865 9.216 27.3125 8.8 29.1325 8.8H38.4925V12.44H30.1725C29.1325 12.44 28.6125 12.96 28.6125 14V22.32C28.6125 22.7187 28.7251 23.0393 28.9505 23.282C29.1931 23.5073 29.5138 23.62 29.9125 23.62C31.9058 23.62 33.7258 23.5767 35.3725 23.49V19.72H31.9925V16.6H40.0525V26.61Z" fill="#D90251"/>
<path d="M45.6475 27V12.83L42.6575 13.87L41.3575 10.88L46.1675 8.8H50.3275V27H45.6475ZM63.8546 13.74C63.8546 12.7 63.3346 12.18 62.2946 12.18H59.4346C58.3946 12.18 57.8746 12.7 57.8746 13.74V22.06C57.8746 23.1 58.3946 23.62 59.4346 23.62H62.2946C63.3346 23.62 63.8546 23.1 63.8546 22.06V13.74ZM68.5346 22.06C68.5346 23.88 68.1186 25.206 67.2866 26.038C66.472 26.8527 65.1546 27.26 63.3346 27.26H58.3946C56.5746 27.26 55.2486 26.8527 54.4166 26.038C53.602 25.206 53.1946 23.88 53.1946 22.06V13.74C53.1946 11.92 53.602 10.6027 54.4166 9.788C55.2486 8.956 56.5746 8.54 58.3946 8.54H63.3346C65.1546 8.54 66.472 8.956 67.2866 9.788C68.1186 10.6027 68.5346 11.92 68.5346 13.74V22.06Z" fill="white"/>
</svg>
