<svg width="24" height="24" viewBox="0 0 24 24" fill="none" xmlns="http://www.w3.org/2000/svg">
<path d="M12.9047 11.4409C12.8025 11.5037 12.7034 11.5697 12.5948 11.6482C12.0294 12.0409 11.5374 12.5467 11.1668 13.1154C11.0678 13.2693 11.1125 13.4735 11.269 13.5709C11.3233 13.6055 11.3872 13.6243 11.4511 13.6243C11.5629 13.6243 11.6684 13.5709 11.7355 13.4735C12.0581 12.9772 12.4894 12.5342 13.0005 12.1792C13.0836 12.1226 13.1635 12.0629 13.2561 12.0095C13.5309 11.843 13.8216 11.7142 14.1155 11.6137C14.5787 11.8587 15.1026 12.0095 15.6649 12.0095C16.2271 12.0095 16.7511 11.8587 17.2143 11.6137C17.6136 11.7519 17.9938 11.9404 18.342 12.1855C19.0161 12.6567 19.5528 13.285 19.8914 14.0076C20.1821 14.6108 20.3291 15.258 20.3291 15.9303C20.3291 16.1125 20.4792 16.2602 20.6645 16.2602C20.8498 16.2602 21 16.1125 21 15.9303C21 15.1606 20.8307 14.4192 20.4984 13.728C20.1119 12.9049 19.4985 12.1823 18.7286 11.6482C18.457 11.4566 18.1663 11.3026 17.866 11.1676C18.5401 10.5706 18.9746 9.71611 18.9746 8.75476C18.9746 6.96087 17.489 5.5 15.6649 5.5C13.8407 5.5 12.3552 6.96087 12.3552 8.75476C12.3552 9.70983 12.7833 10.5612 13.451 11.1581C13.2625 11.2398 13.0836 11.3372 12.9047 11.4409ZM13.0229 8.75476C13.0229 7.32531 14.2049 6.15975 15.6617 6.15975C17.1185 6.15975 18.3005 7.32216 18.3005 8.75476C18.3005 10.1842 17.1185 11.3498 15.6617 11.3498C14.2049 11.3498 13.0229 10.1842 13.0229 8.75476Z" fill="#020202"/>
<path d="M3.50156 15.9647C3.16932 16.6559 3 17.3973 3 18.167C3 18.3492 3.15015 18.4969 3.33544 18.4969C3.52073 18.4969 3.67088 18.3492 3.67088 18.167C3.67088 17.4978 3.81783 16.8506 4.10855 16.2443C4.44718 15.5217 4.98389 14.8934 5.66116 14.4253C6.00618 14.1802 6.38634 13.9949 6.78568 13.8566C7.2489 14.1017 7.77283 14.2525 8.33509 14.2525C8.89735 14.2525 9.41808 14.1017 9.8845 13.8566C10.2838 13.9949 10.664 14.1834 11.0122 14.4284C11.6863 14.8997 12.223 15.528 12.5616 16.2506C12.8523 16.8538 12.9993 17.501 12.9993 18.1701C12.9993 18.3524 13.1494 18.5 13.3347 18.5C13.52 18.5 13.6702 18.3524 13.6702 18.1701C13.6702 17.4004 13.5009 16.659 13.1686 15.971C12.7821 15.1479 12.1687 14.4253 11.3988 13.8912C11.1272 13.6996 10.8365 13.5456 10.5362 13.4105C11.2103 12.8136 11.6448 11.9591 11.6448 10.9977C11.6448 9.20384 10.1592 7.74297 8.33509 7.74297C6.51094 7.74297 5.02542 9.20384 5.02542 10.9977C5.02542 11.9591 5.4567 12.8136 6.13397 13.4105C5.83367 13.5456 5.54295 13.6996 5.27141 13.8881C4.4983 14.4221 3.88812 15.1416 3.50156 15.9647ZM5.6963 10.9977C5.6963 9.56827 6.87832 8.40272 8.33509 8.40272C9.79185 8.40272 10.9739 9.56827 10.9739 10.9977C10.9739 12.4272 9.79185 13.5927 8.33509 13.5927C6.88152 13.5896 5.6963 12.4272 5.6963 10.9977Z" fill="#020202"/>
</svg>
