<svg width="24" height="24" viewBox="0 0 24 24" fill="none" xmlns="http://www.w3.org/2000/svg">
<path d="M10.5238 4.81812L5.38108 10.0845L4.97985 9.68499C4.94438 9.64967 4.89646 9.63003 4.84665 9.63037C4.79684 9.63072 4.74921 9.65104 4.71424 9.68685L3.65933 10.7671C3.62436 10.803 3.60491 10.8513 3.60526 10.9016C3.60561 10.9519 3.62574 11 3.66121 11.0353L4.06245 11.4349L3.93058 11.5699C3.82582 11.6774 3.76758 11.8225 3.76864 11.9734C3.76969 12.1242 3.82997 12.2685 3.93623 12.3745L5.0062 13.4399C5.04167 13.4752 5.08959 13.4948 5.13939 13.4945L6.11377 13.4877L8.4708 16.3079C8.52157 16.3676 8.58405 16.4161 8.6543 16.4502C8.72454 16.4843 8.80103 16.5033 8.87892 16.506C8.95681 16.5087 9.03441 16.4951 9.10682 16.466C9.17922 16.4369 9.24486 16.3929 9.29957 16.3369L10.8801 14.7183C10.9785 14.6166 11.0359 14.4814 11.0409 14.3392C11.046 14.1971 10.9984 14.0581 10.9074 13.9495L10.0244 12.8933L10.8402 12.0578C11.0148 11.8786 11.1118 11.6368 11.1101 11.3854C11.1083 11.134 11.0079 10.8936 10.8308 10.7168L9.89456 9.78461L12.6637 6.94886C12.7685 6.84134 12.8267 6.69624 12.8257 6.5454C12.8246 6.39455 12.7643 6.25028 12.6581 6.14424L11.3206 4.81253C11.2141 4.70672 11.0704 4.64789 10.921 4.64894C10.7716 4.64999 10.6288 4.71083 10.5238 4.81812ZM4.05868 10.8984L4.84987 10.0882L5.11736 10.3546L4.32618 11.1648L4.05868 10.8984ZM10.5671 10.9869C10.6733 11.0929 10.7336 11.2372 10.7347 11.388C10.7357 11.5389 10.6775 11.684 10.5727 11.7915L9.78106 12.6022L8.5644 11.1468L8.83966 10.8649L9.39756 11.4204C9.45014 11.473 9.51253 11.5146 9.58114 11.5428C9.64974 11.5709 9.72318 11.585 9.79721 11.5843L10.1728 11.5816C10.222 11.5804 10.2688 11.5597 10.3031 11.524C10.3374 11.4883 10.3564 11.4404 10.356 11.3907C10.3557 11.341 10.336 11.2934 10.3012 11.2581C10.2665 11.2229 10.2194 11.2029 10.1701 11.2024L9.79455 11.205C9.76986 11.2052 9.74538 11.2005 9.7225 11.1911C9.69963 11.1818 9.67882 11.1679 9.66129 11.1503L9.10338 10.5948L9.63084 10.0547L10.5671 10.9869ZM12.3943 6.41431C12.4297 6.44967 12.4498 6.49775 12.4502 6.54803C12.4505 6.59831 12.4311 6.64668 12.3962 6.68252L8.17657 11.0037C8.1437 11.0373 8.12447 11.0822 8.12267 11.1295C8.12086 11.1767 8.13661 11.223 8.16682 11.2591L10.6214 14.1953C10.6518 14.2315 10.6678 14.2779 10.6662 14.3254C10.6645 14.3728 10.6455 14.418 10.6126 14.452L9.03208 16.0705C9.01394 16.0891 8.99219 16.1037 8.96819 16.1134C8.9442 16.1232 8.91847 16.1278 8.89263 16.127C8.8668 16.1262 8.84139 16.12 8.81802 16.1088C8.79465 16.0977 8.77381 16.0818 8.75681 16.0621L6.34399 13.1751C6.32623 13.1538 6.30405 13.1368 6.27902 13.1251C6.25399 13.1135 6.22672 13.1076 6.19917 13.1078L5.59014 13.112L12.2606 6.28114L12.3943 6.41431ZM11.9931 6.0148L5.13618 13.0366L4.19996 12.1044C4.16455 12.0691 4.14446 12.021 4.14411 11.9707C4.14376 11.9204 4.16316 11.8721 4.19808 11.8362L4.85739 11.1611L4.99114 11.2942C5.02661 11.3296 5.07452 11.3492 5.12434 11.3488C5.17415 11.3485 5.22178 11.3282 5.25675 11.2924C5.29172 11.2566 5.31117 11.2082 5.31082 11.1579C5.31047 11.1076 5.29034 11.0595 5.25487 11.0242L5.12112 10.891L5.38485 10.6209L5.51859 10.7541C5.55407 10.7894 5.60198 10.8091 5.65179 10.8087C5.7016 10.8084 5.74923 10.788 5.7842 10.7522C5.81918 10.7164 5.83863 10.668 5.83827 10.6177C5.83792 10.5674 5.81779 10.5193 5.78232 10.484L5.64858 10.3508L5.9123 10.0808L6.04605 10.2139C6.08152 10.2493 6.12943 10.2689 6.17924 10.2686C6.22906 10.2682 6.27669 10.2479 6.31166 10.2121C6.34663 10.1763 6.36608 10.1279 6.36573 10.0776C6.36537 10.0273 6.34525 9.9792 6.30978 9.94388L6.17603 9.81071L10.7913 5.08446C10.8263 5.04871 10.8739 5.02843 10.9237 5.02809C10.9735 5.02774 11.0214 5.04734 11.0569 5.0826L11.9931 6.0148ZM9.05356 15.5083L10.1044 14.4322C10.1372 14.3985 10.1565 14.3536 10.1583 14.3064C10.1601 14.2591 10.1443 14.2129 10.1141 14.1767L7.92417 11.5569C7.90733 11.5368 7.88652 11.5204 7.86306 11.5088C7.8396 11.4973 7.81401 11.4908 7.78792 11.4897C7.76183 11.4887 7.73582 11.4932 7.71154 11.5029C7.68727 11.5126 7.66526 11.5273 7.64693 11.546L6.5964 12.6218C6.56352 12.6555 6.5443 12.7004 6.54249 12.7477C6.54069 12.7949 6.55644 12.8412 6.58665 12.8773L8.77632 15.4974C8.79315 15.5175 8.81397 15.5339 8.83743 15.5455C8.86089 15.5571 8.88648 15.5636 8.91257 15.5646C8.93865 15.5656 8.96466 15.5611 8.98894 15.5514C9.01322 15.5417 9.03522 15.527 9.05356 15.5083ZM6.98423 12.765L7.76994 11.9603L9.71652 14.2891L8.93061 15.0939L6.98423 12.765Z" fill="#020202"/>
<path d="M13.4763 7.66293L18.6189 12.9293L19.0202 12.5298C19.0556 12.4945 19.1036 12.4748 19.1534 12.4752C19.2032 12.4755 19.2508 12.4959 19.2858 12.5317L20.3407 13.612C20.3757 13.6478 20.3951 13.6961 20.3948 13.7464C20.3944 13.7967 20.3743 13.8448 20.3388 13.8802L19.9376 14.2797L20.0694 14.4147C20.1742 14.5222 20.2324 14.6673 20.2314 14.8182C20.2303 14.969 20.1701 15.1133 20.0638 15.2193L18.9938 16.2847C18.9583 16.32 18.9104 16.3396 18.8606 16.3393L17.8863 16.3325L15.5292 19.1527C15.4785 19.2124 15.416 19.2609 15.3457 19.295C15.2755 19.3291 15.199 19.3481 15.1211 19.3508C15.0432 19.3535 14.9656 19.3399 14.8932 19.3108C14.8208 19.2817 14.7552 19.2377 14.7004 19.1817L13.1199 17.5631C13.0215 17.4614 12.9641 17.3262 12.9591 17.1841C12.9541 17.0419 13.0017 16.9029 13.0926 16.7943L13.9756 15.7381L13.1598 14.9027C12.9852 14.7234 12.8882 14.4816 12.8899 14.2302C12.8917 13.9788 12.9921 13.7384 13.1692 13.5616L14.1055 12.6294L11.3363 9.79368C11.2316 9.68615 11.1733 9.54105 11.1744 9.39021C11.1754 9.23936 11.2357 9.0951 11.342 8.98906L12.6794 7.65734C12.7859 7.55154 12.9296 7.4927 13.079 7.49375C13.2284 7.4948 13.3713 7.55564 13.4763 7.66293ZM19.9413 13.7433L19.1502 12.933L18.8827 13.1994L19.6738 14.0096L19.9413 13.7433ZM13.433 13.8317C13.3267 13.9377 13.2664 14.082 13.2654 14.2328C13.2643 14.3837 13.3225 14.5288 13.4273 14.6363L14.219 15.447L15.4356 13.9916L15.1604 13.7097L14.6025 14.2652C14.5499 14.3179 14.4875 14.3595 14.4189 14.3876C14.3503 14.4157 14.2768 14.4298 14.2028 14.4291L13.8272 14.4264C13.778 14.4252 13.7312 14.4045 13.6969 14.3688C13.6627 14.3331 13.6437 14.2852 13.644 14.2355C13.6444 14.1858 13.664 14.1382 13.6988 14.103C13.7336 14.0677 13.7806 14.0477 13.8299 14.0472L14.2055 14.0498C14.2302 14.05 14.2546 14.0453 14.2775 14.0359C14.3004 14.0266 14.3212 14.0127 14.3387 13.9951L14.8966 13.4396L14.3692 12.8995L13.433 13.8317ZM11.6057 9.25913C11.5703 9.29448 11.5502 9.34257 11.5498 9.39284C11.5495 9.44312 11.5689 9.49149 11.6038 9.52733L15.8234 13.8485C15.8563 13.8822 15.8755 13.927 15.8774 13.9743C15.8792 14.0215 15.8634 14.0678 15.8332 14.1039L13.3787 17.0401C13.3482 17.0763 13.3322 17.1227 13.3339 17.1702C13.3355 17.2176 13.3546 17.2628 13.3874 17.2968L14.9679 18.9153C14.9861 18.9339 15.0078 18.9485 15.0318 18.9583C15.0558 18.968 15.0815 18.9726 15.1074 18.9718C15.1332 18.971 15.1586 18.9648 15.182 18.9537C15.2054 18.9425 15.2262 18.9266 15.2432 18.9069L17.656 16.0199C17.6738 15.9987 17.696 15.9816 17.721 15.97C17.746 15.9583 17.7733 15.9524 17.8008 15.9526L18.4099 15.9568L11.7394 9.12596L11.6057 9.25913ZM12.0069 8.85961L18.8638 15.8815L19.8001 14.9493C19.8355 14.9139 19.8556 14.8658 19.8559 14.8155C19.8563 14.7653 19.8369 14.7169 19.8019 14.6811L19.1426 14.0059L19.0089 14.139C18.9734 14.1744 18.9255 14.194 18.8757 14.1937C18.8259 14.1933 18.7782 14.173 18.7433 14.1372C18.7083 14.1014 18.6888 14.053 18.6892 14.0027C18.6896 13.9524 18.7097 13.9043 18.7452 13.869L18.8789 13.7358L18.6152 13.4657L18.4814 13.5989C18.446 13.6342 18.398 13.6539 18.3482 13.6535C18.2984 13.6532 18.2508 13.6329 18.2158 13.597C18.1808 13.5612 18.1614 13.5128 18.1617 13.4625C18.1621 13.4123 18.1822 13.3642 18.2177 13.3288L18.3514 13.1957L18.0877 12.9256L17.954 13.0588C17.9185 13.0941 17.8706 13.1137 17.8208 13.1134C17.771 13.113 17.7233 13.0927 17.6884 13.0569C17.6534 13.0211 17.6339 12.9727 17.6343 12.9224C17.6346 12.8721 17.6548 12.824 17.6902 12.7887L17.824 12.6555L13.2088 7.92928C13.1738 7.89352 13.1261 7.87325 13.0763 7.8729C13.0266 7.87255 12.9787 7.89215 12.9432 7.92741L12.0069 8.85961ZM14.9465 18.3531L13.8957 17.277C13.8628 17.2433 13.8436 17.1985 13.8418 17.1512C13.84 17.1039 13.8557 17.0577 13.8859 17.0216L16.0759 14.4017C16.0927 14.3816 16.1135 14.3652 16.137 14.3536C16.1604 14.3421 16.186 14.3356 16.2121 14.3345C16.2382 14.3335 16.2642 14.338 16.2885 14.3477C16.3128 14.3574 16.3348 14.3721 16.3531 14.3909L17.4036 15.4667C17.4365 15.5003 17.4557 15.5452 17.4575 15.5925C17.4593 15.6397 17.4436 15.686 17.4134 15.7221L15.2237 18.3422C15.2069 18.3623 15.1861 18.3787 15.1626 18.3903C15.1391 18.4019 15.1135 18.4084 15.0875 18.4094C15.0614 18.4104 15.0354 18.4059 15.0111 18.3962C14.9868 18.3865 14.9648 18.3718 14.9465 18.3531ZM17.0158 15.6098L16.2301 14.8052L14.2835 17.1339L15.0694 17.9387L17.0158 15.6098Z" fill="#020202"/>
</svg>
