<svg width="24" height="24" viewBox="0 0 24 24" fill="none" xmlns="http://www.w3.org/2000/svg">
<path d="M17.8881 8.08889H15.9851C16.6791 7.57778 17.1493 6.75556 17.1493 5.82222C17.1493 4.26667 15.8731 3 14.306 3C13.1642 3 12.2015 3.66667 11.7313 4.62222C11.306 4.24444 10.7463 4 10.1418 4C8.84328 4 7.79104 5.04444 7.79104 6.33333C7.79104 7.04444 8.10448 7.66667 8.6194 8.11111H6.11194C5.21642 8.11111 4.5 8.86667 4.5 9.77778V11.7778C4.5 12.0889 4.6791 12.3556 4.94776 12.4889V19.3333C4.94776 20.2444 5.70896 21 6.62687 21H17.597C18.4701 21 19.0522 20.3333 19.0522 19.3333V12.4667C19.3209 12.3333 19.5 12.0667 19.5 11.7556V9.75556C19.5 8.84444 18.7836 8.08889 17.8881 8.08889ZM18.3806 9.75556V11.4222H14.0149V9.2H17.8881C18.1567 9.2 18.3806 9.46667 18.3806 9.75556ZM13.1194 9.2V11.4222H10.8806V9.2H13.1194ZM12.8955 12.5333V19.8667H11.1045V12.5333H12.8955ZM12.5597 5.82222C12.5597 4.86667 13.3433 4.11111 14.2836 4.11111C15.2239 4.11111 16.0075 4.88889 16.0075 5.82222C16.0075 6.75556 15.2463 7.55556 14.2836 7.55556H12.5597V5.82222ZM10.1194 5.11111C10.791 5.11111 11.3507 5.66667 11.3507 6.33333V7.55556H10.1194C9.44776 7.55556 8.88806 7 8.88806 6.33333C8.91045 5.66667 9.44776 5.11111 10.1194 5.11111ZM5.6194 9.75556C5.6194 9.44444 5.84328 9.2 6.11194 9.2H9.98507V11.4222H5.6194V9.75556ZM6.06716 19.3333V12.5333H10.209V19.8667H6.62687C6.31343 19.8889 6.06716 19.6444 6.06716 19.3333ZM17.597 19.8889H13.791V12.5556H17.9328V19.3333C17.9328 19.8889 17.6866 19.8889 17.597 19.8889Z" fill="#020202"/>
</svg>
