<svg width="24" height="24" viewBox="0 0 24 24" fill="none" xmlns="http://www.w3.org/2000/svg">
<path d="M12.5439 20.2061C12.5439 19.9055 12.3005 19.6621 12 19.6621C11.6996 19.6622 11.4561 19.9056 11.4561 20.2061C11.4561 20.5064 11.6996 20.7499 12 20.75C12.3005 20.75 12.5439 20.5065 12.5439 20.2061ZM6.13184 17.1074C6.21039 16.9939 6.36692 16.9654 6.48047 17.0439L10.5098 19.832C10.6232 19.9105 10.6516 20.0662 10.5732 20.1797C10.4947 20.2931 10.3391 20.3215 10.2256 20.2432L6.19531 17.4551C6.08204 17.3765 6.05341 17.2209 6.13184 17.1074ZM17.459 17.0439C17.5725 16.9654 17.7291 16.9939 17.8076 17.1074C17.886 17.2209 17.8574 17.3765 17.7441 17.4551L13.7139 20.2432C13.6003 20.3215 13.4447 20.2932 13.3662 20.1797C13.2879 20.0662 13.3163 19.9105 13.4297 19.832L17.459 17.0439ZM5.5293 16.1025C5.52914 15.8022 5.28576 15.5586 4.98535 15.5586C4.68502 15.5587 4.44156 15.8022 4.44141 16.1025C4.44141 16.403 4.68492 16.6464 4.98535 16.6465C5.28586 16.6465 5.5293 16.403 5.5293 16.1025ZM19.5586 16.1025C19.5584 15.8022 19.3151 15.5586 19.0146 15.5586C18.7144 15.5587 18.4709 15.8023 18.4707 16.1025C18.4707 16.403 18.7143 16.6463 19.0146 16.6465C19.3152 16.6465 19.5586 16.403 19.5586 16.1025ZM4.75 14.4502V9.5498C4.75007 9.41195 4.86219 9.30007 5 9.2998C5.13803 9.2998 5.24993 9.41179 5.25 9.5498V14.4502C5.24985 14.5881 5.13798 14.7002 5 14.7002C4.86224 14.6999 4.75015 14.588 4.75 14.4502ZM19.1504 14.4502V9.5498C19.1505 9.41182 19.2624 9.29985 19.4004 9.2998C19.5384 9.2998 19.6503 9.41179 19.6504 9.5498V14.4502C19.6502 14.5881 19.5384 14.7002 19.4004 14.7002C19.2625 14.7001 19.1505 14.5881 19.1504 14.4502ZM5.5293 7.89746C5.5293 7.59695 5.28586 7.35254 4.98535 7.35254C4.68492 7.35263 4.44141 7.59701 4.44141 7.89746C4.44164 8.19771 4.68507 8.44131 4.98535 8.44141C5.28571 8.44141 5.52906 8.19776 5.5293 7.89746ZM19.5586 7.89746C19.5586 7.59695 19.3152 7.35254 19.0146 7.35254C18.7143 7.35269 18.4707 7.59705 18.4707 7.89746C18.4709 8.19767 18.7144 8.44126 19.0146 8.44141C19.315 8.44141 19.5584 8.19776 19.5586 7.89746ZM10.1807 3.75586C10.2942 3.67762 10.4498 3.70594 10.5283 3.81934C10.6068 3.93282 10.5782 4.0884 10.4648 4.16699L6.43555 6.95508C6.322 7.03363 6.16547 7.00515 6.08691 6.8916C6.00871 6.77815 6.03713 6.62246 6.15039 6.54395L10.1807 3.75586ZM13.5439 3.68652C13.6225 3.57317 13.7781 3.54478 13.8916 3.62305L17.9219 6.41113C18.0352 6.48974 18.0629 6.64533 17.9844 6.75879C17.9058 6.87231 17.7503 6.90081 17.6367 6.82227L13.6074 4.03418C13.494 3.95559 13.4654 3.80003 13.5439 3.68652ZM12.5439 3.79395C12.5439 3.49352 12.3005 3.25 12 3.25C11.6997 3.25012 11.4561 3.49359 11.4561 3.79395C11.4561 4.09438 11.6996 4.33777 12 4.33789C12.3005 4.33789 12.5439 4.09445 12.5439 3.79395ZM13.0439 20.2061C13.0439 20.7826 12.5766 21.25 12 21.25C11.4235 21.2499 10.9561 20.7826 10.9561 20.2061C10.9561 19.6295 11.4235 19.1622 12 19.1621C12.5766 19.1621 13.0439 19.6294 13.0439 20.2061ZM20.0586 16.1025C20.0586 16.6792 19.5913 17.1465 19.0146 17.1465C18.4381 17.1463 17.9707 16.6791 17.9707 16.1025C17.9707 16.0167 17.9814 15.9333 18.001 15.8535C17.9285 15.8896 17.84 15.8902 17.7646 15.8467L12.3682 12.7305V18.8281C12.3682 18.9661 12.2561 19.078 12.1182 19.0781C11.9801 19.0781 11.8682 18.9662 11.8682 18.8281V12.6006L6.24609 15.8467C6.16573 15.8931 6.07099 15.8892 5.99609 15.8457C6.01697 15.928 6.02927 16.0138 6.0293 16.1025C6.0293 16.6792 5.562 17.1465 4.98535 17.1465C4.40878 17.1464 3.94141 16.6791 3.94141 16.1025C3.94156 15.5261 4.40888 15.0587 4.98535 15.0586C5.36508 15.0586 5.69618 15.2623 5.87891 15.5654C5.89551 15.5037 5.9364 15.4485 5.99609 15.4141L11.5059 12.2324L5.87891 8.98438C5.75933 8.91534 5.71807 8.76215 5.78711 8.64258C5.85625 8.5233 6.00946 8.4828 6.12891 8.55176L11.8682 11.8652V5.10254C11.8683 4.9646 11.9802 4.85254 12.1182 4.85254C12.256 4.85269 12.368 4.9647 12.3682 5.10254V11.7354L17.8828 8.55176C18.0022 8.48285 18.1545 8.52341 18.2236 8.64258C18.2926 8.76208 18.2522 8.91528 18.1328 8.98438L12.5049 12.2324L18.0146 15.4141C18.0707 15.4464 18.1087 15.4976 18.127 15.5547C18.3109 15.2573 18.6393 15.0587 19.0146 15.0586C19.5912 15.0586 20.0584 15.526 20.0586 16.1025ZM6.0293 7.89746C6.02906 8.47391 5.56185 8.94141 4.98535 8.94141C4.40893 8.94131 3.94164 8.47385 3.94141 7.89746C3.94141 7.32087 4.40878 6.85263 4.98535 6.85254C5.562 6.85254 6.0293 7.32081 6.0293 7.89746ZM20.0586 7.89746C20.0584 8.47391 19.5912 8.94141 19.0146 8.94141C18.4383 8.94125 17.9709 8.47381 17.9707 7.89746C17.9707 7.3209 18.4381 6.85269 19.0146 6.85254C19.5913 6.85254 20.0586 7.32081 20.0586 7.89746ZM13.0439 3.79395C13.0439 4.37059 12.5766 4.83789 12 4.83789C11.4235 4.83777 10.9561 4.37052 10.9561 3.79395C10.9561 3.21745 11.4235 2.75012 12 2.75C12.5766 2.75 13.0439 3.21737 13.0439 3.79395Z" fill="#020202"/>
</svg>
