<svg width="24" height="24" viewBox="0 0 24 24" fill="none" xmlns="http://www.w3.org/2000/svg">
<path d="M12.1835 4.0424C12.0562 3.98015 11.9058 3.9869 11.7854 4.05965C11.6642 4.1324 11.5913 4.2614 11.5913 4.40013V13.9999C11.5913 14.2204 11.7739 14.3997 12.0002 14.3997C12.2264 14.3997 12.409 14.2204 12.409 13.9999V9.44674L17.092 7.157L17.0928 7.15775C17.2309 7.0895 17.3191 6.95151 17.3191 6.80001C17.3191 6.64851 17.2309 6.50977 17.0928 6.44226L12.1835 4.0424Z" fill="#020202"/>
<path d="M14.8105 10.6333C14.5881 10.595 14.3756 10.7405 14.3365 10.958C14.2973 11.1755 14.4454 11.3833 14.6686 11.4215C17.9148 11.981 20.1823 13.535 20.1823 15.2C20.1823 17.3682 16.4351 19.1997 11.9999 19.1997C7.56474 19.1997 3.81762 17.3674 3.81762 15.2C3.81762 13.5365 6.0798 11.9848 9.31832 11.4254C9.54077 11.3871 9.69034 11.1794 9.65046 10.9619C9.61134 10.7444 9.39887 10.5989 9.1764 10.6371C5.4823 11.2754 3 13.1091 3 15.2001C3 17.8919 6.9535 20 12 20C17.0473 20 21 17.8919 21 15.2001C21 13.107 18.5133 11.2715 14.8105 10.6333Z" fill="#020202"/>
</svg>
