<svg width="24" height="24" viewBox="0 0 24 24" fill="none" xmlns="http://www.w3.org/2000/svg">
<path d="M8.77442 8.86257C8.82122 9.01556 8.96162 9.11997 9.12002 9.11997H14.88C15.0384 9.11997 15.1788 9.01557 15.2256 8.86257L16.3056 5.26259C16.3434 5.13659 16.3092 4.99979 16.2174 4.90618C16.1256 4.81258 15.9888 4.77658 15.8628 4.81258L13.6146 5.45519L12.315 3.18C12.2484 3.0684 12.1296 3 12 3C11.8704 3 11.7516 3.0684 11.6868 3.1818L10.3872 5.45699L8.13902 4.81438C8.01302 4.77838 7.87623 4.81438 7.78441 4.90798C7.6926 5.00158 7.65841 5.13838 7.69622 5.26438L8.77442 8.86257ZM10.461 6.22565C10.6212 6.27065 10.7904 6.20225 10.8732 6.05825L12 4.08546L13.1268 6.05825C13.2096 6.20225 13.3788 6.27245 13.539 6.22565L15.4254 5.68564L14.6118 8.39997H9.38821L8.57462 5.68749L10.461 6.22565ZM20.6401 20.28H19.9201V13.9818C19.9201 13.485 19.5151 13.08 19.0183 13.08H14.8801V11.8218C14.8801 11.325 14.4751 10.92 13.9783 10.92H10.0218C9.52504 10.92 9.12002 11.325 9.12002 11.8218V15.24H4.98181C4.48502 15.24 4.08 15.645 4.08 16.1418V20.28H3.36C3.162 20.28 3 20.442 3 20.64C3 20.838 3.162 21 3.36 21H20.64C20.838 21 21 20.838 21 20.64C21 20.442 20.8381 20.28 20.6401 20.28ZM4.80009 16.1418C4.80009 16.041 4.88109 15.96 4.98189 15.96H9.12011V20.28H4.80011L4.80009 16.1418ZM9.84009 11.8219C9.84009 11.7211 9.92109 11.6401 10.0219 11.6401H13.9765C14.0773 11.6401 14.1583 11.7211 14.1583 11.8219V20.2801H9.84012L9.84009 11.8219ZM14.8801 20.2798V13.7999H19.0183C19.1191 13.7999 19.2001 13.8809 19.2001 13.9817V20.2799L14.8801 20.2798Z" fill="#020202"/>
</svg>
