<svg width="24" height="24" viewBox="0 0 24 24" fill="none" xmlns="http://www.w3.org/2000/svg">
<path d="M11.9992 21C11.9092 21 11.8192 20.973 11.7425 20.9173L4.18831 15.5172C4.07083 15.4328 4 15.2953 4 15.1502V3.44972C4 3.20082 4.19915 3 4.44412 3H19.5534C19.7992 3 19.9975 3.20166 19.9975 3.44972V15.1502C19.9975 15.2962 19.9276 15.4329 19.8092 15.5172L12.2541 20.9173C12.1775 20.973 12.0875 21 11.9975 21H11.9992ZM4.88906 14.9165L11.9992 19.9984L19.1093 14.9165V3.89944H4.88906V14.9165Z" fill="#020202"/>
<path d="M11.9992 18.3C11.9092 18.3 11.8192 18.273 11.7425 18.2173L4.18832 12.8172C3.9875 12.6738 3.94 12.3936 4.08166 12.1903C4.22331 11.9853 4.49994 11.9372 4.70159 12.0823L12.0001 17.2983L19.2985 12.0823C19.5002 11.9372 19.776 11.9853 19.9184 12.1903C20.0601 12.3936 20.0126 12.6738 19.8118 12.8172L12.2567 18.2173C12.1801 18.273 12.0892 18.3 11.9992 18.3Z" fill="#020202"/>
<path d="M14.2865 14.0551C14.1549 14.0551 14.0232 14.0222 13.9007 13.958L11.9701 12.9295L10.0978 13.9572C9.81449 14.1065 9.48119 14.0821 9.22538 13.8931C8.96875 13.7041 8.84292 13.3893 8.89624 13.0729L9.26455 10.8969L7.72053 9.41103C7.49306 9.18574 7.41306 8.85668 7.51139 8.55039C7.60971 8.24578 7.86553 8.02641 8.17965 7.98001L10.3377 7.66275L11.2568 5.71619C11.5376 5.14157 12.4608 5.14157 12.7416 5.71619L13.7065 7.69651L15.8188 7.98001C16.133 8.02642 16.3888 8.2458 16.4871 8.55039C16.5854 8.85668 16.5054 9.18574 16.2779 9.41019L14.7164 10.9517L15.1022 13.073C15.1564 13.3902 15.0297 13.7049 14.7731 13.8939C14.6281 14.0011 14.4573 14.0551 14.2865 14.0551ZM8.42962 8.85327L9.9028 10.3071C10.0978 10.5011 10.1869 10.7779 10.1403 11.0496L9.79282 13.1033L11.6135 12.1338C11.8551 12.003 12.1434 12.0064 12.3851 12.1338L14.2049 13.1033L13.8574 11.0504C13.8116 10.7779 13.9007 10.5011 14.0941 10.3079L15.5681 8.85327L13.5325 8.55458C13.2633 8.51408 13.03 8.34364 12.9092 8.09642L11.9801 6.18952L11.0877 8.09557C10.966 8.34363 10.7335 8.51408 10.4644 8.55458L8.42794 8.85327H8.42962Z" fill="#020202"/>
</svg>
