<svg width="24" height="24" viewBox="0 0 24 24" fill="none" xmlns="http://www.w3.org/2000/svg">
<path d="M11.0337 14.9275L9.65055 14.4159V12.1801C9.65055 11.8201 9.36634 11.5359 9.00634 11.5359C8.64634 11.5359 8.36213 11.8201 8.36213 12.1801V14.8707C8.36213 15.1359 8.53265 15.3822 8.77897 15.477L10.579 16.1401C10.6548 16.1591 10.7305 16.178 10.8063 16.178C11.0716 16.178 11.3179 16.0075 11.4127 15.7612C11.5453 15.4012 11.3748 15.0412 11.0337 14.9275Z" fill="#020202"/>
<path d="M16.1684 7.10206C15.4105 7.84101 14.8421 8.35259 14.4253 8.69364L14.0274 8.29575C13.4211 7.68943 12.4547 7.68943 11.8484 8.29575L10.9958 9.16733C10.3516 8.93996 9.68843 8.82628 9.02528 8.82628C7.49054 8.82628 5.93686 9.41365 4.76212 10.5884C2.41265 12.9379 2.41265 16.7653 4.76212 19.1147C5.93686 20.2895 7.49054 20.8769 9.02528 20.8769C10.56 20.8769 12.1137 20.2895 13.2884 19.1147C14.9747 17.4284 15.4484 15.0031 14.7284 12.9L15.6 12.0284C16.2063 11.4221 16.2063 10.4558 15.6 9.84944L15.2969 9.54628C15.7326 9.18628 16.3011 8.6747 17.0211 7.95469C17.2484 7.72732 17.2484 7.32943 17.0211 7.08311C16.7937 6.85574 16.3958 6.85574 16.1684 7.10206ZM12.4358 18.2621C11.5263 19.1716 10.3137 19.6642 9.04422 19.6642C7.77475 19.6642 6.54317 19.1716 5.6337 18.2621C3.75791 16.3863 3.75791 13.3358 5.6337 11.46C6.54317 10.5505 7.7558 10.0579 9.02528 10.0579C10.2947 10.0579 11.5074 10.5505 12.4169 11.46C14.2926 13.3358 14.2926 16.3863 12.4358 18.2621ZM14.7284 11.1568L14.16 11.7252C13.9137 11.3273 13.6295 10.9484 13.2884 10.6073C12.9474 10.2663 12.5684 9.98207 12.1705 9.73575L12.739 9.16733C12.8526 9.05365 13.0611 9.05365 13.1747 9.16733L14.7284 10.721C14.8611 10.8347 14.8611 11.0431 14.7284 11.1568Z" fill="#020202"/>
<path d="M18.12 6.47694C18.2526 6.47694 18.3663 6.4201 18.4421 6.34431L19.6926 5.09378C19.8821 4.9043 19.8821 4.62009 19.6926 4.43062C19.5032 4.24114 19.219 4.24114 19.0295 4.43062L17.779 5.68115C17.5895 5.87062 17.5895 6.15483 17.779 6.34431C17.8737 6.4201 17.9874 6.47694 18.12 6.47694Z" fill="#020202"/>
<path d="M16.6042 5.8516C16.8695 5.8516 17.0779 5.64318 17.0779 5.37792V3.59686C17.0779 3.33159 16.8695 3.12317 16.6042 3.12317C16.339 3.12317 16.1306 3.33159 16.1306 3.59686V5.37792C16.1306 5.64318 16.339 5.8516 16.6042 5.8516Z" fill="#020202"/>
<path d="M14.7474 6.34431C14.8421 6.43905 14.9558 6.47694 15.0884 6.47694C15.2211 6.47694 15.3347 6.4201 15.4295 6.34431C15.619 6.15483 15.619 5.87062 15.4295 5.68115L14.179 4.43062C13.9895 4.24114 13.7053 4.24114 13.5158 4.43062C13.3263 4.62009 13.3263 4.9043 13.5158 5.09378L14.7474 6.34431Z" fill="#020202"/>
<path d="M18.461 8.73162C18.2716 8.54215 17.9874 8.54215 17.7979 8.73162C17.6084 8.9211 17.6084 9.20531 17.7979 9.39478L19.0484 10.6453C19.1431 10.7401 19.2568 10.7779 19.3895 10.7779C19.5221 10.7779 19.6358 10.7211 19.7305 10.6453C19.92 10.4558 19.92 10.1716 19.7305 9.98216L18.461 8.73162Z" fill="#020202"/>
<path d="M20.5263 7.0643H18.7452C18.48 7.0643 18.2716 7.27272 18.2716 7.53798C18.2716 7.80325 18.48 8.01167 18.7452 8.01167H20.5263C20.7916 8.01167 21 7.80325 21 7.53798C21 7.27272 20.7916 7.0643 20.5263 7.0643Z" fill="#020202"/>
</svg>
