<svg width="24" height="24" viewBox="0 0 24 24" fill="none" xmlns="http://www.w3.org/2000/svg">
<path d="M3.84611 16.7576C3.28563 17.9141 3 19.1548 3 20.4428C3 20.7477 3.25329 20.9947 3.56587 20.9947C3.87844 20.9947 4.13174 20.7477 4.13174 20.4428C4.13174 19.323 4.37964 18.2401 4.87006 17.2255C5.44132 16.0164 6.34671 14.965 7.48922 14.1817C8.07126 13.7716 8.71258 13.4614 9.38623 13.2301C10.1677 13.6402 11.0515 13.8925 12 13.8925C12.9485 13.8925 13.8269 13.6402 14.6138 13.2301C15.2874 13.4614 15.9287 13.7769 16.5162 14.1869C17.6533 14.9755 18.5587 16.0269 19.1299 17.236C19.6204 18.2453 19.8683 19.3283 19.8683 20.448C19.8683 20.7529 20.1216 21 20.4341 21C20.7467 21 21 20.7529 21 20.448C21 19.16 20.7144 17.9194 20.1539 16.7681C19.5018 15.3908 18.4671 14.1817 17.1683 13.288C16.7102 12.9673 16.2198 12.7097 15.7132 12.4836C16.8503 11.4848 17.5832 10.0549 17.5832 8.44626C17.5832 5.44451 15.0772 3 12 3C8.92275 3 6.41677 5.44451 6.41677 8.44626C6.41677 10.0549 7.14431 11.4848 8.28683 12.4836C7.78024 12.7097 7.28982 12.9673 6.83174 13.2827C5.52755 14.1764 4.4982 15.3803 3.84611 16.7576ZM7.5485 8.44626C7.5485 6.05432 9.54252 4.10397 12 4.10397C14.4575 4.10397 16.4515 6.05432 16.4515 8.44626C16.4515 10.8382 14.4575 12.7886 12 12.7886C9.5479 12.7833 7.5485 10.8382 7.5485 8.44626Z" fill="#020202"/>
</svg>
