<svg width="24" height="24" viewBox="0 0 24 24" fill="none" xmlns="http://www.w3.org/2000/svg">
<path d="M8.59569 16.662C8.36169 17.1631 8.24244 17.7006 8.24244 18.2586C8.24244 18.3907 8.34819 18.4977 8.47869 18.4977C8.60919 18.4977 8.71494 18.3907 8.71494 18.2586C8.71494 17.7735 8.81844 17.3043 9.02319 16.8647C9.26168 16.3409 9.63968 15.8854 10.1167 15.5461C10.3597 15.3684 10.6274 15.234 10.9087 15.1338C11.2349 15.3115 11.6039 15.4208 11.9999 15.4208C12.3959 15.4208 12.7627 15.3115 13.0912 15.1338C13.3724 15.234 13.6402 15.3707 13.8854 15.5483C14.3602 15.89 14.7382 16.3455 14.9767 16.8693C15.1814 17.3066 15.2849 17.7757 15.2849 18.2609C15.2849 18.3929 15.3907 18.5 15.5212 18.5C15.6517 18.5 15.7574 18.3929 15.7574 18.2609C15.7574 17.7029 15.6382 17.1654 15.4042 16.6666C15.1319 16.0699 14.6999 15.5461 14.1577 15.1589C13.9664 15.02 13.7617 14.9084 13.5502 14.8104C14.0249 14.3777 14.3309 13.7582 14.3309 13.0613C14.3309 11.7608 13.2847 10.7018 11.9999 10.7018C10.7152 10.7018 9.66893 11.7608 9.66893 13.0613C9.66893 13.7582 9.97268 14.3777 10.4497 14.8104C10.2382 14.9084 10.0334 15.02 9.84218 15.1566C9.29768 15.5438 8.86794 16.0653 8.59569 16.662ZM10.1414 13.0613C10.1414 12.025 10.9739 11.1801 11.9999 11.1801C13.0259 11.1801 13.8584 12.025 13.8584 13.0613C13.8584 14.0976 13.0259 14.9425 11.9999 14.9425C10.9762 14.9402 10.1414 14.0976 10.1414 13.0613Z" fill="#020202"/>
<path d="M3.23625 16.8056C3.36675 16.8056 3.4725 16.6986 3.4725 16.5665C3.4725 16.0791 3.576 15.6099 3.783 15.1726C4.0215 14.6511 4.39725 14.1933 4.87424 13.8539C5.11949 13.6763 5.38724 13.5419 5.66624 13.4417C5.99249 13.6194 6.36149 13.7287 6.75749 13.7287C7.15349 13.7287 7.52023 13.6194 7.84873 13.4417C8.05573 13.5146 8.25823 13.608 8.45398 13.7287C8.51923 13.7674 8.57773 13.8107 8.64298 13.8585C8.99848 14.1113 9.29548 14.4233 9.52498 14.7923C9.56998 14.8652 9.64648 14.9039 9.72523 14.9039C9.76798 14.9039 9.81298 14.8925 9.85123 14.8674C9.96148 14.7968 9.99523 14.6488 9.92548 14.5372C9.66223 14.1159 9.32248 13.756 8.91298 13.4668C8.84323 13.4167 8.77348 13.3666 8.69923 13.321C8.57548 13.2436 8.44723 13.1752 8.31673 13.1138C8.78923 12.681 9.09073 12.0638 9.09073 11.3692C9.09073 10.0687 8.04448 9.00968 6.75974 9.00968C5.47499 9.00968 4.4265 10.0642 4.4265 11.3669C4.4265 12.0638 4.73024 12.6833 5.20724 13.116C4.99574 13.214 4.79099 13.3256 4.59974 13.4622C4.0575 13.8517 3.6255 14.3732 3.35325 14.9699C3.11925 15.471 3 16.0085 3 16.5665C3 16.6986 3.10575 16.8056 3.23625 16.8056ZM4.90124 11.3669C4.90124 10.3306 5.73374 9.48568 6.75974 9.48568C7.78573 9.48568 8.61823 10.3284 8.61823 11.3669C8.61823 12.4032 7.78573 13.2481 6.75974 13.2481C5.73374 13.2481 4.90124 12.4032 4.90124 11.3669Z" fill="#020202"/>
<path d="M9.4597 10.8476C9.52495 10.8476 9.58795 10.8203 9.6352 10.7702C9.77245 10.6176 9.9322 10.4764 10.1145 10.3488C10.3575 10.1712 10.6274 10.0368 10.9087 9.93431C11.2349 10.112 11.6039 10.2213 11.9999 10.2213C12.3959 10.2213 12.7627 10.112 13.0889 9.93431C13.3702 10.0345 13.6379 10.1712 13.8832 10.3488C14.0587 10.4741 14.2229 10.6153 14.3669 10.7724C14.4142 10.8225 14.4772 10.8476 14.5402 10.8476C14.5987 10.8476 14.6572 10.8271 14.7022 10.7815C14.7967 10.6904 14.8012 10.5401 14.7134 10.4422C14.5447 10.2623 14.3579 10.0983 14.1577 9.95709C13.9664 9.81816 13.7617 9.70656 13.5502 9.60863C14.0249 9.1759 14.3309 8.55642 14.3309 7.8595C14.3309 6.55904 13.2847 5.5 11.9999 5.5C10.7152 5.5 9.66895 6.55904 9.66895 7.8595C9.66895 8.55642 9.9727 9.1759 10.4474 9.60863C10.236 9.70656 10.029 9.81816 9.83995 9.95481C9.63295 10.1028 9.4462 10.2668 9.2842 10.4445C9.19645 10.5424 9.2032 10.6927 9.29995 10.7838C9.3472 10.8271 9.40345 10.8476 9.4597 10.8476ZM10.1415 7.8595C10.1415 6.82323 10.9739 5.97828 11.9999 5.97828C13.0259 5.97828 13.8584 6.82096 13.8584 7.8595C13.8584 8.89577 13.0259 9.74072 11.9999 9.74072C10.9762 9.74072 10.1415 8.89804 10.1415 7.8595Z" fill="#020202"/>
<path d="M15.2985 13.3142C15.2265 13.3598 15.1567 13.4076 15.0802 13.4645C14.682 13.7492 14.3355 14.1159 14.0745 14.5281C14.0048 14.6397 14.0363 14.7878 14.1465 14.8584C14.1848 14.8834 14.2298 14.8971 14.2748 14.8971C14.3535 14.8971 14.4277 14.8584 14.475 14.7878C14.7022 14.4279 15.006 14.1068 15.366 13.8494C15.4245 13.8084 15.4807 13.7652 15.546 13.7265C15.7395 13.6057 15.9442 13.5124 16.1512 13.4395C16.4775 13.6171 16.8465 13.7265 17.2425 13.7265C17.6385 13.7265 18.0075 13.6171 18.3337 13.4395C18.615 13.5397 18.8827 13.6763 19.128 13.854C19.6027 14.1956 19.9807 14.6511 20.2192 15.1749C20.424 15.6122 20.5275 16.0814 20.5275 16.5688C20.5275 16.7009 20.6332 16.8079 20.7637 16.8079C20.8942 16.8079 21 16.7009 21 16.5688C21 16.0108 20.8807 15.4733 20.6467 14.9722C20.3745 14.3755 19.9425 13.8517 19.4002 13.4645C19.209 13.3256 19.0042 13.214 18.7927 13.1161C19.2675 12.6834 19.5735 12.0639 19.5735 11.367C19.5735 10.0665 18.5272 9.00745 17.2425 9.00745C15.9577 9.00745 14.9115 10.0665 14.9115 11.367C14.9115 12.0593 15.213 12.6765 15.6832 13.1092C15.5505 13.1685 15.4245 13.2391 15.2985 13.3142ZM15.3817 11.367C15.3817 10.3307 16.2142 9.48573 17.2402 9.48573C18.2662 9.48573 19.0987 10.3284 19.0987 11.367C19.0987 12.4032 18.2662 13.2482 17.2402 13.2482C16.2142 13.2482 15.3817 12.4032 15.3817 11.367Z" fill="#020202"/>
</svg>
