<svg width="24" height="24" viewBox="0 0 24 24" fill="none" xmlns="http://www.w3.org/2000/svg">
<path d="M3.23625 14.9471C3.36675 14.9471 3.4725 14.8449 3.4725 14.7187C3.4725 14.2533 3.576 13.8052 3.783 13.3876C4.0215 12.8896 4.39725 12.4524 4.87424 12.1283C5.11949 11.9587 5.38724 11.8303 5.66624 11.7346C5.99249 11.9043 6.36149 12.0087 6.75749 12.0087C7.15349 12.0087 7.52023 11.9043 7.84873 11.7346C8.05573 11.8042 8.25823 11.8934 8.45398 12.0087C8.51923 12.0457 8.57773 12.087 8.64298 12.1327C8.99848 12.3741 9.29548 12.6721 9.52498 13.0244C9.56998 13.094 9.64648 13.131 9.72523 13.131C9.76798 13.131 9.81298 13.1201 9.85123 13.0962C9.96148 13.0288 9.99523 12.8874 9.92548 12.7808C9.66223 12.3784 9.32248 12.0348 8.91298 11.7586C8.84323 11.7107 8.77348 11.6629 8.69923 11.6194C8.57548 11.5454 8.44723 11.4802 8.31673 11.4214C8.78923 11.0082 9.09073 10.4188 9.09073 9.7554C9.09073 8.51349 8.04448 7.50212 6.75974 7.50212C5.47499 7.50212 4.4265 8.50914 4.4265 9.75323C4.4265 10.4188 4.73024 11.0104 5.20724 11.4236C4.99574 11.5171 4.79099 11.6237 4.59974 11.7542C4.0575 12.1261 3.6255 12.6242 3.35325 13.1941C3.11925 13.6725 3 14.1858 3 14.7187C3 14.8449 3.10575 14.9471 3.23625 14.9471ZM4.90124 9.75323C4.90124 8.76361 5.73374 7.9567 6.75974 7.9567C7.78573 7.9567 8.61823 8.76144 8.61823 9.75323C8.61823 10.7428 7.78573 11.5498 6.75974 11.5498C5.73374 11.5498 4.90124 10.7428 4.90124 9.75323Z" fill="#020202"/>
<path d="M15.2985 11.6129C15.2265 11.6564 15.1567 11.7021 15.0802 11.7564C14.682 12.0283 14.3355 12.3785 14.0745 12.7722C14.0048 12.8787 14.0363 13.0201 14.1465 13.0875C14.1848 13.1115 14.2298 13.1245 14.2748 13.1245C14.3535 13.1245 14.4277 13.0875 14.475 13.0201C14.7022 12.6765 15.006 12.3698 15.366 12.124C15.4245 12.0849 15.4807 12.0435 15.546 12.0066C15.7395 11.8913 15.9442 11.8021 16.1512 11.7325C16.4775 11.9022 16.8465 12.0066 17.2425 12.0066C17.6385 12.0066 18.0075 11.9022 18.3337 11.7325C18.615 11.8282 18.8827 11.9587 19.128 12.1284C19.6027 12.4546 19.9807 12.8896 20.2192 13.3898C20.424 13.8074 20.5275 14.2555 20.5275 14.7209C20.5275 14.8471 20.6332 14.9493 20.7637 14.9493C20.8942 14.9493 21 14.8471 21 14.7209C21 14.1881 20.8807 13.6748 20.6467 13.1963C20.3745 12.6264 19.9425 12.1262 19.4002 11.7564C19.209 11.6238 19.0042 11.5172 18.7927 11.4237C19.2675 11.0104 19.5735 10.4188 19.5735 9.75328C19.5735 8.51137 18.5272 7.5 17.2425 7.5C15.9577 7.5 14.9115 8.51137 14.9115 9.75328C14.9115 10.4145 15.213 11.0039 15.6832 11.4171C15.5505 11.4737 15.4245 11.5411 15.2985 11.6129ZM15.3817 9.75328C15.3817 8.76366 16.2142 7.95675 17.2402 7.95675C18.2662 7.95675 19.0987 8.76149 19.0987 9.75328C19.0987 10.7429 18.2662 11.5498 17.2402 11.5498C16.2142 11.5498 15.3817 10.7429 15.3817 9.75328Z" fill="#020202"/>
<path d="M8.52823 14.7448C8.29423 15.2233 8.17498 15.7366 8.17498 16.2694C8.17498 16.3956 8.28073 16.4978 8.41123 16.4978C8.54173 16.4978 8.64748 16.3956 8.64748 16.2694C8.64748 15.8062 8.75098 15.3581 8.95573 14.9384C9.19423 14.4381 9.57223 14.0031 10.0492 13.679C10.2922 13.5094 10.56 13.3811 10.8412 13.2854C11.1675 13.455 11.5365 13.5594 11.9325 13.5594C12.3285 13.5594 12.6952 13.455 13.0237 13.2854C13.305 13.3811 13.5727 13.5116 13.818 13.6812C14.2927 14.0075 14.6707 14.4425 14.9092 14.9427C15.114 15.3603 15.2175 15.8084 15.2175 16.2716C15.2175 16.3978 15.3232 16.5 15.4537 16.5C15.5842 16.5 15.69 16.3978 15.69 16.2716C15.69 15.7388 15.5707 15.2255 15.3367 14.7491C15.0645 14.1793 14.6325 13.679 14.0902 13.3093C13.899 13.1766 13.6942 13.0701 13.4827 12.9765C13.9575 12.5633 14.2635 11.9717 14.2635 11.3061C14.2635 10.0642 13.2172 9.05286 11.9325 9.05286C10.6477 9.05286 9.60148 10.0642 9.60148 11.3061C9.60148 11.9717 9.90523 12.5633 10.3822 12.9765C10.1707 13.0701 9.96598 13.1766 9.77473 13.3071C9.23023 13.6769 8.80048 14.1749 8.52823 14.7448ZM10.074 11.3061C10.074 10.3165 10.9065 9.50961 11.9325 9.50961C12.9585 9.50961 13.791 10.3165 13.791 11.3061C13.791 12.2958 12.9585 13.1027 11.9325 13.1027C10.9087 13.1005 10.074 12.2958 10.074 11.3061Z" fill="#020202"/>
</svg>
