<svg width="24" height="24" viewBox="0 0 24 24" fill="none" xmlns="http://www.w3.org/2000/svg">
<path d="M19.0389 12.6168L15.4167 9.50224C17.4517 8.1147 18.7097 5.7944 18.7097 3.32273C18.7097 3.14494 18.5654 3.00064 18.3876 3.00064C18.2098 3.00064 18.0655 3.14494 18.0655 3.32273C18.0655 5.63916 16.859 7.81452 14.9136 9.06871L14.1696 8.42841C13.1628 7.56264 11.658 7.34427 10.4457 7.87185C9.45946 8.01421 8.5937 8.57012 8.04873 9.3676C5.81797 8.192 4.38341 5.85818 4.38341 3.32208C4.38341 3.14429 4.23912 3 4.06133 3C3.88354 3 3.73924 3.14429 3.73924 3.32208C3.73924 6.09458 5.29877 8.65515 7.73695 9.94349C7.68993 10.0524 7.64161 10.1606 7.60554 10.2752L5.64018 16.3878C5.34966 17.2851 5.42761 18.2423 5.8592 19.083C6.29015 19.9229 7.02193 20.5426 7.91732 20.828C8.26904 20.942 8.63363 21 9.00081 21C10.5417 21 11.8905 20.0157 12.3582 18.5509L12.9554 16.6944L14.4324 17.966C15.0715 18.5167 15.8889 18.8201 16.7334 18.8201C17.7641 18.8201 18.7406 18.3737 19.4119 17.5949C20.6757 16.1185 20.5095 13.8852 19.0389 12.6168ZM11.743 18.3544C11.361 19.5513 10.2582 20.3558 8.99952 20.3558C8.69998 20.3558 8.40173 20.3088 8.11315 20.2148C7.38073 19.9816 6.78294 19.4753 6.43058 18.7886C6.07757 18.1012 6.01445 17.3192 6.2515 16.5855L8.2175 10.4711C8.2452 10.3841 8.28256 10.3023 8.31799 10.2192C8.80756 10.4247 9.30808 10.5767 9.81311 10.6727C9.82857 10.8531 9.87881 11.0302 9.96384 11.1958C10.1365 11.5327 10.4302 11.7819 10.7903 11.8973C10.9314 11.9423 11.077 11.9655 11.2238 11.9655C11.8409 11.9655 12.3827 11.5707 12.5721 10.9825C12.8111 10.2392 12.4007 9.43975 11.658 9.20077C10.9533 8.97595 10.1783 9.35923 9.91102 10.0356C9.48136 9.95251 9.05556 9.82561 8.63879 9.65555C9.09486 9.03457 9.79185 8.60555 10.5835 8.50377C10.5958 8.50249 10.6074 8.49862 10.6196 8.4954C10.7575 8.47994 10.8966 8.48509 11.0357 8.48831C11.104 8.49025 11.1723 8.48123 11.2393 8.48767C11.4467 8.507 11.6522 8.54693 11.8474 8.61071C13.3638 9.10156 14.1986 10.73 13.7097 12.2412L11.743 18.3544ZM11.2232 10.1644C10.9971 10.1644 10.7852 10.1516 10.579 10.1329C10.7182 9.91579 10.9552 9.77665 11.2225 9.77665C11.3031 9.77665 11.3823 9.78953 11.4596 9.81401C11.8648 9.94414 12.0883 10.3802 11.9582 10.7854C11.8551 11.1056 11.5601 11.3214 11.2232 11.3214C11.1433 11.3214 11.0634 11.3085 10.9861 11.284C10.7897 11.2209 10.6299 11.085 10.5359 10.9014C10.5146 10.8601 10.512 10.8151 10.4985 10.7719C10.7304 10.7938 10.9681 10.8086 11.2225 10.8086C11.4003 10.8086 11.5446 10.6643 11.5446 10.4865C11.5446 10.3087 11.4016 10.1644 11.2232 10.1644ZM18.9216 17.1749C18.3728 17.8114 17.5747 18.1766 16.7315 18.1766C16.0409 18.1766 15.3736 17.9286 14.8511 17.479L13.1679 16.0296L14.3216 12.439C14.3777 12.2664 14.415 12.0924 14.4427 11.9185C14.4479 11.8857 14.4543 11.8528 14.4588 11.82C14.4814 11.6531 14.4911 11.4869 14.4898 11.3214C14.4891 11.2885 14.4872 11.257 14.4859 11.2241C14.4795 11.0579 14.4646 10.8924 14.435 10.73C14.4344 10.7249 14.4337 10.7197 14.4331 10.7146C14.4022 10.549 14.3558 10.388 14.3017 10.2301C14.2907 10.1986 14.2811 10.167 14.2695 10.1355C14.2134 9.98407 14.1471 9.83656 14.0704 9.6942C14.0556 9.6665 14.0389 9.63944 14.0234 9.61239C13.9435 9.4726 13.8572 9.33733 13.7586 9.20978C13.7528 9.20205 13.7483 9.19432 13.7419 9.18659C13.6395 9.05518 13.5248 8.93343 13.4043 8.81748C13.3799 8.79365 13.3554 8.76982 13.3296 8.74663C13.2085 8.63647 13.0797 8.53405 12.9418 8.44065C12.9322 8.4342 12.9244 8.42519 12.9141 8.41874C13.2169 8.53663 13.499 8.70475 13.7477 8.91862L18.617 13.1057C19.8209 14.1415 19.9568 15.9678 18.9216 17.1749Z" fill="#020202"/>
<path d="M10.961 13.3949L8.83331 12.5968C8.66712 12.535 8.48095 12.6187 8.41847 12.7849C8.35599 12.9511 8.44037 13.1373 8.60657 13.1998L10.7343 13.9979C10.7716 14.0114 10.8096 14.0185 10.8476 14.0185C10.9778 14.0185 11.1008 13.9386 11.1491 13.8098C11.2116 13.6429 11.1278 13.4574 10.961 13.3949Z" fill="#020202"/>
<path d="M10.0933 15.2914L7.96562 14.4939C7.80072 14.4315 7.61391 14.5158 7.55078 14.6827C7.48829 14.8489 7.57268 15.0344 7.73952 15.0975L9.86721 15.895C9.90457 15.9085 9.94258 15.9156 9.97994 15.9156C10.1101 15.9156 10.2331 15.8357 10.2814 15.7063C10.3439 15.5394 10.2595 15.3539 10.0933 15.2914Z" fill="#020202"/>
</svg>
