<svg width="24" height="24" viewBox="0 0 24 24" fill="none" xmlns="http://www.w3.org/2000/svg">
<path d="M18.8973 4.39772C19.0012 4.28609 19.0588 4.13749 19.0588 3.98013C19.0588 3.8221 19.0018 3.6735 18.8979 3.56254L18.5354 3.17253C18.3213 2.94256 17.9719 2.94256 17.7571 3.17253L16.8079 4.19195L15.8187 3.94047C15.6615 3.90012 15.4937 3.9519 15.3798 4.07428L14.0624 5.48842C13.879 5.33107 13.5947 5.34049 13.4263 5.52137L8.95831 10.3199C8.83872 10.4484 8.77235 10.6198 8.77235 10.8014V12.1254L7.89015 13.2316C7.87325 13.2531 7.8457 13.2632 7.82003 13.2578L7.2008 13.1314C6.97226 13.085 6.7406 13.1893 6.61287 13.3991L5.05948 15.9355C4.95179 16.1116 4.9161 16.3221 4.95868 16.5279C5.00188 16.7336 5.11771 16.9071 5.28551 17.0174L7.53832 18.4881C7.65165 18.562 7.78063 18.6004 7.91086 18.6004C7.98537 18.6004 8.05988 18.5883 8.13188 18.5627C8.33098 18.4934 8.49127 18.3354 8.57204 18.1283L10.2244 13.8973L12.4997 16.3409C12.5886 16.4364 12.7069 16.4895 12.8328 16.4895C12.9586 16.4895 13.0769 16.4371 13.1658 16.3409L13.8145 15.6443C13.998 15.4472 13.998 15.1258 13.8145 14.9288L12.2661 13.2658L13.1345 12.3331C13.4269 12.5524 13.7644 12.7561 14.1413 12.9061C14.7261 13.1381 15.2746 13.2093 15.7279 13.2093C16.1925 13.2093 16.5556 13.1347 16.7535 13.0822C16.8674 13.052 16.9651 12.972 17.0221 12.8617C17.0791 12.7507 17.0903 12.6176 17.0534 12.4966L16.699 11.3487C16.632 11.1315 16.4248 11.0017 16.2175 11.0441C15.9502 11.1006 15.413 11.1597 14.8232 10.925C14.306 10.72 13.8934 10.3057 13.6555 10.0246L18.8973 4.39772ZM18.1109 3.55317C18.1303 3.53233 18.1616 3.53233 18.1811 3.55317L18.5436 3.94252C18.5555 3.95529 18.558 3.97009 18.558 3.98017C18.558 3.99026 18.5555 4.00505 18.5436 4.01783L15.6216 7.15553L15.1895 6.69154L18.1109 3.55317ZM15.7211 4.46837L16.3916 4.63917L14.8351 6.31086L14.42 5.86503L15.7211 4.46837ZM13.7632 5.92085L15.2671 7.53605L14.2397 8.63954L12.7357 7.02433L13.7632 5.92085ZM12.1108 10.9258L12.1089 10.9285L10.1392 13.044L9.27389 12.1147V10.8021C9.27389 10.7637 9.28767 10.7281 9.31271 10.7005L9.478 10.523L9.87496 10.9494C9.97577 11.0576 10.1079 11.1114 10.24 11.1114C10.3721 11.1114 10.5042 11.0576 10.605 10.9494L12.4351 8.9838C12.6361 8.76794 12.6361 8.41625 12.4351 8.19972L12.0382 7.77339L12.3819 7.40422L13.8858 9.01943L12.1108 10.9258ZM11.6807 8.15736L12.0808 8.60318L10.2287 10.5687L9.83169 10.1424L11.6807 8.15736ZM8.11111 17.9199C8.0773 18.0053 8.01343 18.0389 7.97837 18.051C7.94268 18.0631 7.87256 18.0766 7.7993 18.0282L5.54649 16.5575C5.49577 16.5246 5.46071 16.4721 5.44756 16.4096C5.43441 16.3477 5.44506 16.2838 5.47762 16.2307L7.03101 13.6943C7.04791 13.6674 7.07859 13.654 7.10677 13.66L7.726 13.7865C7.92885 13.8275 8.13735 13.7495 8.27071 13.5814L9.03707 12.6204L9.84287 13.4859L8.11111 17.9199ZM12.8346 15.9382L10.4936 13.424L11.0997 12.7731L13.4406 15.2873L12.8346 15.9382ZM11.9135 12.886L11.4533 12.3918L12.2642 11.521C12.3931 11.6676 12.5522 11.8323 12.7375 12.0011L11.9135 12.886ZM14.6503 11.4309C15.3071 11.6918 15.9081 11.6481 16.245 11.5862L16.5518 12.5807C16.1567 12.6729 15.2945 12.7905 14.3159 12.4019C13.5521 12.0986 12.9654 11.5391 12.6179 11.1404L13.3016 10.4061C13.594 10.7503 14.0567 11.1955 14.6503 11.4309Z" fill="#020202"/>
<path d="M11.8774 0.021808L2.24625 3.5103C2.09887 3.5628 2 3.70437 2 3.8647V13.8034C2 16.7499 4.52392 19.257 6.96792 21.0588C9.41216 22.8616 11.8527 23.9679 11.8527 23.9679C11.9469 24.0101 12.055 24.011 12.1502 23.9688C12.1502 23.9688 14.5878 22.8616 17.0321 21.0597C19.4763 19.2568 22 16.7499 22 13.8043V3.86467C22.0009 3.7053 21.903 3.56373 21.7565 3.51028L12.1227 0.0217856C12.0431 -0.00727676 11.9571 -0.00725443 11.8774 0.021808ZM12.0019 0.771828L21.2678 4.13V13.8025C21.2678 16.2955 18.9747 18.7001 16.6019 20.4495C14.3033 22.1445 12.143 23.1308 12.001 23.1954C11.8591 23.1298 9.69599 22.1435 7.39726 20.4495C5.02449 18.7001 2.73141 16.2952 2.73141 13.8025V4.12736L12.0019 0.771828Z" fill="#020202"/>
</svg>
