<svg width="24" height="24" viewBox="0 0 24 24" fill="none" xmlns="http://www.w3.org/2000/svg">
<path d="M10.8462 10.2692V10.5577C10.8462 11.0351 11.2341 11.4231 11.7115 11.4231H12.2885C13.4019 11.4231 14.3078 12.3288 14.3078 13.4424V13.7309C14.3078 14.7462 13.5535 15.5857 12.577 15.7269V16.0385C12.577 16.3572 12.3189 16.6154 12.0001 16.6154C11.6813 16.6154 11.4232 16.3572 11.4232 16.0385V15.7269C10.4467 15.5856 9.6924 14.7462 9.6924 13.7309C9.6924 13.4121 9.95057 13.1539 10.2693 13.1539C10.5881 13.1539 10.8462 13.4121 10.8462 13.7309C10.8462 14.2083 11.2342 14.5962 11.7116 14.5962H12.2886C12.766 14.5962 13.1539 14.2083 13.1539 13.7309V13.4424C13.1539 12.965 12.766 12.577 12.2886 12.577H11.7116C10.5982 12.577 9.69231 11.6713 9.69231 10.5577V10.2692C9.69231 9.25385 10.4466 8.4144 11.4231 8.27317V7.96163C11.4231 7.64287 11.6812 7.38471 12 7.38471C12.3188 7.38471 12.5769 7.64287 12.5769 7.96163V8.27317C13.5534 8.41451 14.3077 9.25394 14.3077 10.2692C14.3077 10.588 14.0495 10.8462 13.7308 10.8462C13.412 10.8462 13.1538 10.588 13.1538 10.2692C13.1538 9.79183 12.7659 9.40385 12.2885 9.40385H11.7115C11.2341 9.40385 10.8462 9.79183 10.8462 10.2692ZM19.5 12C19.5 16.135 16.135 19.5 12 19.5C7.86498 19.5 4.5 16.135 4.5 12C4.5 7.86498 7.86498 4.5 12 4.5C16.135 4.5 19.5 7.86498 19.5 12ZM18.3462 12C18.3462 8.50098 15.499 5.65385 12 5.65385C8.50098 5.65385 5.65385 8.50098 5.65385 12C5.65385 15.499 8.50098 18.3462 12 18.3462C15.499 18.3462 18.3462 15.499 18.3462 12Z" fill="#00C016"/>
</svg>
