<svg width="18" height="18" viewBox="0 0 18 18" fill="none" xmlns="http://www.w3.org/2000/svg">
<path d="M15.4927 12.1973C15.2615 10.5943 13.9645 9.30504 12.2559 8.84247C12.6675 8.63987 13.0286 8.3495 13.3134 7.99222C13.5982 7.63494 13.7995 7.21962 13.9029 6.7761C14.0064 6.33258 14.0094 5.87186 13.9117 5.42706C13.814 4.98226 13.618 4.56442 13.3379 4.20355C13.0578 3.84268 12.7004 3.54774 12.2915 3.33993C11.8826 3.13213 11.4324 3.0166 10.973 3.00166C10.5137 2.98672 10.0567 3.07274 9.63493 3.25353C9.21315 3.43432 8.83704 3.7054 8.53361 4.04729C7.78589 3.82023 6.97926 3.88035 6.27427 4.21569C5.56927 4.55104 5.0176 5.13701 4.72906 5.85698C4.44051 6.57696 4.43625 7.37816 4.71711 8.10111C4.99797 8.82406 5.54337 9.41577 6.24475 9.75845C4.54545 10.221 3.23918 11.5103 3.00798 13.1132C2.99146 13.2312 3.00066 13.3513 3.03496 13.4655C3.06925 13.5797 3.12785 13.6852 3.20681 13.775C3.28791 13.8666 3.38783 13.9399 3.49988 13.9901C3.61193 14.0402 3.73351 14.0661 3.85648 14.0659H11.4005C11.5234 14.0661 11.645 14.0402 11.7571 13.9901C11.8691 13.9399 11.969 13.8666 12.0501 13.775C12.1247 13.6901 12.1813 13.5912 12.2167 13.4842C12.252 13.3773 12.2653 13.2643 12.2559 13.1522H14.6372C14.7602 13.1524 14.8818 13.1265 14.9938 13.0764C15.1059 13.0262 15.2058 12.9529 15.2869 12.8614C15.3674 12.7718 15.4275 12.6662 15.463 12.5515C15.4985 12.4369 15.5086 12.3161 15.4927 12.1973ZM10.8687 3.91447C11.4494 3.91447 12.0063 4.14295 12.4169 4.54964C12.8275 4.95633 13.0582 5.50792 13.0582 6.08306C13.0582 6.65821 12.8275 7.2098 12.4169 7.61649C12.0063 8.02318 11.4494 8.25166 10.8687 8.25166C10.7424 8.25246 10.6162 8.24172 10.4919 8.2196C10.6608 7.8345 10.7474 7.41893 10.7462 6.99905C10.7462 6.50143 10.6247 6.0112 10.392 5.57018C10.1593 5.12915 9.82234 4.75044 9.40985 4.46635C9.81089 4.11066 10.3304 3.91413 10.8687 3.91447ZM5.44249 6.99905C5.44297 6.63951 5.5336 6.28571 5.70624 5.96943C5.87889 5.65316 6.12813 5.3843 6.43161 5.18702C6.73508 4.98973 7.08327 4.87019 7.44492 4.83913C7.80656 4.80807 8.17033 4.86647 8.50356 5.00907C8.79992 5.13712 9.06397 5.3286 9.27674 5.56974C9.4895 5.81088 9.64571 6.09571 9.73412 6.40376C9.82254 6.7118 9.84098 7.03542 9.78811 7.35136C9.73524 7.66731 9.61238 7.96773 9.42835 8.23105C9.1623 8.60927 8.78149 8.89369 8.34118 9.04301C7.90087 9.19234 7.42397 9.19881 6.9797 9.06149C6.53542 8.92417 6.14689 8.6502 5.87047 8.27934C5.59406 7.90847 5.44415 7.46002 5.44249 6.99905ZM3.94433 13.1522C4.21252 11.6294 5.78236 10.489 7.63194 10.489C7.75448 10.489 7.87701 10.489 8.00879 10.505C9.55089 10.6355 10.8456 11.5698 11.2456 12.8293C11.2805 12.9351 11.3091 13.043 11.3311 13.1522H3.94433ZM12.0039 12.2362L11.9831 12.1973C11.9386 12.0916 11.8885 11.9884 11.8328 11.8881L11.7773 11.7897C11.7172 11.6889 11.6548 11.5927 11.5877 11.4965C11.5785 11.4815 11.5685 11.467 11.5577 11.453C11.4791 11.3454 11.3935 11.2424 11.3057 11.1439L11.2317 11.0637C11.1577 10.9859 11.0814 10.9103 11.0005 10.8347L10.9265 10.766C10.8248 10.676 10.7184 10.5912 10.6075 10.5119L10.5404 10.4661C10.4479 10.3996 10.3508 10.3378 10.2514 10.2783L10.1497 10.2187C10.0318 10.1546 9.91849 10.0905 9.78902 10.0332H9.77284C9.64336 9.97371 9.50927 9.92104 9.37286 9.87295L9.32662 9.85463C9.81877 9.66752 10.3416 9.57203 10.8687 9.57297C12.7183 9.57297 14.2881 10.7179 14.5679 12.2362H12.0039Z" fill="#A4A4A4"/>
</svg>
