<svg width="24" height="24" viewBox="0 0 24 24" fill="none" xmlns="http://www.w3.org/2000/svg">
<path d="M17.0769 5.75H15.8077V4.91667C15.8077 4.80616 15.7631 4.70018 15.6838 4.62204C15.6044 4.5439 15.4968 4.5 15.3846 4.5H8.61538C8.50318 4.5 8.39557 4.5439 8.31622 4.62204C8.23688 4.70018 8.19231 4.80616 8.19231 4.91667V5.75H6.92308C6.81087 5.75 6.70326 5.7939 6.62392 5.87204C6.54457 5.95018 6.5 6.05616 6.5 6.16667V8.66667C6.5 8.77717 6.54457 8.88315 6.62392 8.96129C6.70326 9.03943 6.81087 9.08333 6.92308 9.08333H8.19231V10.3333C8.19221 10.8136 8.3606 11.2792 8.66899 11.6512C8.97737 12.0233 9.40681 12.2789 9.88462 12.375V13.6667C9.88462 13.7772 9.92919 13.8832 10.0085 13.9613C10.0879 14.0394 10.1955 14.0833 10.3077 14.0833H10.7308V17H9.03846C8.92625 17 8.81864 17.0439 8.7393 17.122C8.65996 17.2002 8.61538 17.3062 8.61538 17.4167V19.0833C8.61538 19.1938 8.65996 19.2998 8.7393 19.378C8.81864 19.4561 8.92625 19.5 9.03846 19.5H14.9615C15.0737 19.5 15.1814 19.4561 15.2607 19.378C15.34 19.2998 15.3846 19.1938 15.3846 19.0833V17.4167C15.3846 17.3062 15.34 17.2002 15.2607 17.122C15.1814 17.0439 15.0737 17 14.9615 17H13.2692V14.0833H13.6923C13.8045 14.0833 13.9121 14.0394 13.9915 13.9613C14.0708 13.8832 14.1154 13.7772 14.1154 13.6667V12.375C14.5932 12.2789 15.0226 12.0233 15.331 11.6512C15.6394 11.2792 15.8078 10.8136 15.8077 10.3333V9.08333H17.0769C17.1891 9.08333 17.2967 9.03943 17.3761 8.96129C17.4554 8.88315 17.5 8.77717 17.5 8.66667V6.16667C17.5 6.05616 17.4554 5.95018 17.3761 5.87204C17.2967 5.7939 17.1891 5.75 17.0769 5.75ZM7.34615 8.25V6.58333H8.19231V8.25H7.34615ZM14.5385 18.6667H9.46154V17.8333H14.5385V18.6667ZM12.4231 17H11.5769V14.0833H12.4231V17ZM13.2692 13.25H10.7308V12.4167H13.2692V13.25ZM14.9615 10.3333C14.9615 10.6649 14.8278 10.9828 14.5898 11.2172C14.3518 11.4516 14.0289 11.5833 13.6923 11.5833H10.3077C9.97107 11.5833 9.64824 11.4516 9.41021 11.2172C9.17218 10.9828 9.03846 10.6649 9.03846 10.3333V5.33333H14.9615V10.3333ZM16.6538 8.25H15.8077V6.58333H16.6538V8.25Z" fill="#DBB037"/>
</svg>
