<svg width="24" height="24" viewBox="0 0 24 24" fill="none" xmlns="http://www.w3.org/2000/svg">
<path d="M3.85 15H1.9L4.55 8H6.55L9.2 15H7.25L6.8 13.75H4.3L3.85 15ZM4.75 12.45H6.35L5.55 10.1L4.75 12.45ZM11.4996 13.6H15.1496V15H9.69961V8H11.4996V13.6ZM21.252 14.9C19.7653 15.0333 18.532 15.1 17.552 15.1C16.8986 15.1 16.4186 14.9467 16.112 14.64C15.8053 14.3333 15.652 13.8533 15.652 13.2V10C15.652 9.3 15.8086 8.79333 16.122 8.48C16.442 8.16 16.952 8 17.652 8H21.252V9.4H18.052C17.652 9.4 17.452 9.6 17.452 10V13.2C17.452 13.3533 17.4953 13.4767 17.582 13.57C17.6753 13.6567 17.792 13.7 17.932 13.7C18.072 13.7 18.2253 13.7 18.392 13.7C18.5586 13.6933 18.732 13.6867 18.912 13.68C19.092 13.6733 19.272 13.6667 19.452 13.66C19.6386 13.6533 19.8753 13.64 20.162 13.62C20.4553 13.6 20.8186 13.5767 21.252 13.55V14.9Z" fill="#020202"/>
</svg>
