<svg width="24" height="24" viewBox="0 0 24 24" fill="none" xmlns="http://www.w3.org/2000/svg">
<path fill-rule="evenodd" clip-rule="evenodd" d="M9.3062 16.0269C8.64393 15.5868 8.10109 14.9893 7.72624 14.288C7.3514 13.5867 7.15623 12.8034 7.1582 12.0082C7.16559 10.7718 7.64574 9.58503 8.50019 8.69129C9.35464 7.79756 10.5186 7.26458 11.7535 7.20165L11.2473 7.68583C11.1589 7.7756 11.1093 7.89655 11.1093 8.02256C11.1093 8.14857 11.1589 8.26952 11.2473 8.35928C11.3378 8.448 11.4595 8.49769 11.5862 8.49769C11.713 8.49769 11.8347 8.448 11.9252 8.35928L13.1752 7.11362C13.2231 7.06862 13.2608 7.01394 13.2858 6.95322C13.3109 6.8925 13.3227 6.82714 13.3205 6.76149C13.3263 6.69466 13.3175 6.62736 13.2947 6.56427C13.2719 6.50119 13.2356 6.44382 13.1884 6.39615L11.9252 5.14169C11.8812 5.09718 11.829 5.06176 11.7714 5.03745C11.7137 5.01314 11.6519 5.00042 11.5894 5.00001C11.5268 4.9996 11.4648 5.01151 11.4069 5.03507C11.349 5.05862 11.2962 5.09336 11.2517 5.13729C11.2072 5.18122 11.1718 5.23348 11.1475 5.2911C11.1232 5.34872 11.1105 5.41056 11.11 5.4731C11.1096 5.53563 11.1215 5.59764 11.1451 5.65557C11.1687 5.7135 11.2034 5.76623 11.2473 5.81074L11.7711 6.32133C10.2996 6.38021 8.90745 7.00418 7.88429 8.06341C6.86113 9.12264 6.28576 10.5356 6.27787 12.0082C6.27578 13.1942 6.65031 14.3501 7.34747 15.3095C7.74993 15.8706 8.25106 16.3538 8.82642 16.7356C8.89727 16.7814 8.97977 16.8058 9.06411 16.806C9.13432 16.8052 9.20333 16.7876 9.26535 16.7547C9.32737 16.7217 9.38062 16.6745 9.42064 16.6168C9.47984 16.5222 9.50095 16.4088 9.4797 16.2993C9.45846 16.1898 9.39645 16.0925 9.3062 16.0269ZM17.7221 11.995C17.7242 10.8078 17.3498 9.6504 16.6525 8.68941C16.2487 8.13072 15.7478 7.64915 15.1736 7.26768C15.1023 7.22346 15.0198 7.20056 14.9359 7.20165C14.8661 7.20198 14.7973 7.21891 14.7353 7.25106C14.6733 7.2832 14.6199 7.32964 14.5794 7.38652C14.5206 7.48156 14.5002 7.59538 14.5223 7.70491C14.5443 7.81444 14.6072 7.91147 14.6982 7.97634C15.188 8.29967 15.6158 8.70814 15.9615 9.18239C16.5535 10.0005 16.8709 10.9852 16.8682 11.995C16.8696 13.2412 16.3904 14.4399 15.5303 15.3417C14.6703 16.2436 13.4957 16.7791 12.2509 16.8368L12.7571 16.3307C12.8455 16.2409 12.8951 16.1199 12.8951 15.9939C12.8951 15.8679 12.8455 15.747 12.7571 15.6572C12.6666 15.5685 12.5449 15.5188 12.4182 15.5188C12.2914 15.5188 12.1697 15.5685 12.0792 15.6572L10.8248 16.8853C10.7396 16.9879 10.693 17.1172 10.693 17.2506C10.693 17.384 10.7396 17.5132 10.8248 17.6159L12.0748 18.8616C12.1653 18.9503 12.287 19 12.4138 19C12.5405 19 12.6622 18.9503 12.7527 18.8616C12.8411 18.7718 12.8907 18.6509 12.8907 18.5249C12.8907 18.3989 12.8411 18.2779 12.7527 18.1881L12.2289 17.6687C13.6981 17.61 15.0884 16.9879 16.1112 15.9314C17.134 14.875 17.7109 13.4654 17.7221 11.995Z" fill="#020202"/>
<path d="M13.5455 10.1416C14.3242 10.1416 14.7807 10.7703 14.7809 11.2432C14.7809 11.8062 14.4308 12.3919 13.8785 12.9648C13.3853 13.4765 12.7687 13.9365 12.2194 14.3174C11.6703 13.9366 11.0541 13.4762 10.5612 12.9648C10.009 12.392 9.65881 11.8061 9.65881 11.2432C9.65895 10.7703 10.1155 10.1416 10.8942 10.1416C11.2839 10.1416 11.6589 10.4371 11.9987 10.8086L12.2203 11.0508L12.441 10.8086C12.7807 10.4371 13.1559 10.1418 13.5455 10.1416Z" stroke="#020202" stroke-width="0.6"/>
</svg>
