<svg width="24" height="24" viewBox="0 0 24 24" fill="none" xmlns="http://www.w3.org/2000/svg">
<path d="M12.7037 11.5699C12.6241 11.6182 12.5471 11.669 12.4626 11.7294C12.0228 12.0315 11.6402 12.4206 11.352 12.858C11.2749 12.9764 11.3097 13.1335 11.4315 13.2084C11.4737 13.235 11.5234 13.2495 11.5731 13.2495C11.6601 13.2495 11.7421 13.2084 11.7942 13.1335C12.0452 12.7517 12.3806 12.4109 12.7782 12.1378C12.8428 12.0943 12.9049 12.0484 12.977 12.0073C13.1907 11.8792 13.4168 11.7802 13.6454 11.7028C14.0057 11.8913 14.4132 12.0073 14.8505 12.0073C15.2878 12.0073 15.6953 11.8913 16.0556 11.7028C16.3662 11.8092 16.6618 11.9542 16.9327 12.1427C17.457 12.5052 17.8744 12.9885 18.1378 13.5443C18.3639 14.0083 18.4782 14.5062 18.4782 15.0233C18.4782 15.1635 18.595 15.2771 18.7391 15.2771C18.8832 15.2771 19 15.1635 19 15.0233C19 14.4312 18.8683 13.8609 18.6099 13.3292C18.3092 12.6961 17.8322 12.1402 17.2333 11.7294C17.0221 11.582 16.796 11.4636 16.5625 11.3597C17.0867 10.9005 17.4247 10.2432 17.4247 9.50366C17.4247 8.12375 16.2693 7 14.8505 7C13.4317 7 12.2763 8.12375 12.2763 9.50366C12.2763 10.2383 12.6092 10.8932 13.1285 11.3524C12.9819 11.4152 12.8428 11.4902 12.7037 11.5699ZM12.7956 9.50366C12.7956 8.40408 13.7149 7.5075 14.848 7.5075C15.981 7.5075 16.9004 8.40166 16.9004 9.50366C16.9004 10.6032 15.981 11.4998 14.848 11.4998C13.7149 11.4998 12.7956 10.6032 12.7956 9.50366Z" fill="#020202"/>
<path d="M5.3901 15.0497C5.13169 15.5814 5 16.1517 5 16.7438C5 16.884 5.11678 16.9976 5.2609 16.9976C5.40501 16.9976 5.5218 16.884 5.5218 16.7438C5.5218 16.2291 5.63609 15.7312 5.8622 15.2648C6.12559 14.709 6.54302 14.2257 7.06979 13.8656C7.33814 13.6771 7.63382 13.5345 7.94442 13.4282C8.3047 13.6167 8.7122 13.7327 9.14951 13.7327C9.58683 13.7327 9.99184 13.6167 10.3546 13.4282C10.6652 13.5345 10.9609 13.6795 11.2317 13.868C11.756 14.2305 12.1734 14.7138 12.4368 15.2697C12.6629 15.7337 12.7772 16.2315 12.7772 16.7462C12.7772 16.8864 12.894 17 13.0381 17C13.1822 17 13.299 16.8864 13.299 16.7462C13.299 16.1542 13.1673 15.5838 12.9089 15.0546C12.6083 14.4214 12.1312 13.8656 11.5324 13.4548C11.3212 13.3073 11.0951 13.1889 10.8615 13.085C11.3858 12.6258 11.7237 11.9685 11.7237 11.229C11.7237 9.84909 10.5683 8.72534 9.14951 8.72534C7.73073 8.72534 6.57532 9.84909 6.57532 11.229C6.57532 11.9685 6.91076 12.6258 7.43753 13.085C7.20396 13.1889 6.97785 13.3073 6.76665 13.4523C6.16534 13.8632 5.69076 14.4166 5.3901 15.0497ZM7.09712 11.229C7.09712 10.1294 8.01647 9.23284 9.14951 9.23284C10.2826 9.23284 11.2019 10.1294 11.2019 11.229C11.2019 12.3286 10.2826 13.2252 9.14951 13.2252C8.01896 13.2228 7.09712 12.3286 7.09712 11.229Z" fill="#020202"/>
</svg>
