<svg width="24" height="24" viewBox="0 0 24 24" fill="none" xmlns="http://www.w3.org/2000/svg">
<path d="M10.8529 6.7033L6.85214 10.6539L6.54016 10.3544C6.51258 10.3279 6.47532 10.3132 6.43658 10.3135C6.39784 10.3137 6.36079 10.329 6.33358 10.3558L5.51292 11.1662C5.48571 11.1931 5.47057 11.2294 5.47084 11.2671C5.4711 11.3048 5.48675 11.3409 5.51433 11.3674L5.82631 11.6669L5.72373 11.7682C5.64223 11.8489 5.5969 11.9577 5.59769 12.0709C5.59849 12.184 5.64534 12.2922 5.72796 12.3717L6.55992 13.1705C6.5875 13.1969 6.62476 13.2117 6.6635 13.2114L7.42132 13.2061L9.25394 15.3207C9.29341 15.3655 9.342 15.4018 9.39663 15.4274C9.45125 15.453 9.51074 15.4672 9.57132 15.4692C9.63189 15.4712 9.69225 15.461 9.74857 15.4392C9.80489 15.4173 9.85594 15.3843 9.89851 15.3423L11.1281 14.1281C11.2047 14.0518 11.2493 13.9504 11.2532 13.8438C11.2572 13.7372 11.2202 13.633 11.1495 13.5515L10.4629 12.7595L11.0976 12.1328C11.2334 11.9984 11.3089 11.817 11.3076 11.6285C11.3063 11.4399 11.2282 11.2596 11.0905 11.1271L10.3626 10.4282L12.5168 8.30089C12.5983 8.22023 12.6436 8.1114 12.6428 7.99827C12.642 7.88514 12.5952 7.77695 12.5126 7.69745L11.4726 6.69895C11.3898 6.61962 11.2781 6.57553 11.1619 6.57634C11.0457 6.57716 10.9346 6.62282 10.8529 6.7033ZM5.82349 11.2646L6.43899 10.6568L6.64698 10.8565L6.03148 11.4643L5.82349 11.2646ZM10.8853 11.3297C10.968 11.4092 11.0148 11.5174 11.0156 11.6305C11.0164 11.7437 10.9711 11.8525 10.8896 11.9331L10.2737 12.5413L9.32775 11.45L9.54189 11.2385L9.97569 11.6551C10.0166 11.6945 10.0651 11.7257 10.1184 11.7468C10.1718 11.7679 10.2289 11.7784 10.2865 11.7779L10.5786 11.7758C10.6169 11.7749 10.6533 11.7594 10.6799 11.7326C10.7066 11.7058 10.7214 11.6699 10.7211 11.6326C10.7209 11.5953 10.7056 11.5596 10.6785 11.5332C10.6515 11.5068 10.6149 11.4918 10.5766 11.4914L10.2845 11.4934C10.2653 11.4936 10.2462 11.4901 10.2285 11.4831C10.2107 11.476 10.1945 11.4656 10.1809 11.4525L9.74705 11.036L10.1574 10.6308L10.8853 11.3297ZM12.3074 7.90004C12.3349 7.92655 12.3505 7.96261 12.3508 8.00032C12.3511 8.03803 12.336 8.0743 12.3088 8.10119L9.02615 11.3427C9.00057 11.368 8.98561 11.4017 8.9842 11.4371C8.98279 11.4726 8.99503 11.5072 9.01852 11.5343L10.9269 13.7359C10.9506 13.7631 10.963 13.7979 10.9618 13.8335C10.9605 13.869 10.9456 13.9029 10.9201 13.9284L9.69052 15.1426C9.67641 15.1566 9.65949 15.1675 9.64082 15.1748C9.62216 15.1821 9.60215 15.1855 9.58206 15.185C9.56196 15.1844 9.54221 15.1797 9.52403 15.1714C9.50586 15.163 9.48965 15.1511 9.47643 15.1363L7.60044 12.9716C7.58663 12.9557 7.56938 12.9429 7.54991 12.9342C7.53044 12.9254 7.50924 12.921 7.48781 12.9212L7.01414 12.9245L12.2034 7.80019L12.3074 7.90004ZM11.9954 7.6005L6.66109 12.868L5.93313 12.1691C5.90559 12.1426 5.88998 12.1065 5.88972 12.0688C5.88945 12.0311 5.90456 11.9948 5.93172 11.9679L6.44463 11.4614L6.54863 11.5613C6.57621 11.5878 6.61347 11.6025 6.65221 11.6022C6.69095 11.6019 6.728 11.5867 6.7552 11.5598C6.78241 11.533 6.79755 11.4967 6.79728 11.459C6.79702 11.4212 6.78137 11.3852 6.75379 11.3587L6.6498 11.2588L6.85497 11.0562L6.95896 11.1561C6.98654 11.1826 7.0238 11.1973 7.06254 11.197C7.10128 11.1968 7.13833 11.1815 7.16554 11.1546C7.19274 11.1278 7.20788 11.0915 7.20762 11.0538C7.20735 11.016 7.19171 10.98 7.16413 10.9535L7.06013 10.8536L7.2653 10.651L7.36929 10.7509C7.39687 10.7774 7.43413 10.7921 7.47287 10.7918C7.51161 10.7916 7.54866 10.7763 7.57587 10.7494C7.60308 10.7226 7.61821 10.6863 7.61795 10.6486C7.61768 10.6109 7.60204 10.5748 7.57446 10.5483L7.47046 10.4485L11.0609 6.903C11.0881 6.87618 11.1251 6.86096 11.1639 6.86069C11.2026 6.86042 11.2398 6.87511 11.2675 6.90155L11.9954 7.6005ZM9.70733 14.7209L10.5248 13.9137C10.5504 13.8884 10.5653 13.8548 10.5667 13.8193C10.5682 13.7839 10.5559 13.7492 10.5324 13.7221L8.82973 11.7577C8.81664 11.7426 8.80046 11.7303 8.78221 11.7217C8.76397 11.713 8.74407 11.7081 8.72378 11.7074C8.70349 11.7066 8.68326 11.71 8.66437 11.7172C8.64549 11.7245 8.62837 11.7355 8.61411 11.7496L7.79685 12.5566C7.77128 12.5819 7.75631 12.6156 7.7549 12.651C7.75349 12.6865 7.76573 12.7211 7.78922 12.7482L9.49171 14.7128C9.50481 14.7279 9.52099 14.7402 9.53923 14.7489C9.55748 14.7575 9.57738 14.7624 9.59767 14.7632C9.61796 14.7639 9.63819 14.7606 9.65707 14.7533C9.67595 14.746 9.69307 14.735 9.70733 14.7209ZM8.09846 12.6639L8.7097 12.0603L10.2232 13.8064L9.6118 14.4102L8.09846 12.6639Z" fill="#020202"/>
<path d="M13.1471 8.83685L17.1479 12.7875L17.4598 12.4879C17.4874 12.4615 17.5247 12.4467 17.5634 12.447C17.6022 12.4473 17.6392 12.4625 17.6664 12.4894L18.4871 13.2998C18.5143 13.3266 18.5294 13.3629 18.5292 13.4007C18.5289 13.4384 18.5133 13.4744 18.4857 13.5009L18.1737 13.8005L18.2763 13.9018C18.3578 13.9824 18.4031 14.0913 18.4023 14.2044C18.4015 14.3175 18.3547 14.4257 18.272 14.5052L17.4401 15.304C17.4125 15.3305 17.3752 15.3452 17.3365 15.3449L16.5787 15.3396L14.7461 17.4543C14.7066 17.4991 14.658 17.5354 14.6034 17.5609C14.5487 17.5865 14.4893 17.6007 14.4287 17.6028C14.3681 17.6048 14.3077 17.5946 14.2514 17.5727C14.1951 17.5509 14.1441 17.5179 14.1015 17.4758L12.8719 16.2617C12.7953 16.1853 12.7507 16.084 12.7468 15.9773C12.7428 15.8707 12.7798 15.7665 12.8505 15.6851L13.5371 14.8931L12.9024 14.2664C12.7666 14.132 12.6911 13.9506 12.6924 13.762C12.6937 13.5735 12.7718 13.3932 12.9095 13.2607L13.6374 12.5617L11.4832 10.4344C11.4017 10.3538 11.3564 10.2449 11.3572 10.1318C11.358 10.0187 11.4048 9.9105 11.4874 9.83099L12.5274 8.8325C12.6102 8.75317 12.7219 8.70907 12.8381 8.70989C12.9543 8.7107 13.0654 8.75636 13.1471 8.83685ZM18.1765 13.3982L17.561 12.7904L17.353 12.9901L17.9685 13.5979L18.1765 13.3982ZM13.1147 13.4632C13.032 13.5428 12.9852 13.6509 12.9844 13.7641C12.9836 13.8772 13.0289 13.986 13.1104 14.0667L13.7263 14.6748L14.6722 13.5835L14.4581 13.3721L14.0243 13.7886C13.9834 13.8281 13.9349 13.8593 13.8816 13.8803C13.8282 13.9014 13.7711 13.912 13.7135 13.9114L13.4214 13.9094C13.3831 13.9084 13.3467 13.8929 13.3201 13.8661C13.2934 13.8393 13.2786 13.8034 13.2789 13.7661C13.2791 13.7288 13.2944 13.6931 13.3215 13.6667C13.3485 13.6403 13.3851 13.6253 13.4234 13.6249L13.7155 13.627C13.7347 13.6272 13.7538 13.6236 13.7715 13.6166C13.7893 13.6096 13.8055 13.5992 13.8191 13.586L14.2529 13.1695L13.8426 12.7643L13.1147 13.4632ZM11.6926 10.0336C11.6651 10.0601 11.6495 10.0962 11.6492 10.1339C11.6489 10.1716 11.664 10.2078 11.6912 10.2347L14.9739 13.4763C14.9994 13.5016 15.0144 13.5352 15.0158 13.5707C15.0172 13.6061 15.005 13.6408 14.9815 13.6679L13.0731 15.8695C13.0494 15.8966 13.037 15.9314 13.0382 15.967C13.0395 16.0026 13.0544 16.0365 13.0799 16.062L14.3095 17.2761C14.3236 17.2901 14.3405 17.3011 14.3592 17.3083C14.3778 17.3156 14.3978 17.3191 14.4179 17.3185C14.438 17.3179 14.4578 17.3133 14.476 17.3049C14.4941 17.2966 14.5103 17.2846 14.5236 17.2699L16.3996 15.1052C16.4134 15.0892 16.4306 15.0764 16.4501 15.0677C16.4696 15.059 16.4908 15.0545 16.5122 15.0547L16.9859 15.058L11.7966 9.93374L11.6926 10.0336ZM12.0046 9.73404L17.3389 15.0016L18.0669 14.3026C18.0944 14.2761 18.11 14.2401 18.1103 14.2023C18.1105 14.1646 18.0954 14.1284 18.0683 14.1015L17.5554 13.595L17.4514 13.6948C17.4238 13.7213 17.3865 13.736 17.3478 13.7358C17.3091 13.7355 17.272 13.7202 17.2448 13.6934C17.2176 13.6665 17.2025 13.6302 17.2027 13.5925C17.203 13.5548 17.2186 13.5187 17.2462 13.4922L17.3502 13.3924L17.145 13.1898L17.041 13.2896C17.0135 13.3161 16.9762 13.3308 16.9375 13.3306C16.8987 13.3303 16.8617 13.3151 16.8345 13.2882C16.8073 13.2613 16.7921 13.225 16.7924 13.1873C16.7926 13.1496 16.8083 13.1135 16.8359 13.087L16.9399 12.9872L16.7347 12.7846L16.6307 12.8844C16.6031 12.9109 16.5659 12.9256 16.5271 12.9254C16.4884 12.9251 16.4513 12.9099 16.4241 12.883C16.3969 12.8561 16.3818 12.8198 16.3821 12.7821C16.3823 12.7444 16.398 12.7083 16.4255 12.6818L16.5295 12.582L12.9391 9.03654C12.9119 9.00972 12.8749 8.99451 12.8361 8.99424C12.7974 8.99397 12.7602 9.00866 12.7325 9.03509L12.0046 9.73404ZM14.2927 16.8545L13.4752 16.0472C13.4496 16.022 13.4347 15.9883 13.4333 15.9529C13.4318 15.9174 13.4441 15.8828 13.4676 15.8557L15.1703 13.8913C15.1834 13.8762 15.1995 13.8639 15.2178 13.8552C15.236 13.8465 15.2559 13.8417 15.2762 13.8409C15.2965 13.8401 15.3167 13.8435 15.3356 13.8508C15.3545 13.8581 15.3716 13.8691 15.3859 13.8832L16.2031 14.6902C16.2287 14.7155 16.2437 14.7491 16.2451 14.7846C16.2465 14.82 16.2343 14.8547 16.2108 14.8818L14.5083 16.8464C14.4952 16.8615 14.479 16.8737 14.4608 16.8824C14.4425 16.8911 14.4226 16.896 14.4023 16.8967C14.382 16.8975 14.3618 16.8941 14.3429 16.8868C14.324 16.8796 14.3069 16.8685 14.2927 16.8545ZM15.9015 14.7974L15.2903 14.1939L13.7768 15.94L14.3882 16.5437L15.9015 14.7974Z" fill="#020202"/>
</svg>
