<svg width="24" height="24" viewBox="0 0 24 24" fill="none" xmlns="http://www.w3.org/2000/svg">
<path d="M12.1427 5.53445C12.0437 5.48387 11.9267 5.48936 11.8331 5.54846C11.7388 5.60757 11.6821 5.71239 11.6821 5.82511V13.6249C11.6821 13.8041 11.8241 13.9497 12.0001 13.9497C12.1761 13.9497 12.3181 13.8041 12.3181 13.6249V9.92548L15.9604 8.06506L15.961 8.06567C16.0684 8.01022 16.137 7.8981 16.137 7.77501C16.137 7.65191 16.0684 7.53919 15.961 7.48434L12.1427 5.53445Z" fill="#020202"/>
<path d="M14.186 10.8896C14.0129 10.8585 13.8477 10.9767 13.8172 11.1535C13.7868 11.3302 13.902 11.499 14.0756 11.53C16.6004 11.9846 18.364 13.2473 18.364 14.6001C18.364 16.3617 15.4496 17.8498 12 17.8498C8.55035 17.8498 5.63593 16.3611 5.63593 14.6001C5.63593 13.2485 7.3954 11.9877 9.91425 11.5332H9.91485C10.0879 11.5021 10.2036 11.3333 10.1726 11.1566C10.1422 10.9799 9.9769 10.8616 9.80387 10.8927C6.93068 11.4113 5 12.9012 5 14.6001C5 16.7872 8.07495 18.5001 12 18.5001C15.9257 18.5001 19 16.7872 19 14.6001C19 12.8995 17.0658 11.4083 14.1859 10.8898L14.186 10.8896Z" fill="#020202"/>
</svg>
