<svg width="24" height="24" viewBox="0 0 24 24" fill="none" xmlns="http://www.w3.org/2000/svg">
<path d="M6.4 15H2.8V13.6H3.7V9.4H2.8V8H6.4V9.4H5.5V13.6H6.4V15ZM7.08922 13.55C8.91589 13.65 10.1526 13.7 10.7992 13.7C10.9526 13.7 11.0726 13.6567 11.1592 13.57C11.2526 13.4767 11.2992 13.3533 11.2992 13.2V12.3H8.99922C8.29922 12.3 7.78922 12.1433 7.46922 11.83C7.15589 11.51 6.99922 11 6.99922 10.3V10C6.99922 9.3 7.15589 8.79333 7.46922 8.48C7.78922 8.16 8.29922 8 8.99922 8H12.5092V9.4H9.39922C8.99922 9.4 8.79922 9.6 8.79922 10V10.2C8.79922 10.6 8.99922 10.8 9.39922 10.8H11.1992C11.8526 10.8 12.3326 10.9533 12.6392 11.26C12.9459 11.5667 13.0992 12.0467 13.0992 12.7V13.2C13.0992 13.8533 12.9459 14.3333 12.6392 14.64C12.3326 14.9467 11.8526 15.1 11.1992 15.1C10.8592 15.1 10.4992 15.0933 10.1192 15.08L9.19922 15.04C8.51922 15.0067 7.81589 14.96 7.08922 14.9V13.55ZM18.4984 9.9C18.4984 9.5 18.2984 9.3 17.8984 9.3H16.1984C15.7984 9.3 15.5984 9.5 15.5984 9.9V13.1C15.5984 13.5 15.7984 13.7 16.1984 13.7H17.8984C18.2984 13.7 18.4984 13.5 18.4984 13.1V9.9ZM20.2984 13.1C20.2984 13.8 20.1384 14.31 19.8184 14.63C19.5051 14.9433 18.9984 15.1 18.2984 15.1H15.7984C15.0984 15.1 14.5884 14.9433 14.2684 14.63C13.9551 14.31 13.7984 13.8 13.7984 13.1V9.9C13.7984 9.2 13.9551 8.69333 14.2684 8.38C14.5884 8.06 15.0984 7.9 15.7984 7.9H18.2984C18.9984 7.9 19.5051 8.06 19.8184 8.38C20.1384 8.69333 20.2984 9.2 20.2984 9.9V13.1Z" fill="#020202"/>
</svg>
