<svg width="24" height="24" viewBox="0 0 24 24" fill="none" xmlns="http://www.w3.org/2000/svg">
<path fill-rule="evenodd" clip-rule="evenodd" d="M12 5H12.0049C13.8594 5.00122 15.6378 5.73888 16.9498 7.05021C18.2611 8.3621 18.9988 10.1406 19 11.9951V12.0049C18.9988 13.8594 18.2611 15.6378 16.9498 16.9498C15.6379 18.2611 13.8594 18.9988 12.0049 19H11.9951C10.1406 18.9988 8.36216 18.2611 7.05021 16.9498C5.73893 15.6379 5.00124 13.8594 5 12.0049V11.9951C5.00122 10.1406 5.73888 8.36216 7.05021 7.05021C8.3621 5.73893 10.1406 5.00124 11.9951 5H12ZM12 7.83467C11.0813 7.83589 10.295 8.49457 10.1333 9.3994C9.97231 10.3042 10.4821 11.1943 11.3437 11.5128C10.6261 11.6616 9.98082 12.053 9.51722 12.6205C9.05359 13.1886 8.799 13.8983 8.79657 14.6312V14.8372C8.799 15.57 9.39205 16.163 10.1249 16.1655H13.8751C14.6079 16.163 15.201 15.57 15.2034 14.8372V14.6312C15.201 13.8984 14.9464 13.1887 14.4828 12.6205C14.0191 12.053 13.3738 11.6616 12.6563 11.5128C13.5179 11.1944 14.0277 10.3042 13.8667 9.3994C13.705 8.49463 12.9187 7.83592 12 7.83467ZM13.0779 8.65376C12.5639 8.1397 11.7582 8.0601 11.153 8.46417C10.5484 8.86826 10.3132 9.64298 10.5915 10.315C10.8698 10.987 11.5838 11.3686 12.2972 11.227C13.0105 11.0854 13.5246 10.459 13.5246 9.73224C13.5252 9.32755 13.3642 8.93934 13.0779 8.65376ZM12.0201 11.8207H11.9799C11.2356 11.8231 10.5216 12.1197 9.99476 12.6465C9.46794 13.1727 9.17141 13.8867 9.16898 14.631V14.837C9.1708 15.3638 9.59736 15.7904 10.1242 15.7928H13.8744C14.4019 15.7916 14.829 15.3645 14.8309 14.837V14.631C14.8284 13.8867 14.5319 13.1727 14.0051 12.6465C13.4783 12.1197 12.7649 11.8231 12.0199 11.8207H12.0201ZM18.6244 12.1865H18.1347C18.0873 13.7494 17.445 15.2344 16.3397 16.3397C15.2344 17.445 13.7494 18.0872 12.1866 18.1346V18.6244C13.8789 18.577 15.489 17.8836 16.6862 16.686C17.8838 15.4889 18.577 13.8788 18.6244 12.1865ZM17.7616 12.1865H16.4418C16.3385 12.1865 16.2553 12.1033 16.2553 12C16.2553 11.8967 16.3385 11.8134 16.4418 11.8134H17.7616C17.7142 10.3496 17.112 8.9593 16.0766 7.92331C15.0406 6.88791 13.6503 6.28578 12.1865 6.23834V7.55813C12.1865 7.66143 12.1033 7.74467 12 7.74467C11.8967 7.74467 11.8134 7.66142 11.8134 7.55813V6.23834C10.3496 6.28574 8.95931 6.88791 7.92332 7.92331C6.88791 8.95933 6.28579 10.3496 6.23835 11.8134H7.55814C7.66143 11.8134 7.74468 11.8967 7.74468 12C7.74468 12.1033 7.66143 12.1865 7.55814 12.1865H6.23835C6.28574 13.6503 6.88791 15.0406 7.92332 16.0766C8.95934 17.112 10.3497 17.7141 11.8134 17.7616V16.4418C11.8134 16.3385 11.8967 16.2553 12 16.2553C12.1033 16.2553 12.1865 16.3385 12.1865 16.4418V17.7616C13.6503 17.7142 15.0406 17.112 16.0766 16.0766C17.112 15.0406 17.7141 13.6503 17.7616 12.1865ZM18.1347 11.8134H18.625C18.5776 10.1205 17.8837 8.51099 16.6867 7.31322C15.489 6.11618 13.8794 5.42292 12.1865 5.37548V5.86523C13.7493 5.91262 15.2344 6.55489 16.3396 7.66017C17.4449 8.76547 18.0872 10.2506 18.1347 11.8134ZM5.8653 12.1865H5.37555C5.42294 13.8788 6.11625 15.4889 7.31391 16.6861C8.51095 17.8837 10.1212 18.577 11.8135 18.6244V18.1347C10.2506 18.0873 8.76555 17.445 7.66033 16.3398C6.55504 15.2345 5.91274 13.7494 5.8653 12.1865ZM5.37555 11.8134H5.8653C5.91269 10.2506 6.55496 8.76548 7.66024 7.66027C8.76554 6.55497 10.2505 5.91276 11.8134 5.86532V5.37557C10.1211 5.42297 8.51097 6.11628 7.31382 7.31394C6.11617 8.51098 5.42299 10.1211 5.37555 11.8134Z" fill="#020202"/>
</svg>
