<svg width="24" height="24" viewBox="0 0 24 24" fill="none" xmlns="http://www.w3.org/2000/svg">
<path d="M18.7207 9.09714L14.904 5.27929C14.726 5.10123 14.4849 5 14.2307 5C13.9765 5 13.7354 5.09826 13.5574 5.27929L13.1097 5.72712C12.7382 6.09872 12.7382 6.70197 13.1097 7.07357C13.2335 7.19744 13.2335 7.39753 13.1097 7.5214L10.4682 10.1637C10.3825 10.2494 10.2586 10.278 10.1443 10.2399L8.86795 9.81411C8.52206 9.69978 8.15058 9.78851 7.89339 10.0428L7.4963 10.44C7.31532 10.621 7.21709 10.8592 7.21709 11.1135C7.21709 11.3678 7.31532 11.606 7.4963 11.7871L9.62997 13.9214L5.09287 18.4599C4.96904 18.5837 4.96904 18.7838 5.09287 18.9077C5.15657 18.9714 5.23575 19 5.31851 19C5.40126 19 5.48044 18.9684 5.54414 18.9077L10.0812 14.3692L12.2149 16.5035C12.3959 16.6846 12.634 16.7828 12.8882 16.7828C13.1425 16.7828 13.3806 16.6846 13.5616 16.5035L13.9646 16.1033C14.2152 15.8526 14.3075 15.484 14.1998 15.144L13.7872 13.8261C13.7521 13.7118 13.7807 13.5909 13.8664 13.5087L16.4794 10.8949C16.6032 10.7711 16.8032 10.7711 16.9271 10.8949C17.2985 11.2665 17.9016 11.2665 18.2731 10.8949L18.7208 10.4471C18.8988 10.269 19 10.0279 19 9.77356C19 9.51927 18.9018 9.27809 18.7208 9.10003L18.7207 9.09714ZM18.2701 9.99636L17.8224 10.4442C17.6985 10.568 17.4955 10.568 17.3747 10.4442C17.0032 10.0726 16.4001 10.0726 16.0286 10.4442L13.4121 13.058C13.1615 13.3087 13.0692 13.6773 13.177 14.0173L13.5895 15.3352C13.6247 15.4495 13.5961 15.5704 13.5104 15.6526L13.1073 16.0528C12.9865 16.1737 12.7769 16.1737 12.6596 16.0528L7.94452 11.3363C7.88439 11.2761 7.85224 11.1963 7.85224 11.1105C7.85224 11.0248 7.8838 10.9456 7.94452 10.8848L8.34161 10.4876C8.40174 10.4275 8.48152 10.3953 8.56367 10.3953C8.59879 10.3953 8.63034 10.4019 8.66547 10.4114L9.94186 10.8372C10.2848 10.9515 10.6592 10.8628 10.9164 10.6085L13.5579 7.96623C13.9294 7.59463 13.9294 6.99138 13.5579 6.61978C13.4341 6.49592 13.4341 6.29582 13.5579 6.17196L14.0056 5.72413C14.0657 5.66398 14.1455 5.63182 14.2312 5.63182C14.317 5.63182 14.3961 5.66339 14.4569 5.72413L18.2735 9.54197C18.3337 9.60212 18.3658 9.68192 18.3658 9.76768C18.3658 9.85344 18.3343 9.93263 18.2735 9.99338L18.2701 9.99636Z" fill="#020202"/>
</svg>
