<svg width="24" height="24" viewBox="0 0 24 24" fill="none" xmlns="http://www.w3.org/2000/svg">
<path d="M9.49122 9.55977C9.52762 9.67877 9.63682 9.75997 9.76002 9.75997H14.24C14.3632 9.75997 14.4724 9.67878 14.5088 9.55977L15.3488 6.75979C15.3782 6.66179 15.3516 6.55539 15.2802 6.48259C15.2088 6.40979 15.1024 6.38179 15.0044 6.40979L13.2558 6.90959L12.245 5.14C12.1932 5.0532 12.1008 5 12 5C11.8992 5 11.8068 5.0532 11.7564 5.1414L10.7456 6.91099L8.99702 6.41119C8.89902 6.38319 8.79262 6.41119 8.72121 6.48399C8.6498 6.55678 8.62321 6.66318 8.65261 6.76119L9.49122 9.55977ZM10.803 7.50884C10.9276 7.54384 11.0592 7.49064 11.1236 7.37864L12 5.84425L12.8764 7.37864C12.9408 7.49064 13.0724 7.54524 13.197 7.50884L14.6642 7.08883L14.0314 9.19998H9.96861L9.33582 7.09027L10.803 7.50884ZM18.7201 18.44H18.1601V13.5414C18.1601 13.155 17.8451 12.84 17.4587 12.84H14.2401V11.8614C14.2401 11.475 13.9251 11.16 13.5386 11.16H10.4614C10.075 11.16 9.76002 11.475 9.76002 11.8614V14.52H6.54141C6.15502 14.52 5.84 14.835 5.84 15.2214V18.44H5.28C5.126 18.44 5 18.566 5 18.72C5 18.874 5.126 19 5.28 19H18.72C18.874 19 19 18.874 19 18.72C19 18.566 18.8741 18.44 18.7201 18.44ZM6.40007 15.2214C6.40007 15.143 6.46307 15.08 6.54147 15.08H9.76008V18.44H6.40008L6.40007 15.2214ZM10.3201 14.8V11.8615C10.3201 11.7831 10.3831 11.7201 10.4615 11.7201H13.5373C13.6157 11.7201 13.6787 11.7831 13.6787 11.8615V18.4401H10.3201L10.3201 14.8ZM14.2401 18.4399V13.3999H17.4587C17.5371 13.3999 17.6001 13.4629 17.6001 13.5413V18.4399L14.2401 18.4399Z" fill="#020202"/>
</svg>
