<svg width="24" height="24" viewBox="0 0 24 24" fill="none" xmlns="http://www.w3.org/2000/svg">
<path d="M11.2484 14.2769L10.1726 13.879V12.1401C10.1726 11.8601 9.95159 11.639 9.67159 11.639C9.39159 11.639 9.17053 11.8601 9.17053 12.1401V14.2327C9.17053 14.439 9.30316 14.6306 9.49474 14.7043L10.8947 15.2201C10.9537 15.2348 11.0126 15.2496 11.0716 15.2496C11.2779 15.2496 11.4695 15.1169 11.5432 14.9254C11.6463 14.6454 11.5137 14.3654 11.2484 14.2769Z" fill="#020202"/>
<path d="M15.2421 8.1905C14.6526 8.76524 14.2105 9.16313 13.8863 9.4284L13.5768 9.11892C13.1053 8.64735 12.3537 8.64735 11.8821 9.11892L11.2189 9.79682C10.7179 9.61998 10.2021 9.53156 9.68632 9.53156C8.49263 9.53156 7.28421 9.9884 6.37053 10.9021C4.54316 12.7295 4.54316 15.7063 6.37053 17.5337C7.28421 18.4473 8.49263 18.9042 9.68632 18.9042C10.88 18.9042 12.0884 18.4473 13.0021 17.5337C14.3137 16.2221 14.6821 14.3358 14.1221 12.7L14.8 12.0221C15.2716 11.5505 15.2716 10.7989 14.8 10.3273L14.5642 10.0916C14.9032 9.81156 15.3453 9.41366 15.9053 8.85366C16.0821 8.67682 16.0821 8.36735 15.9053 8.17577C15.7284 7.99892 15.4189 7.99892 15.2421 8.1905ZM12.3389 16.8705C11.6316 17.5779 10.6884 17.961 9.70105 17.961C8.71368 17.961 7.75579 17.5779 7.04842 16.8705C5.58947 15.4116 5.58947 13.0389 7.04842 11.58C7.75579 10.8726 8.69895 10.4895 9.68632 10.4895C10.6737 10.4895 11.6168 10.8726 12.3242 11.58C13.7832 13.0389 13.7832 15.4116 12.3389 16.8705ZM14.1221 11.3442L13.68 11.7863C13.4884 11.4768 13.2674 11.1821 13.0021 10.9168C12.7368 10.6516 12.4421 10.4305 12.1326 10.2389L12.5747 9.79682C12.6632 9.7084 12.8253 9.7084 12.9137 9.79682L14.1221 11.0052C14.2253 11.0937 14.2253 11.2558 14.1221 11.3442Z" fill="#020202"/>
<path d="M16.76 7.7043C16.8632 7.7043 16.9516 7.66009 17.0105 7.60114L17.9832 6.62851C18.1305 6.48114 18.1305 6.26009 17.9832 6.11272C17.8358 5.96536 17.6147 5.96536 17.4674 6.11272L16.4947 7.08536C16.3474 7.23272 16.3474 7.45378 16.4947 7.60114C16.5684 7.66009 16.6568 7.7043 16.76 7.7043Z" fill="#020202"/>
<path d="M15.5811 7.21793C15.7874 7.21793 15.9495 7.05583 15.9495 6.84951V5.46425C15.9495 5.25793 15.7874 5.09583 15.5811 5.09583C15.3747 5.09583 15.2126 5.25793 15.2126 5.46425V6.84951C15.2126 7.05583 15.3747 7.21793 15.5811 7.21793Z" fill="#020202"/>
<path d="M14.1368 7.60114C14.2105 7.67483 14.2989 7.7043 14.4021 7.7043C14.5053 7.7043 14.5937 7.66009 14.6674 7.60114C14.8147 7.45378 14.8147 7.23272 14.6674 7.08536L13.6947 6.11272C13.5474 5.96536 13.3263 5.96536 13.1789 6.11272C13.0316 6.26009 13.0316 6.48114 13.1789 6.62851L14.1368 7.60114Z" fill="#020202"/>
<path d="M17.0253 9.45794C16.8779 9.31057 16.6569 9.31057 16.5095 9.45794C16.3621 9.60531 16.3621 9.82636 16.5095 9.97373L17.4821 10.9464C17.5558 11.02 17.6442 11.0495 17.7474 11.0495C17.8505 11.0495 17.939 11.0053 18.0126 10.9464C18.16 10.799 18.16 10.5779 18.0126 10.4306L17.0253 9.45794Z" fill="#020202"/>
<path d="M18.6316 8.16113H17.2463C17.04 8.16113 16.8779 8.32324 16.8779 8.52955C16.8779 8.73587 17.04 8.89797 17.2463 8.89797H18.6316C18.8379 8.89797 19 8.73587 19 8.52955C19 8.32324 18.8379 8.16113 18.6316 8.16113Z" fill="#020202"/>
</svg>
