<svg width="24" height="24" viewBox="0 0 24 24" fill="none" xmlns="http://www.w3.org/2000/svg">
<path d="M5.65808 15.7003C5.22216 16.5999 5 17.5648 5 18.5666C5 18.8037 5.19701 18.9959 5.44012 18.9959C5.68323 18.9959 5.88024 18.8037 5.88024 18.5666C5.88024 17.6957 6.07305 16.8534 6.45449 16.0643C6.8988 15.1238 7.603 14.3061 8.49162 13.6968C8.94431 13.3779 9.44312 13.1367 9.96707 12.9568C10.5749 13.2757 11.2623 13.472 12 13.472C12.7377 13.472 13.421 13.2757 14.0329 12.9568C14.5569 13.1367 15.0557 13.382 15.5126 13.7009C16.397 14.3143 17.1012 15.132 17.5455 16.0724C17.9269 16.8575 18.1198 17.6998 18.1198 18.5707C18.1198 18.8078 18.3168 19 18.5599 19C18.803 19 19 18.8078 19 18.5707C19 17.5689 18.7778 16.604 18.3419 15.7085C17.8347 14.6373 17.0299 13.6968 16.0198 13.0018C15.6635 12.7523 15.282 12.552 14.888 12.3762C15.7725 11.5993 16.3425 10.4871 16.3425 9.23598C16.3425 6.90128 14.3934 5 12 5C9.60659 5 7.65749 6.90128 7.65749 9.23598C7.65749 10.4871 8.22335 11.5993 9.11198 12.3762C8.71796 12.552 8.33653 12.7523 7.98024 12.9977C6.96587 13.6928 6.16527 14.6291 5.65808 15.7003ZM8.53773 9.23598C8.53773 7.37558 10.0886 5.85865 12 5.85865C13.9114 5.85865 15.4623 7.37558 15.4623 9.23598C15.4623 11.0964 13.9114 12.6133 12 12.6133C10.0928 12.6092 8.53773 11.0964 8.53773 9.23598Z" fill="#020202"/>
</svg>
