<svg width="24" height="24" viewBox="0 0 24 24" fill="none" xmlns="http://www.w3.org/2000/svg">
<path d="M9.3522 15.5861C9.1702 15.9716 9.07745 16.385 9.07745 16.8142C9.07745 16.9159 9.1597 16.9982 9.2612 16.9982C9.3627 16.9982 9.44495 16.9159 9.44495 16.8142C9.44495 16.4411 9.52545 16.0802 9.6847 15.7421C9.8702 15.3391 10.1642 14.9887 10.5352 14.7277C10.7242 14.591 10.9324 14.4877 11.1512 14.4106C11.4049 14.5472 11.6919 14.6313 11.9999 14.6313C12.3079 14.6313 12.5932 14.5472 12.8487 14.4106C13.0674 14.4877 13.2757 14.5928 13.4664 14.7295C13.8357 14.9922 14.1297 15.3426 14.3152 15.7456C14.4744 16.0819 14.5549 16.4428 14.5549 16.816C14.5549 16.9176 14.6372 17 14.7387 17C14.8402 17 14.9224 16.9176 14.9224 16.816C14.9224 16.3868 14.8297 15.9733 14.6477 15.5896C14.4359 15.1306 14.0999 14.7277 13.6782 14.4299C13.5294 14.323 13.3702 14.2372 13.2057 14.1618C13.5749 13.829 13.8129 13.3524 13.8129 12.8163C13.8129 11.816 12.9992 11.0013 11.9999 11.0013C11.0007 11.0013 10.1869 11.816 10.1869 12.8163C10.1869 13.3524 10.4232 13.829 10.7942 14.1618C10.6297 14.2372 10.4704 14.323 10.3217 14.4281C9.8982 14.7259 9.56395 15.1271 9.3522 15.5861ZM10.5544 12.8163C10.5544 12.0192 11.2019 11.3692 11.9999 11.3692C12.7979 11.3692 13.4454 12.0192 13.4454 12.8163C13.4454 13.6135 12.7979 14.2634 11.9999 14.2634C11.2037 14.2617 10.5544 13.6135 10.5544 12.8163Z" fill="#020202"/>
<path d="M5.18375 15.6966C5.28525 15.6966 5.3675 15.6142 5.3675 15.5126C5.3675 15.1377 5.448 14.7768 5.609 14.4404C5.7945 14.0392 6.08675 13.6871 6.45774 13.4261C6.64849 13.2894 6.85674 13.186 7.07374 13.109C7.32749 13.2456 7.61449 13.3297 7.92249 13.3297C8.23049 13.3297 8.51574 13.2456 8.77124 13.109C8.93224 13.165 9.08974 13.2369 9.24199 13.3297C9.29274 13.3595 9.33824 13.3928 9.38899 13.4296C9.66548 13.624 9.89648 13.864 10.075 14.1479C10.11 14.2039 10.1695 14.2337 10.2307 14.2337C10.264 14.2337 10.299 14.2249 10.3287 14.2057C10.4145 14.1514 10.4407 14.0375 10.3865 13.9516C10.1817 13.6275 9.91748 13.3507 9.59898 13.1282C9.54473 13.0897 9.49048 13.0512 9.43273 13.0161C9.33649 12.9565 9.23674 12.904 9.13524 12.8567C9.50273 12.5238 9.73723 12.049 9.73723 11.5147C9.73723 10.5144 8.92349 9.69971 7.92424 9.69971C6.92499 9.69971 6.1095 10.5109 6.1095 11.513C6.1095 12.049 6.34575 12.5256 6.71674 12.8584C6.55224 12.9338 6.393 13.0196 6.24425 13.1247C5.8225 13.4243 5.4865 13.8255 5.27475 14.2845C5.09275 14.6699 5 15.0834 5 15.5126C5 15.6142 5.08225 15.6966 5.18375 15.6966ZM6.47875 11.513C6.47875 10.7158 7.12624 10.0659 7.92424 10.0659C8.72224 10.0659 9.36974 10.7141 9.36974 11.513C9.36974 12.3101 8.72224 12.96 7.92424 12.96C7.12624 12.96 6.47875 12.3101 6.47875 11.513Z" fill="#020202"/>
<path d="M10.0242 11.1135C10.075 11.1135 10.124 11.0925 10.1607 11.054C10.2675 10.9366 10.3917 10.828 10.5335 10.7299C10.7225 10.5932 10.9325 10.4898 11.1512 10.411C11.405 10.5477 11.692 10.6318 12 10.6318C12.308 10.6318 12.5932 10.5477 12.847 10.411C13.0657 10.4881 13.274 10.5932 13.4647 10.7299C13.6012 10.8262 13.729 10.9348 13.841 11.0557C13.8777 11.0943 13.9267 11.1135 13.9757 11.1135C14.0212 11.1135 14.0667 11.0978 14.1017 11.0627C14.1752 10.9926 14.1787 10.877 14.1105 10.8017C13.9792 10.6633 13.834 10.5371 13.6782 10.4285C13.5295 10.3217 13.3702 10.2358 13.2057 10.1605C13.575 9.82762 13.813 9.35109 13.813 8.815C13.813 7.81465 12.9992 7 12 7C11.0007 7 10.187 7.81465 10.187 8.815C10.187 9.35109 10.4232 9.82762 10.7925 10.1605C10.628 10.2358 10.467 10.3217 10.32 10.4268C10.159 10.5407 10.0137 10.6668 9.88772 10.8034C9.81947 10.8788 9.82472 10.9944 9.89997 11.0645C9.93672 11.0978 9.98047 11.1135 10.0242 11.1135ZM10.5545 8.815C10.5545 8.01787 11.202 7.36791 12 7.36791C12.798 7.36791 13.4455 8.01612 13.4455 8.815C13.4455 9.61213 12.798 10.2621 12 10.2621C11.2037 10.2621 10.5545 9.61388 10.5545 8.815Z" fill="#020202"/>
<path d="M14.5655 13.0109C14.5095 13.0459 14.4553 13.0827 14.3958 13.1265C14.086 13.3455 13.8165 13.6276 13.6135 13.9447C13.5593 14.0305 13.5838 14.1444 13.6695 14.1987C13.6993 14.218 13.7343 14.2285 13.7693 14.2285C13.8305 14.2285 13.8883 14.1987 13.925 14.1444C14.1018 13.8676 14.338 13.6206 14.618 13.4226C14.6635 13.3911 14.7073 13.3578 14.758 13.328C14.9085 13.2351 15.0677 13.1633 15.2287 13.1073C15.4825 13.2439 15.7695 13.328 16.0775 13.328C16.3855 13.328 16.6725 13.2439 16.9262 13.1073C17.145 13.1843 17.3532 13.2895 17.544 13.4261C17.9132 13.6889 18.2072 14.0393 18.3927 14.4422C18.552 14.7786 18.6325 15.1395 18.6325 15.5144C18.6325 15.616 18.7147 15.6984 18.8162 15.6984C18.9177 15.6984 19 15.616 19 15.5144C19 15.0852 18.9072 14.6717 18.7252 14.2863C18.5135 13.8273 18.1775 13.4244 17.7557 13.1265C17.607 13.0197 17.4477 12.9338 17.2832 12.8585C17.6525 12.5256 17.8905 12.0491 17.8905 11.513C17.8905 10.5126 17.0767 9.698 16.0775 9.698C15.0783 9.698 14.2645 10.5126 14.2645 11.513C14.2645 12.0456 14.499 12.5204 14.8648 12.8532C14.7615 12.8988 14.6635 12.9531 14.5655 13.0109ZM14.6303 11.513C14.6303 10.7159 15.2777 10.0659 16.0757 10.0659C16.8737 10.0659 17.5212 10.7141 17.5212 11.513C17.5212 12.3101 16.8737 12.9601 16.0757 12.9601C15.2777 12.9601 14.6303 12.3101 14.6303 11.513Z" fill="#020202"/>
</svg>
