<svg width="24" height="24" viewBox="0 0 24 24" fill="none" xmlns="http://www.w3.org/2000/svg">
<path d="M5.18375 14.2922C5.28525 14.2922 5.3675 14.2127 5.3675 14.1146C5.3675 13.7526 5.448 13.4041 5.609 13.0793C5.7945 12.6919 6.08675 12.3519 6.45774 12.0999C6.64849 11.9679 6.85674 11.8681 7.07374 11.7937C7.32749 11.9256 7.61449 12.0068 7.92249 12.0068C8.23049 12.0068 8.51574 11.9256 8.77124 11.7937C8.93224 11.8478 9.08974 11.9172 9.24199 12.0068C9.29274 12.0356 9.33824 12.0677 9.38899 12.1032C9.66548 12.291 9.89648 12.5228 10.075 12.7968C10.11 12.8509 10.1695 12.8797 10.2307 12.8797C10.264 12.8797 10.299 12.8712 10.3287 12.8526C10.4145 12.8002 10.4407 12.6902 10.3865 12.6073C10.1817 12.2944 9.91748 12.0271 9.59898 11.8123C9.54473 11.7751 9.49048 11.7378 9.43273 11.704C9.33649 11.6465 9.23674 11.5957 9.13524 11.5501C9.50273 11.2287 9.73723 10.7702 9.73723 10.2543C9.73723 9.28833 8.92349 8.50171 7.92424 8.50171C6.92499 8.50171 6.1095 9.28494 6.1095 10.2526C6.1095 10.7702 6.34575 11.2303 6.71674 11.5518C6.55224 11.6245 6.393 11.7074 6.24425 11.8089C5.8225 12.0982 5.4865 12.4856 5.27475 12.9288C5.09275 13.3009 5 13.7002 5 14.1146C5 14.2127 5.08225 14.2922 5.18375 14.2922ZM6.47875 10.2526C6.47875 9.48287 7.12624 8.85526 7.92424 8.85526C8.72224 8.85526 9.36974 9.48118 9.36974 10.2526C9.36974 11.0223 8.72224 11.6499 7.92424 11.6499C7.12624 11.6499 6.47875 11.0223 6.47875 10.2526Z" fill="#020202"/>
<path d="M14.5655 11.6989C14.5095 11.7327 14.4552 11.7683 14.3957 11.8106C14.086 12.022 13.8165 12.2944 13.6135 12.6006C13.5592 12.6835 13.5837 12.7934 13.6695 12.8459C13.6992 12.8645 13.7342 12.8746 13.7692 12.8746C13.8305 12.8746 13.8882 12.8459 13.925 12.7934C14.1017 12.5261 14.338 12.2876 14.618 12.0965C14.6635 12.066 14.7072 12.0339 14.758 12.0051C14.9085 11.9154 15.0677 11.8461 15.2287 11.792C15.4825 11.9239 15.7695 12.0051 16.0775 12.0051C16.3855 12.0051 16.6725 11.9239 16.9262 11.792C17.145 11.8664 17.3532 11.9679 17.544 12.0998C17.9132 12.3536 18.2072 12.6919 18.3927 13.081C18.552 13.4058 18.6325 13.7543 18.6325 14.1163C18.6325 14.2144 18.7147 14.2939 18.8162 14.2939C18.9177 14.2939 19 14.2144 19 14.1163C19 13.7018 18.9072 13.3026 18.7252 12.9304C18.5135 12.4872 18.1775 12.0981 17.7557 11.8106C17.607 11.7074 17.4477 11.6245 17.2832 11.5517C17.6525 11.2303 17.8905 10.7702 17.8905 10.2526C17.8905 9.28662 17.0767 8.5 16.0775 8.5C15.0782 8.5 14.2645 9.28662 14.2645 10.2526C14.2645 10.7668 14.499 11.2253 14.8647 11.5467C14.7615 11.5906 14.6635 11.6431 14.5655 11.6989ZM14.6302 10.2526C14.6302 9.48285 15.2777 8.85525 16.0757 8.85525C16.8737 8.85525 17.5212 9.48116 17.5212 10.2526C17.5212 11.0223 16.8737 11.6499 16.0757 11.6499C15.2777 11.6499 14.6302 11.0223 14.6302 10.2526Z" fill="#020202"/>
<path d="M9.29974 14.1348C9.11774 14.507 9.02499 14.9062 9.02499 15.3207C9.02499 15.4188 9.10724 15.4983 9.20874 15.4983C9.31024 15.4983 9.39249 15.4188 9.39249 15.3207C9.39249 14.9603 9.47298 14.6119 9.63223 14.2854C9.81773 13.8963 10.1117 13.558 10.4827 13.3059C10.6717 13.174 10.88 13.0742 11.0987 12.9997C11.3525 13.1317 11.6395 13.2129 11.9475 13.2129C12.2555 13.2129 12.5407 13.1317 12.7962 12.9997C13.015 13.0742 13.2232 13.1757 13.414 13.3076C13.7832 13.5613 14.0772 13.8997 14.2627 14.2888C14.422 14.6136 14.5025 14.962 14.5025 15.3224C14.5025 15.4205 14.5847 15.5 14.6862 15.5C14.7877 15.5 14.87 15.4205 14.87 15.3224C14.87 14.9079 14.7772 14.5087 14.5952 14.1382C14.3835 13.695 14.0475 13.3059 13.6257 13.0183C13.477 12.9151 13.3177 12.8322 13.1532 12.7595C13.5225 12.4381 13.7605 11.978 13.7605 11.4603C13.7605 10.4944 12.9467 9.70776 11.9475 9.70776C10.9482 9.70776 10.1345 10.4944 10.1345 11.4603C10.1345 11.978 10.3707 12.4381 10.7417 12.7595C10.5772 12.8322 10.418 12.9151 10.2692 13.0166C9.84573 13.3042 9.51148 13.6916 9.29974 14.1348ZM10.502 11.4603C10.502 10.6906 11.1495 10.063 11.9475 10.063C12.7455 10.063 13.393 10.6906 13.393 11.4603C13.393 12.23 12.7455 12.8576 11.9475 12.8576C11.1512 12.8559 10.502 12.23 10.502 11.4603Z" fill="#020202"/>
</svg>
