<svg width="24" height="24" viewBox="0 0 24 24" fill="none" xmlns="http://www.w3.org/2000/svg">
<path d="M17.4747 12.4797L14.6575 10.0573C16.2402 8.9781 17.2187 7.17342 17.2187 5.25101C17.2187 5.11273 17.1064 5.0005 16.9682 5.0005C16.8299 5.0005 16.7176 5.11273 16.7176 5.25101C16.7176 7.05268 15.7792 8.74462 14.2662 9.72011L13.6875 9.22209C12.9044 8.54872 11.734 8.37888 10.7911 8.78921C10.024 8.89994 9.35065 9.33232 8.92679 9.95258C7.19176 9.03822 6.07599 7.22303 6.07599 5.25051C6.07599 5.11223 5.96376 5 5.82548 5C5.68719 5 5.57497 5.11223 5.57497 5.25051C5.57497 7.4069 6.78794 9.39845 8.6843 10.4005C8.64772 10.4852 8.61014 10.5693 8.58209 10.6585L7.05348 15.4127C6.82752 16.1106 6.88814 16.8551 7.22382 17.509C7.55901 18.1623 8.12816 18.6443 8.82458 18.8662C9.09814 18.9549 9.38172 19 9.6673 19C10.8657 19 11.9149 18.2344 12.2786 17.0951L12.7431 15.6512L13.8919 16.6402C14.3889 17.0686 15.0247 17.3045 15.6815 17.3045C16.4832 17.3045 17.2427 16.9573 17.7648 16.3516C18.7478 15.2033 18.6185 13.4662 17.4747 12.4797ZM11.8001 16.9423C11.503 17.8732 10.6453 18.499 9.66629 18.499C9.43332 18.499 9.20135 18.4624 8.97689 18.3893C8.40723 18.2079 7.94229 17.8141 7.66823 17.28C7.39367 16.7454 7.34457 16.1372 7.52894 15.5665L9.05806 10.8108C9.0796 10.7432 9.10866 10.6796 9.13622 10.6149C9.51699 10.7748 9.90628 10.893 10.2991 10.9676C10.3111 11.1079 10.3502 11.2457 10.4163 11.3745C10.5506 11.6365 10.7791 11.8304 11.0591 11.9201C11.1689 11.9552 11.2821 11.9732 11.3963 11.9732C11.8763 11.9732 12.2977 11.6661 12.445 11.2086C12.6308 10.6305 12.3117 10.0087 11.734 9.82282C11.1859 9.64796 10.5832 9.94607 10.3752 10.4721C10.0411 10.4075 9.70988 10.3088 9.38572 10.1765C9.74045 9.69355 10.2825 9.35988 10.8983 9.28071C10.9078 9.27971 10.9168 9.27671 10.9264 9.2742C11.0336 9.26218 11.1418 9.26618 11.25 9.26869C11.3031 9.27019 11.3562 9.26318 11.4083 9.26819C11.5697 9.28322 11.7295 9.31428 11.8813 9.36388C13.0607 9.74566 13.71 11.0122 13.3298 12.1876L11.8001 16.9423ZM11.3958 10.5723C11.22 10.5723 11.0551 10.5623 10.8948 10.5478C11.003 10.3789 11.1874 10.2707 11.3953 10.2707C11.4579 10.2707 11.5196 10.2807 11.5797 10.2998C11.8948 10.401 12.0687 10.7402 11.9675 11.0553C11.8873 11.3043 11.6578 11.4722 11.3958 11.4722C11.3337 11.4722 11.2716 11.4622 11.2114 11.4431C11.0586 11.394 10.9344 11.2883 10.8612 11.1455C10.8447 11.1134 10.8427 11.0784 10.8322 11.0448C11.0125 11.0618 11.1974 11.0734 11.3953 11.0734C11.5336 11.0734 11.6458 10.9611 11.6458 10.8229C11.6458 10.6846 11.5346 10.5723 11.3958 10.5723ZM17.3835 16.0249C16.9566 16.52 16.3359 16.804 15.68 16.804C15.1429 16.804 14.6239 16.6111 14.2176 16.2614L12.9084 15.1341L13.8057 12.3414C13.8493 12.2072 13.8784 12.0719 13.8999 11.9366C13.9039 11.9111 13.9089 11.8855 13.9124 11.86C13.93 11.7302 13.9375 11.6009 13.9365 11.4722C13.936 11.4466 13.9345 11.4221 13.9335 11.3965C13.9285 11.2673 13.9169 11.1385 13.8939 11.0122C13.8934 11.0082 13.8929 11.0042 13.8924 11.0002C13.8683 10.8715 13.8323 10.7462 13.7902 10.6234C13.7817 10.5989 13.7742 10.5743 13.7651 10.5498C13.7215 10.4321 13.6699 10.3173 13.6103 10.2066C13.5988 10.1851 13.5858 10.164 13.5737 10.143C13.5116 10.0342 13.4445 9.92903 13.3678 9.82983C13.3633 9.82382 13.3598 9.81781 13.3548 9.8118C13.2751 9.70959 13.186 9.61489 13.0923 9.52471C13.0732 9.50617 13.0542 9.48764 13.0342 9.4696C12.94 9.38392 12.8398 9.30426 12.7325 9.23161C12.725 9.2266 12.719 9.21959 12.711 9.21458C12.9465 9.30627 13.1659 9.43703 13.3593 9.60337L17.1465 12.86C18.0829 13.6656 18.1886 15.086 17.3835 16.0249Z" fill="#020202"/>
<path d="M11.1919 13.085L9.53703 12.4642C9.40777 12.4161 9.26297 12.4812 9.21437 12.6105C9.16577 12.7398 9.23141 12.8845 9.36067 12.9331L11.0155 13.5539C11.0446 13.5644 11.0742 13.5699 11.1037 13.5699C11.2049 13.5699 11.3006 13.5078 11.3382 13.4076C11.3868 13.2778 11.3217 13.1336 11.1919 13.085Z" fill="#020202"/>
<path d="M10.517 14.56L8.86216 13.9397C8.7339 13.8911 8.5886 13.9568 8.5395 14.0865C8.4909 14.2158 8.55654 14.3601 8.6863 14.4092L10.3412 15.0295C10.3702 15.04 10.3998 15.0455 10.4288 15.0455C10.5301 15.0455 10.6257 14.9834 10.6633 14.8827C10.7119 14.7529 10.6463 14.6086 10.517 14.56Z" fill="#020202"/>
</svg>
